<svg width="384" height="157" viewBox="0 0 384 157" fill="none" xmlns="http://www.w3.org/2000/svg">
<g clip-path="url(#clip0_135_72030)">
<path d="M129.491 8.79038C128.341 14.3576 117.229 21.8633 119.551 19.1698C124.464 13.4673 116.869 13.8279 115.246 8.72276C113.848 4.35011 117.736 0 122.334 0C126.932 0 130.426 4.28249 129.502 8.79038H129.491Z" fill="#54DCA5"/>
<path d="M140.028 11.2812C141.977 11.2812 143.679 11.6193 145.144 12.3068C146.609 12.9942 147.86 14.2114 148.886 15.9469L145.313 18.5953C144.513 17.5698 143.69 16.7809 142.856 16.2287C142.022 15.6764 141.076 15.406 140.028 15.406C138.653 15.406 137.548 15.6877 136.692 16.2625C135.847 16.8372 135.418 17.6036 135.418 18.5615C135.418 19.0912 135.542 19.5307 135.779 19.9026C136.016 20.2745 136.342 20.59 136.737 20.8605C137.131 21.131 137.605 21.3789 138.123 21.5818C138.641 21.7846 139.205 21.9988 139.802 22.2016C140.377 22.3819 140.941 22.5735 141.504 22.7538C142.067 22.9341 142.62 23.1483 143.172 23.3737C144.017 23.7456 144.851 24.14 145.663 24.5795C146.474 25.019 147.195 25.5374 147.804 26.1573C148.424 26.7771 148.919 27.5096 149.303 28.3549C149.675 29.2001 149.866 30.2257 149.866 31.409C149.866 32.7163 149.573 33.8432 148.987 34.8124C148.401 35.7704 147.623 36.5705 146.654 37.2129C145.685 37.8553 144.569 38.3399 143.318 38.6554C142.067 38.971 140.783 39.14 139.453 39.14C137.436 39.14 135.587 38.6892 133.908 37.7876C132.229 36.8861 130.865 35.6126 129.84 33.9559L133.176 31.0033C134.089 32.1302 135.069 33.0769 136.095 33.8545C137.12 34.6321 138.258 35.0266 139.498 35.0266C141.076 35.0266 142.327 34.7448 143.24 34.1701C144.152 33.5953 144.637 32.6599 144.682 31.3526C144.705 30.3271 144.445 29.5495 143.893 29.0311C143.341 28.5127 142.552 28.0281 141.527 27.5773C141.346 27.5096 141.098 27.4195 140.805 27.3068C140.512 27.1941 140.197 27.0701 139.859 26.9462C139.532 26.8222 139.216 26.7095 138.912 26.6081C138.619 26.5066 138.382 26.4278 138.225 26.3827C137.03 26.022 135.959 25.6276 135.013 25.1994C134.066 24.7711 133.255 24.264 132.59 23.6667C131.925 23.0694 131.418 22.3594 131.057 21.5367C130.696 20.714 130.527 19.7335 130.527 18.584C130.527 17.4345 130.787 16.3864 131.305 15.4736C131.823 14.5607 132.511 13.8057 133.379 13.1858C134.246 12.566 135.261 12.1039 136.399 11.7771C137.537 11.4616 138.743 11.2925 140.005 11.2925L140.028 11.2812Z" fill="#54DCA5"/>
<path d="M160.697 38.9149C160.607 38.9599 160.471 38.9938 160.28 39.0163C160.099 39.0388 159.908 39.0614 159.694 39.0839C159.491 39.1065 159.288 39.1177 159.096 39.1177H158.668C154.622 39.1177 152.594 37.1793 152.594 33.3138V11.0674H157.474V32.9757C157.474 33.5054 157.62 33.9787 157.902 34.3957C158.184 34.8127 158.555 35.0268 159.018 35.0268H160.697V38.9036V38.9149Z" fill="#54DCA5"/>
<path d="M166.387 16.9385C165.429 16.9385 164.663 16.6681 164.099 16.1158C163.536 15.5636 163.254 14.8536 163.254 13.9859C163.254 13.1181 163.536 12.4306 164.099 11.8784C164.663 11.3262 165.418 11.0332 166.387 11.0332C167.356 11.0332 168.111 11.3149 168.675 11.8784C169.238 12.4419 169.52 13.1406 169.52 13.9859C169.52 14.8311 169.238 15.5411 168.675 16.0933C168.111 16.6568 167.356 16.9385 166.387 16.9385ZM163.953 20.5448H168.832V38.9145H163.953V20.5448Z" fill="#54DCA5"/>
<path d="M186.584 38.9144V37.3028C185.851 37.9452 185.017 38.4298 184.082 38.7454C183.147 39.0609 182.234 39.23 181.366 39.23C179.946 39.23 178.627 38.9933 177.399 38.5087C176.171 38.0241 175.111 37.3479 174.221 36.4802C173.331 35.6124 172.621 34.5756 172.114 33.3697C171.595 32.1639 171.336 30.8566 171.336 29.4366C171.336 28.0166 171.595 26.698 172.114 25.4922C172.632 24.2863 173.331 23.227 174.221 22.3479C175.111 21.4689 176.171 20.7814 177.399 20.2856C178.627 19.7897 179.946 19.5418 181.366 19.5418C182.346 19.5418 183.282 19.6883 184.15 19.97C185.017 20.2518 185.829 20.7364 186.584 21.39V11.0557H191.419V38.9031H186.584V38.9144ZM181.343 23.5989C179.732 23.5989 178.458 24.1285 177.523 25.1766C176.588 26.2247 176.114 27.6447 176.114 29.4366C176.114 31.2285 176.588 32.6259 177.523 33.6402C178.47 34.6545 179.743 35.1729 181.343 35.1729C182.786 35.1729 183.969 34.7108 184.893 33.7867C185.806 32.8626 186.37 31.6793 186.584 30.2367V28.659C186.471 27.949 186.268 27.2841 185.975 26.6642C185.682 26.0444 185.322 25.5147 184.871 25.0639C184.42 24.6131 183.902 24.2638 183.304 24.0046C182.707 23.7454 182.053 23.6101 181.343 23.6101V23.5989Z" fill="#54DCA5"/>
<path d="M211.994 35.7938C211.656 36.2559 211.205 36.6841 210.676 37.1011C210.135 37.5181 209.504 37.89 208.782 38.2168C208.061 38.5436 207.239 38.8141 206.326 39.0057C205.413 39.1973 204.421 39.2987 203.373 39.2987C201.885 39.2987 200.533 39.0508 199.327 38.5662C198.11 38.0703 197.062 37.3941 196.183 36.5264C195.304 35.6586 194.616 34.6218 194.143 33.4159C193.659 32.2101 193.422 30.9028 193.422 29.4828C193.422 28.0628 193.647 26.7442 194.109 25.5384C194.571 24.3213 195.225 23.2732 196.082 22.3941C196.938 21.5151 197.964 20.8164 199.158 20.3205C200.353 19.8134 201.683 19.5654 203.17 19.5654C204.658 19.5654 205.965 19.8134 207.171 20.3205C208.377 20.8276 209.402 21.5151 210.259 22.3941C211.115 23.2732 211.78 24.3213 212.231 25.5384C212.693 26.7555 212.918 28.0628 212.918 29.4828V31.3423H198.426C198.719 32.582 199.293 33.5399 200.139 34.2386C200.984 34.9373 202.066 35.2867 203.362 35.2867C204.601 35.2867 205.728 35.0613 206.743 34.6218C207.757 34.171 208.568 33.5962 209.166 32.8862L211.983 35.8051L211.994 35.7938ZM203.17 23.6C201.863 23.6 200.826 23.9381 200.06 24.603C199.293 25.2679 198.764 26.2258 198.459 27.4768H207.87C207.599 26.3723 207.07 25.4482 206.292 24.7044C205.514 23.9606 204.477 23.6 203.17 23.6Z" fill="#54DCA5"/>
<path d="M40.6939 35.8035C40.3558 36.2543 39.9163 36.6825 39.3866 37.0995C38.8569 37.5052 38.2371 37.8771 37.5158 38.2039C36.8058 38.5308 35.9944 38.79 35.0928 38.9816C34.1912 39.1731 33.2108 39.2746 32.174 39.2746C30.6976 39.2746 29.3678 39.0266 28.1619 38.542C26.9561 38.0574 25.9305 37.3813 25.0515 36.5248C24.1837 35.6683 23.5075 34.6427 23.0342 33.4481C22.5609 32.2648 22.3242 30.9688 22.3242 29.5601C22.3242 28.1514 22.5496 26.8553 23.0004 25.6495C23.4512 24.4549 24.1048 23.4181 24.9501 22.539C25.7953 21.6713 26.8096 20.9838 27.9929 20.4879C29.1649 19.9921 30.4948 19.7441 31.9711 19.7441C33.4474 19.7441 34.7435 19.9921 35.9268 20.4879C37.1101 20.9838 38.1356 21.6713 38.9809 22.539C39.8261 23.4068 40.4797 24.4436 40.9305 25.6495C41.3813 26.8553 41.6067 28.1514 41.6067 29.5601V31.397H27.2716C27.5646 32.6254 28.1281 33.5721 28.9734 34.2708C29.8073 34.9583 30.8779 35.3076 32.1627 35.3076C33.3798 35.3076 34.4955 35.0822 35.5098 34.6427C36.5128 34.2032 37.313 33.6284 37.899 32.9297L40.6826 35.8148L40.6939 35.8035ZM31.9598 23.7449C30.6638 23.7449 29.6495 24.0717 28.8832 24.7366C28.1281 25.4015 27.5984 26.3482 27.3054 27.5766H36.6142C36.3438 26.4834 35.8253 25.5706 35.0477 24.8381C34.2814 24.1055 33.2446 23.7449 31.9598 23.7449Z" fill="white"/>
<path d="M52.6768 39.0724C52.5867 39.1175 51.5724 39.2753 50.6708 39.2753C46.6588 39.2753 44.6641 37.1791 44.6641 33.3587V11.1348H49.4875V33.0206C49.4875 33.6742 50.0284 34.2715 51.0202 34.2715H52.6881V39.0724H52.6768Z" fill="white"/>
<path d="M55.3125 45.0001V20.0377H60.1021V21.807C60.891 21.0632 61.7362 20.5335 62.6491 20.2067C63.5507 19.8912 64.4748 19.7334 65.4327 19.7334C66.8302 19.7334 68.1374 19.9813 69.3658 20.4659C70.583 20.9505 71.6423 21.6267 72.5326 22.5057C73.4229 23.3735 74.1217 24.4103 74.6288 25.6162C75.1359 26.8221 75.3951 28.1181 75.3951 29.5268C75.3951 30.9355 75.1359 32.2315 74.6288 33.4148C74.1217 34.5982 73.4229 35.6237 72.5326 36.4915C71.6423 37.348 70.583 38.0242 69.3658 38.4975C68.1487 38.9708 66.8302 39.2075 65.4327 39.2075C64.4861 39.2075 63.5619 39.0497 62.6491 38.7454C61.7475 38.4411 60.9023 37.9227 60.1021 37.2015V45.0114H55.3125V45.0001ZM65.4327 23.7454C64.6438 23.7454 63.9226 23.9032 63.2802 24.2075C62.6378 24.5118 62.0743 24.9287 61.6123 25.4584C61.1502 25.9881 60.7896 26.6079 60.5417 27.3067C60.2937 28.0054 60.1697 28.7492 60.1697 29.5155C60.1697 30.2819 60.2937 31.0482 60.5417 31.7244C60.7896 32.4006 61.1502 33.0091 61.6123 33.5275C62.0743 34.0459 62.6265 34.4517 63.2802 34.7559C63.9226 35.049 64.6438 35.1955 65.4327 35.1955C66.2216 35.1955 66.9429 35.049 67.5852 34.7559C68.2276 34.4629 68.7798 34.0572 69.2306 33.5275C69.6814 33.0091 70.0308 32.4118 70.2787 31.7244C70.5266 31.0482 70.6506 30.3044 70.6506 29.5155C70.6506 28.7266 70.5266 28.0054 70.2787 27.3067C70.0308 26.6079 69.6814 25.9881 69.2306 25.4584C68.7798 24.9287 68.2276 24.5118 67.5852 24.2075C66.9429 23.9032 66.2216 23.7454 65.4327 23.7454Z" fill="white"/>
<path d="M77.7647 20.0376H82.5544V31.082C82.5544 32.3667 82.9263 33.3472 83.6701 34.0121C84.4139 34.677 85.4056 35.0151 86.6227 35.0151C87.8399 35.0151 88.8429 34.6545 89.6092 33.9445C90.3755 33.2345 90.7587 32.2315 90.7587 30.9467V20.0376H95.5483V38.8693H90.7587V37.3367C90.2854 37.8663 89.7444 38.2608 89.0006 38.5989C88.2681 38.937 87.3778 39.1511 86.4762 39.1511C85.2929 39.1511 84.1885 38.9708 83.1291 38.6214C82.081 38.272 81.1456 37.7649 80.3455 37.1113C79.5453 36.4576 78.903 35.6462 78.4409 34.6995C77.9788 33.7529 77.7422 32.671 77.7422 31.4764V20.0264L77.7647 20.0376Z" fill="white"/>
<path d="M98.6089 38.8921V11.1348H103.399V21.5705C104.041 21.0521 104.83 20.6126 105.743 20.2632C106.656 19.9139 107.591 19.7336 108.538 19.7336C109.935 19.7336 111.242 19.9815 112.448 20.4661C113.654 20.9507 114.702 21.6269 115.581 22.5059C116.46 23.3737 117.159 24.4105 117.666 25.6164C118.173 26.8222 118.432 28.1182 118.432 29.527C118.432 30.9357 118.173 32.2317 117.666 33.415C117.159 34.5983 116.46 35.6239 115.581 36.4916C114.702 37.3481 113.654 38.0243 112.448 38.4977C111.242 38.971 109.935 39.2076 108.538 39.2076C107.591 39.2076 106.656 39.0273 105.743 38.6667C104.83 38.3061 104.041 37.8553 103.387 37.3031V38.9034H98.5977L98.6089 38.8921ZM108.56 23.7456C107.861 23.7456 107.208 23.8808 106.622 24.14C106.036 24.3992 105.517 24.7486 105.055 25.1881C104.604 25.6276 104.233 26.1573 103.951 26.7659C103.669 27.3744 103.477 28.0393 103.387 28.7381V30.3046C103.477 31.0033 103.669 31.6569 103.962 32.243C104.255 32.829 104.627 33.3474 105.066 33.7869C105.506 34.2264 106.024 34.5758 106.61 34.8237C107.196 35.0717 107.839 35.1956 108.549 35.1956C110.138 35.1956 111.389 34.6885 112.324 33.6855C113.248 32.6825 113.722 31.2963 113.722 29.527C113.722 27.7576 113.26 26.3602 112.324 25.3121C111.4 24.2753 110.138 23.7456 108.549 23.7456H108.56Z" fill="white"/>
<path d="M11.2355 22.4158L10.8072 22.2693C7.12202 21.0297 6.14155 20.5676 5.74711 19.1927C5.57806 18.5954 5.7133 17.9756 6.11901 17.4346C6.84027 16.4767 8.29407 15.9357 10.1085 15.9357C11.6637 15.9357 13.1513 16.6007 14.3121 17.8065C14.4586 17.953 14.8981 18.4151 15.0784 18.7194L18.8989 15.9019C18.8425 15.7442 18.0311 14.7299 17.7832 14.4707C15.7095 12.3069 12.9823 11.1123 10.1085 11.1123C6.71631 11.1123 3.94395 12.3294 2.27603 14.527C0.957477 16.2851 0.529228 18.4602 1.11525 20.5113C2.24223 24.4669 5.49918 25.5601 9.26326 26.8223L9.69151 26.9688C13.7599 28.3437 15.5968 29.4481 14.9996 32.0176C14.7065 33.3024 13.5796 34.5421 10.3902 34.5421C7.2009 34.5421 5.28505 32.4572 3.89887 30.9245L-0.0117188 33.8208C3.2565 37.5736 6.55853 39.2979 10.6156 39.2979C12.971 39.2979 15.0334 38.7344 16.5999 37.6638C18.1663 36.5931 19.237 35.0154 19.6765 33.0883C21.3669 25.8193 14.2557 23.4188 11.2242 22.3933L11.2355 22.4158Z" fill="white"/>
</g>
<path d="M11.76 85.84H17.04V92.16H11.76V85.84ZM7.12 91.44H12.4V94.48H27.2V91.44H32.48V105.16H7.12V91.44ZM12.4 98.48V101H27.2V98.48H12.4ZM27.16 68.52H32.48V89.88H27.16V68.52ZM2.28 88.32L1.68 84.12C8.48 84.12 17.4 84.08 25.2 83.08L25.52 86.84C17.56 88.24 8.96 88.32 2.28 88.32ZM11.32 69.48H15.56V70.92C15.56 76.52 12.24 81.12 5.2 82.64L2.92 78.64C8.8 77.4 11.32 74.24 11.32 70.92V69.48ZM12.56 69.48H16.84V70.92C16.84 74.04 19.4 77 25.08 78.04L22.88 82.08C15.96 80.64 12.56 76.28 12.56 70.92V69.48ZM41.3369 71.64H64.8169V75.92H41.3369V71.64ZM37.9369 96.8H71.4169V101.12H37.9369V96.8ZM49.7769 84.08H55.0969V98.92H49.7769V84.08ZM62.8969 71.64H68.2169V75.2C68.2169 79.84 68.2169 85.04 66.7369 92.96L61.4169 92.36C62.8969 85 62.8969 79.64 62.8969 75.2V71.64ZM108.036 68.52H113.276V105.56H108.036V68.52ZM110.396 82.2H116.916V86.56H110.396V82.2ZM82.9563 71.88H87.3163V80.4H89.5163V71.88H93.7963V97H82.9563V71.88ZM87.3163 84.56V92.72H89.5163V84.56H87.3163ZM95.2363 71.88H99.5163V80.4H101.756V71.88H106.116V97H95.2363V71.88ZM99.5163 84.56V92.72H101.756V84.56H99.5163ZM119.093 97.04H152.613V101.4H119.093V97.04ZM122.853 71H148.853V83.36H128.213V89.56H122.933V79.2H143.573V75.24H122.853V71ZM122.933 87.48H149.693V91.72H122.933V87.48ZM182.19 68.52H187.27V105.56H182.19V68.52ZM167.51 82.72H175.43V86.92H167.51V82.72ZM174.39 69.32H179.35V103.92H174.39V69.32ZM166.31 72.88H171.43C171.43 83.44 168.27 91.84 157.87 97.88L154.87 94.16C163.31 89.08 166.31 82.92 166.31 73.96V72.88ZM156.95 72.88H167.99V77.12H156.95V72.88ZM208.649 83.52H213.969V89.12H208.649V83.52ZM211.249 70C216.609 70 220.489 73.08 220.489 77.56C220.489 81.96 216.609 85.04 211.249 85.04C205.889 85.04 202.009 81.96 202.009 77.56C202.009 73.08 205.889 70 211.249 70ZM211.249 74C208.729 74 206.969 75.28 206.969 77.56C206.969 79.8 208.729 81.08 211.249 81.08C213.809 81.08 215.529 79.8 215.529 77.56C215.529 75.28 213.809 74 211.249 74ZM224.289 68.56H229.609V96.8H224.289V68.56ZM227.729 80.16H234.249V84.52H227.729V80.16ZM204.889 100.64H230.849V104.92H204.889V100.64ZM204.889 94.36H210.249V102.48H204.889V94.36ZM200.689 92L200.089 87.76C206.369 87.76 215.049 87.72 222.329 86.68L222.689 90.48C215.209 91.88 206.809 92 200.689 92ZM245.106 70.44H249.546V73.76C249.546 81.2 246.226 87.72 238.946 90.16L236.186 85.88C242.506 83.84 245.106 78.84 245.106 73.76V70.44ZM246.226 70.44H250.506V73.52C250.506 78.44 252.906 83 258.786 84.88L256.026 89.04C249.186 86.68 246.226 80.72 246.226 73.52V70.44ZM262.186 68.52H267.506V90.2H262.186V68.52ZM254.946 91.16C262.786 91.16 267.626 93.84 267.626 98.36C267.626 102.92 262.786 105.56 254.946 105.56C247.106 105.56 242.266 102.92 242.266 98.36C242.266 93.84 247.106 91.16 254.946 91.16ZM254.946 95.28C250.146 95.28 247.586 96.28 247.586 98.36C247.586 100.44 250.146 101.48 254.946 101.48C259.786 101.48 262.346 100.44 262.346 98.36C262.346 96.28 259.786 95.28 254.946 95.28ZM255.426 75.24H262.946V79.56H255.426V75.24ZM275.323 83.52H294.683V87.76H275.323V83.52ZM282.283 86.96H287.643V94.76H282.283V86.96ZM275.323 71.8H294.443V76H280.643V84.84H275.323V71.8ZM298.403 68.48H303.723V105.64H298.403V68.48ZM273.603 98.32L272.963 94.04C280.043 94.04 288.763 94 296.363 93.16L296.763 97.04C288.763 98.28 280.483 98.36 273.603 98.32ZM313.26 78.52H338.94V82.72H313.26V78.52ZM309.1 86.56H342.66V90.8H309.1V86.56ZM313.26 69.84H318.54V80.6H313.26V69.84ZM312.9 100.52H339.14V104.76H312.9V100.52ZM312.9 93.76H318.22V101.64H312.9V93.76ZM1.6 119.76H23.4V123.96H1.6V119.76ZM12.52 125.12C17.84 125.12 21.6 127.88 21.6 131.96C21.6 136.04 17.84 138.76 12.52 138.76C7.16 138.76 3.4 136.04 3.4 131.96C3.4 127.88 7.16 125.12 12.52 125.12ZM12.52 129.12C10.12 129.12 8.52 130.08 8.52 131.96C8.52 133.8 10.12 134.76 12.52 134.76C14.88 134.76 16.52 133.8 16.52 131.96C16.52 130.08 14.88 129.12 12.52 129.12ZM25.44 116.52H30.76V139.76H25.44V116.52ZM29.28 126.08H35.68V130.4H29.28V126.08ZM6.04 141.28H30.76V153.56H25.44V145.52H6.04V141.28ZM9.84 116.32H15.16V122.16H9.84V116.32ZM41.8169 138.72H47.0569V141.84H61.8969V138.72H67.1769V153.16H41.8169V138.72ZM47.0569 145.8V149H61.8969V145.8H47.0569ZM37.8969 132.68H71.3769V136.88H37.8969V132.68ZM51.9369 116.92H56.4969V118.04C56.4969 124.48 50.9769 129.8 41.4169 131.04L39.5369 126.92C47.8969 125.92 51.9369 121.8 51.9369 118.04V116.92ZM52.8169 116.92H57.3769V118.04C57.3769 121.76 61.4169 125.92 69.7369 126.92L67.8569 131.04C58.2969 129.8 52.8169 124.44 52.8169 118.04V116.92ZM86.5563 117.92H109.996V122.16H86.5563V117.92ZM107.156 117.92H112.436V121.44C112.436 125.08 112.436 128.76 111.396 133.64L106.156 133.24C107.156 128.52 107.156 125.04 107.156 121.44V117.92ZM108.796 124.8V128.68L86.1963 129.64L85.5563 125.28L108.796 124.8ZM82.8363 135.48H116.196V139.68H82.8363V135.48ZM95.1963 130.96H100.516V138.16H95.1963V130.96ZM86.7163 148.76H113.036V153H86.7163V148.76ZM86.7163 142H92.0363V150.68H86.7163V142ZM134.693 126.64H140.333V130.84H134.693V126.64ZM145.573 116.52H150.613V144.2H145.573V116.52ZM138.333 117.2H143.293V143.36H138.333V117.2ZM125.973 148.68H151.573V152.92H125.973V148.68ZM125.973 141.28H131.293V151.56H125.973V141.28ZM120.493 134.84H123.013C128.293 134.84 131.693 134.76 135.733 134.08L136.213 138.2C132.013 138.96 128.493 139.04 123.013 139.04H120.493V134.84ZM120.493 119.36H134.453V123.6H125.613V136.24H120.493V119.36ZM124.093 127.12H133.093V131.16H124.093V127.12ZM155.39 145H188.91V149.32H155.39V145ZM169.43 124.36H174.15V125.16C174.15 132.56 168.55 138.68 158.47 140.2L156.47 135.92C165.35 134.72 169.43 129.72 169.43 125.16V124.36ZM170.15 124.36H174.83V125.16C174.83 129.72 178.91 134.72 187.79 135.92L185.79 140.2C175.71 138.68 170.15 132.56 170.15 125.16V124.36ZM158.23 121.6H186.03V125.88H158.23V121.6ZM169.47 117.08H174.79V123.36H169.47V117.08ZM225.969 116.48H231.289V153.64H225.969V116.48ZM219.489 129.44H227.209V133.72H219.489V129.44ZM208.769 122.36H212.969V125.64C212.969 134.68 209.689 143.32 202.769 146.72L199.649 142.52C205.849 139.6 208.769 132.52 208.769 125.64V122.36ZM210.009 122.36H214.169V125.64C214.169 132.16 217.049 139 223.249 141.8L220.169 145.96C213.209 142.68 210.009 134.4 210.009 125.64V122.36ZM201.169 120.08H221.769V124.36H201.169V120.08ZM244.746 120.32H249.106V122.64C249.106 129.64 245.786 135.92 238.706 138.2L235.946 134.08C242.146 132.08 244.746 127.28 244.746 122.64V120.32ZM245.826 120.32H250.146V122.64C250.146 127 252.666 131.52 258.666 133.44L255.946 137.56C249.026 135.32 245.826 129.28 245.826 122.64V120.32ZM237.386 118.68H257.386V122.92H237.386V118.68ZM260.346 116.52H265.666V138.84H260.346V116.52ZM264.186 125.48H270.586V129.84H264.186V125.48ZM240.946 140.44H265.666V153.56H260.346V144.72H240.946V140.44ZM276.723 133.04H302.763V137.28H276.723V133.04ZM272.843 145.04H306.363V149.4H272.843V145.04ZM286.883 134.96H292.203V146.44H286.883V134.96ZM276.723 119.04H302.483V123.32H282.043V134.88H276.723V119.04ZM312.94 118.68H336.18V122.88H312.94V118.68ZM309.14 134.44H342.62V138.72H309.14V134.44ZM323.02 137.44H328.38V153.6H323.02V137.44ZM333.46 118.68H338.7V121.96C338.7 125.96 338.7 130.44 337.26 137L332.02 136.4C333.46 130.2 333.46 125.8 333.46 121.96V118.68Z" fill="white"/>
<defs>
<clipPath id="clip0_135_72030">
<rect width="214" height="45" fill="white"/>
</clipPath>
</defs>
</svg>
