<svg width="48" height="48" viewBox="0 0 48 48" fill="none" xmlns="http://www.w3.org/2000/svg">
<rect width="48" height="48" rx="8" fill="#9F8AF0"/>
<path fill="#C5B9F6" enable-background="new" d="M40,0H8C3.6,0,0,3.6,0,8v15.3C6.6,26.9,14.9,29,24,29 s17.4-2.1,24-5.7V8C48,3.6,44.4,0,40,0z"/>
<mask id="path-3-outside-1_53_130" maskUnits="userSpaceOnUse" x="7" y="7" width="34" height="34" fill="black">
<rect fill="white" x="7" y="7" width="34" height="34"/>
<path fill-rule="evenodd" clip-rule="evenodd" d="M18.0296 25.5C18.1854 29.4222 18.9455 32.8999 20.0738 35.343C15.829 33.874 12.6651 30.0894 12.0928 25.5H18.0296ZM21.0322 25.5C21.1715 28.725 21.7513 31.5138 22.5428 33.4924C23.002 34.6405 23.4738 35.3682 23.8442 35.7599C23.9047 35.8239 23.9567 35.8732 24 35.9111C24.0434 35.8732 24.0953 35.8239 24.1558 35.7599C24.5262 35.3682 24.998 34.6405 25.4572 33.4924C26.2487 31.5138 26.8285 28.725 26.9678 25.5H21.0322ZM26.9678 22.5H21.0322C21.1715 19.275 21.7513 16.4862 22.5428 14.5076C23.002 13.3595 23.4738 12.6318 23.8442 12.2401C23.9047 12.1761 23.9566 12.1268 24 12.0889C24.0434 12.1268 24.0953 12.1761 24.1558 12.2401C24.5262 12.6318 24.998 13.3595 25.4572 14.5076C26.2487 16.4862 26.8285 19.275 26.9678 22.5ZM29.9704 25.5C29.8146 29.4222 29.0545 32.8999 27.9262 35.343C32.171 33.874 35.3349 30.0894 35.9072 25.5H29.9704ZM35.9072 22.5H29.9704C29.8146 18.5778 29.0545 15.1001 27.9262 12.657C32.171 14.126 35.3349 17.9106 35.9072 22.5ZM18.0296 22.5H12.0928C12.6651 17.9106 15.829 14.126 20.0738 12.657C18.9455 15.1001 18.1854 18.5778 18.0296 22.5ZM39 24C39 15.7157 32.2843 9 24 9C15.7157 9 9 15.7157 9 24C9 32.2843 15.7157 39 24 39C32.2843 39 39 32.2843 39 24Z"/>
</mask>
<path fill-rule="evenodd" clip-rule="evenodd" d="M18.0296 25.5C18.1854 29.4222 18.9455 32.8999 20.0738 35.343C15.829 33.874 12.6651 30.0894 12.0928 25.5H18.0296ZM21.0322 25.5C21.1715 28.725 21.7513 31.5138 22.5428 33.4924C23.002 34.6405 23.4738 35.3682 23.8442 35.7599C23.9047 35.8239 23.9567 35.8732 24 35.9111C24.0434 35.8732 24.0953 35.8239 24.1558 35.7599C24.5262 35.3682 24.998 34.6405 25.4572 33.4924C26.2487 31.5138 26.8285 28.725 26.9678 25.5H21.0322ZM26.9678 22.5H21.0322C21.1715 19.275 21.7513 16.4862 22.5428 14.5076C23.002 13.3595 23.4738 12.6318 23.8442 12.2401C23.9047 12.1761 23.9566 12.1268 24 12.0889C24.0434 12.1268 24.0953 12.1761 24.1558 12.2401C24.5262 12.6318 24.998 13.3595 25.4572 14.5076C26.2487 16.4862 26.8285 19.275 26.9678 22.5ZM29.9704 25.5C29.8146 29.4222 29.0545 32.8999 27.9262 35.343C32.171 33.874 35.3349 30.0894 35.9072 25.5H29.9704ZM35.9072 22.5H29.9704C29.8146 18.5778 29.0545 15.1001 27.9262 12.657C32.171 14.126 35.3349 17.9106 35.9072 22.5ZM18.0296 22.5H12.0928C12.6651 17.9106 15.829 14.126 20.0738 12.657C18.9455 15.1001 18.1854 18.5778 18.0296 22.5ZM39 24C39 15.7157 32.2843 9 24 9C15.7157 9 9 15.7157 9 24C9 32.2843 15.7157 39 24 39C32.2843 39 39 32.2843 39 24Z" fill="white"/>
<path d="M20.0738 35.343L19.4197 37.233C20.1774 37.4952 21.0185 37.2796 21.5566 36.6851C22.0947 36.0907 22.2257 35.2323 21.8895 34.5044L20.0738 35.343ZM18.0296 25.5L20.028 25.4206C19.9854 24.3478 19.1033 23.5 18.0296 23.5V25.5ZM12.0928 25.5V23.5C11.5193 23.5 10.9733 23.7462 10.5937 24.1762C10.214 24.6061 10.0372 25.1783 10.1082 25.7475L12.0928 25.5ZM22.5428 33.4924L20.6858 34.2352L20.6858 34.2352L22.5428 33.4924ZM21.0322 25.5V23.5C20.4868 23.5 19.965 23.7227 19.5878 24.1166C19.2105 24.5105 19.0105 25.0414 19.034 25.5863L21.0322 25.5ZM23.8442 35.7599L25.2973 34.3857L25.2973 34.3857L23.8442 35.7599ZM24 35.9111L22.6852 37.4181C23.4385 38.0754 24.5615 38.0754 25.3148 37.4181L24 35.9111ZM24.1558 35.7599L22.7027 34.3857L22.7027 34.3857L24.1558 35.7599ZM25.4572 33.4924L23.6003 32.7496L23.6003 32.7496L25.4572 33.4924ZM26.9678 25.5L28.966 25.5863C28.9895 25.0414 28.7895 24.5105 28.4122 24.1166C28.035 23.7227 27.5132 23.5 26.9678 23.5V25.5ZM21.0322 22.5L19.034 22.4137C19.0105 22.9586 19.2105 23.4895 19.5878 23.8834C19.965 24.2773 20.4868 24.5 21.0322 24.5V22.5ZM26.9678 22.5V24.5C27.5132 24.5 28.035 24.2773 28.4122 23.8834C28.7895 23.4895 28.9895 22.9586 28.966 22.4137L26.9678 22.5ZM22.5428 14.5076L24.3997 15.2504L24.3997 15.2504L22.5428 14.5076ZM23.8442 12.2401L22.3911 10.8659L22.3911 10.8659L23.8442 12.2401ZM24 12.0889L25.3148 10.5819C24.5615 9.92462 23.4385 9.92462 22.6852 10.5819L24 12.0889ZM24.1558 12.2401L25.6089 10.8659L25.6089 10.8659L24.1558 12.2401ZM25.4572 14.5076L23.6003 15.2504L23.6003 15.2504L25.4572 14.5076ZM29.9704 25.5V23.5C28.8967 23.5 28.0146 24.3478 27.972 25.4206L29.9704 25.5ZM27.9262 35.343L26.1105 34.5044C25.7743 35.2323 25.9053 36.0907 26.4434 36.6851C26.9815 37.2796 27.8226 37.4952 28.5803 37.233L27.9262 35.343ZM35.9072 25.5L37.8918 25.7475C37.9628 25.1783 37.786 24.6061 37.4063 24.1762C37.0267 23.7462 36.4807 23.5 35.9072 23.5V25.5ZM29.9704 22.5L27.972 22.5794C28.0146 23.6522 28.8967 24.5 29.9704 24.5V22.5ZM35.9072 22.5V24.5C36.4807 24.5 37.0267 24.2538 37.4063 23.8238C37.786 23.3939 37.9628 22.8217 37.8918 22.2525L35.9072 22.5ZM27.9262 12.657L28.5803 10.767C27.8226 10.5048 26.9815 10.7204 26.4434 11.3149C25.9053 11.9093 25.7743 12.7677 26.1105 13.4956L27.9262 12.657ZM12.0928 22.5L10.1082 22.2525C10.0372 22.8217 10.214 23.3939 10.5937 23.8238C10.9733 24.2538 11.5193 24.5 12.0928 24.5V22.5ZM18.0296 22.5V24.5C19.1033 24.5 19.9854 23.6522 20.028 22.5794L18.0296 22.5ZM20.0738 12.657L21.8895 13.4956C22.2257 12.7677 22.0947 11.9093 21.5566 11.3149C21.0185 10.7204 20.1774 10.5048 19.4197 10.767L20.0738 12.657ZM21.8895 34.5044C20.9017 32.3656 20.1767 29.1637 20.028 25.4206L16.0312 25.5794C16.1941 29.6806 16.9892 33.4342 18.2581 36.1816L21.8895 34.5044ZM10.1082 25.7475C10.7766 31.1077 14.4686 35.5195 19.4197 37.233L20.7279 33.453C17.1894 32.2284 14.5536 29.0711 14.0775 25.2525L10.1082 25.7475ZM18.0296 23.5H12.0928V27.5H18.0296V23.5ZM24.3997 32.7496C23.7112 31.0283 23.1624 28.4716 23.0303 25.4137L19.034 25.5863C19.1805 28.9783 19.7915 31.9993 20.6858 34.2352L24.3997 32.7496ZM25.2973 34.3857C25.1586 34.239 24.8032 33.7584 24.3997 32.7496L20.6858 34.2352C21.2008 35.5226 21.789 36.4974 22.3911 37.1341L25.2973 34.3857ZM25.3148 34.404C25.3242 34.4122 25.3182 34.4078 25.2973 34.3857L22.3911 37.1341C22.4912 37.24 22.5891 37.3343 22.6852 37.4181L25.3148 34.404ZM22.7027 34.3857C22.6817 34.4079 22.6757 34.4122 22.6852 34.404L25.3148 37.4181C25.411 37.3342 25.5089 37.2399 25.6089 37.1341L22.7027 34.3857ZM23.6003 32.7496C23.1968 33.7584 22.8414 34.239 22.7027 34.3857L25.6089 37.1341C26.211 36.4974 26.7992 35.5226 27.3142 34.2352L23.6003 32.7496ZM24.9697 25.4137C24.8376 28.4716 24.2888 31.0283 23.6003 32.7496L27.3142 34.2352C28.2085 31.9993 28.8195 28.9783 28.966 25.5863L24.9697 25.4137ZM26.9678 23.5H21.0322V27.5H26.9678V23.5ZM21.0322 24.5H26.9678V20.5H21.0322V24.5ZM23.0303 22.5863C23.1624 19.5284 23.7112 16.9717 24.3997 15.2504L20.6858 13.7648C19.7915 16.0007 19.1805 19.0217 19.034 22.4137L23.0303 22.5863ZM24.3997 15.2504C24.8032 14.2416 25.1586 13.761 25.2973 13.6143L22.3911 10.8659C21.789 11.5026 21.2008 12.4774 20.6858 13.7648L24.3997 15.2504ZM25.2973 13.6143C25.3183 13.5921 25.3243 13.5877 25.3148 13.596L22.6852 10.5819C22.589 10.6658 22.4911 10.7601 22.3911 10.8659L25.2973 13.6143ZM22.6852 13.596C22.6757 13.5877 22.6817 13.5921 22.7027 13.6143L25.6089 10.8659C25.5089 10.7601 25.411 10.6658 25.3148 10.5819L22.6852 13.596ZM22.7027 13.6143C22.8414 13.761 23.1968 14.2416 23.6003 15.2504L27.3142 13.7648C26.7992 12.4774 26.211 11.5026 25.6089 10.8659L22.7027 13.6143ZM23.6003 15.2504C24.2888 16.9717 24.8376 19.5284 24.9697 22.5863L28.966 22.4137C28.8195 19.0217 28.2085 16.0007 27.3142 13.7648L23.6003 15.2504ZM27.972 25.4206C27.8233 29.1637 27.0983 32.3656 26.1105 34.5044L29.7419 36.1816C31.0108 33.4342 31.8059 29.6806 31.9688 25.5794L27.972 25.4206ZM28.5803 37.233C33.5314 35.5195 37.2234 31.1077 37.8918 25.7475L33.9225 25.2525C33.4464 29.0711 30.8106 32.2284 27.2721 33.453L28.5803 37.233ZM35.9072 23.5H29.9704V27.5H35.9072V23.5ZM29.9704 24.5H35.9072V20.5H29.9704V24.5ZM26.1105 13.4956C27.0983 15.6344 27.8233 18.8363 27.972 22.5794L31.9688 22.4206C31.8059 18.3194 31.0108 14.5658 29.7419 11.8184L26.1105 13.4956ZM37.8918 22.2525C37.2234 16.8923 33.5314 12.4805 28.5803 10.767L27.2721 14.547C30.8106 15.7716 33.4464 18.9289 33.9225 22.7475L37.8918 22.2525ZM12.0928 24.5H18.0296V20.5H12.0928V24.5ZM19.4197 10.767C14.4686 12.4805 10.7766 16.8923 10.1082 22.2525L14.0775 22.7475C14.5536 18.9289 17.1894 15.7716 20.7279 14.547L19.4197 10.767ZM20.028 22.5794C20.1767 18.8363 20.9017 15.6344 21.8895 13.4956L18.2581 11.8184C16.9892 14.5658 16.1941 18.3194 16.0312 22.4206L20.028 22.5794ZM24 11C31.1797 11 37 16.8203 37 24H41C41 14.6112 33.3888 7 24 7V11ZM11 24C11 16.8203 16.8203 11 24 11V7C14.6112 7 7 14.6112 7 24H11ZM24 37C16.8203 37 11 31.1797 11 24H7C7 33.3888 14.6112 41 24 41V37ZM37 24C37 31.1797 31.1797 37 24 37V41C33.3888 41 41 33.3888 41 24H37Z" fill="#674DCC" mask="url(#path-3-outside-1_53_130)"/>
</svg>
