<svg width="48" height="48" viewBox="0 0 48 48" fill="none" xmlns="http://www.w3.org/2000/svg">
<rect width="48" height="48" rx="8" fill="#9F8AF0"/>
<path fill="#C5B9F6" enable-background="new" d="M40,0H8C3.6,0,0,3.6,0,8v15.3C6.6,26.9,14.9,29,24,29 s17.4-2.1,24-5.7V8C48,3.6,44.4,0,40,0z"/>
<path d="M18.8488 37H18.618C17.8746 37 17.3911 37.7823 17.7236 38.4472L18.7236 40.4472C18.893 40.786 19.2392 41 19.618 41H28.3819C28.7607 41 29.107 40.786 29.2763 40.4472L30.2763 38.4472C30.6088 37.7823 30.1253 37 29.3819 37H29.1512C29.6136 34.8495 31.0728 32.9531 32.6396 31.3281C34.7203 29.1701 36 26.2345 36 23C36 16.3726 30.6274 11 24 11C17.3726 11 12 16.3726 12 23C12 26.2345 13.2797 29.1701 15.3604 31.3281C16.9272 32.9531 18.3864 34.8495 18.8488 37Z" fill="white"/>
<path fill-rule="evenodd" clip-rule="evenodd" d="M13.9206 32.7163C11.495 30.2005 10 26.7728 10 23C10 15.268 16.268 9 24 9C31.732 9 38 15.268 38 23C38 26.7728 36.505 30.2005 34.0794 32.7163C33.0132 33.8221 32.1538 34.9105 31.6166 35.9971C32.39 36.8648 32.6539 38.1646 32.0653 39.3416L31.0653 41.3416C30.5572 42.358 29.5184 43 28.3821 43H19.6181C18.4818 43 17.443 42.358 16.9348 41.3416L15.9348 39.3416C15.3463 38.1646 15.6101 36.865 16.3835 35.9972C15.8463 34.9106 14.9869 33.8222 13.9206 32.7163ZM32.6396 31.3281C31.5682 32.4393 30.5471 33.6775 29.8606 35.037C29.7058 35.0127 29.546 35 29.3821 35H27V26H28.5C30.433 26 32 24.433 32 22.5C32 20.567 30.433 19 28.5 19C26.567 19 25 20.567 25 22.5V24H23V22.5C23 20.567 21.433 19 19.5 19C17.567 19 16 20.567 16 22.5C16 24.433 17.567 26 19.5 26H21V35H18.6181C18.4541 35 18.2943 35.0127 18.1394 35.037C17.4529 33.6775 16.4318 32.4394 15.3604 31.3281C13.2797 29.1701 12 26.2345 12 23C12 16.3726 17.3726 11 24 11C30.6274 11 36 16.3726 36 23C36 26.2345 34.7203 29.1701 32.6396 31.3281ZM23 35V26H25V35H23ZM17.6168 38C17.6171 37.4754 18.0386 37 18.6181 37H29.3821C29.9616 37 30.3831 37.4754 30.3834 38H17.6168ZM18.5001 40L18.7237 40.4472C18.8931 40.786 19.2394 41 19.6181 41H28.3821C28.7608 41 29.1071 40.786 29.2765 40.4472L29.5001 40H18.5001ZM28.5 24H27V22.5C27 21.6716 27.6716 21 28.5 21C29.3284 21 30 21.6716 30 22.5C30 23.3284 29.3284 24 28.5 24ZM21 24V22.5C21 21.6716 20.3284 21 19.5 21C18.6716 21 18 21.6716 18 22.5C18 23.3284 18.6716 24 19.5 24H21Z" fill="#674DCC"/>
<path d="M24.9999 5C24.9999 4.44772 24.5521 4 23.9999 4C23.4476 4 22.9999 4.44771 22.9999 5V7C22.9999 7.55228 23.4476 8 23.9999 8C24.5521 8 24.9999 7.55228 24.9999 7V5Z" fill="white"/>
<path d="M15.3661 6.77765C15.0899 6.29935 14.4783 6.13548 14 6.41162C13.5218 6.68776 13.3579 7.29935 13.634 7.77765L14.634 9.5097C14.9102 9.98799 15.5218 10.1519 16 9.87572C16.4783 9.59958 16.6422 8.98799 16.3661 8.5097L15.3661 6.77765Z" fill="white"/>
<path d="M7.41149 14.0001C7.68763 13.5218 8.29922 13.3579 8.77751 13.634L10.5096 14.634C10.9879 14.9102 11.1517 15.5218 10.8756 16.0001C10.5994 16.4784 9.98785 16.6422 9.50956 16.3661L7.77751 15.3661C7.29922 15.0899 7.13534 14.4784 7.41149 14.0001Z" fill="white"/>
<path d="M40.5882 14.0001C40.3121 13.5218 39.7005 13.3579 39.2222 13.634L37.4902 14.634C37.0119 14.9102 36.848 15.5218 37.1241 16.0001C37.4003 16.4784 38.0119 16.6422 38.4902 16.3661L40.2222 15.3661C40.7005 15.0899 40.8644 14.4784 40.5882 14.0001Z" fill="white"/>
<path d="M34.0002 6.41162C33.5219 6.13548 32.9103 6.29935 32.6341 6.77765L31.6341 8.5097C31.358 8.98799 31.5219 9.59958 32.0002 9.87572C32.4785 10.1519 33.0901 9.98799 33.3662 9.5097L34.3662 7.77765C34.6423 7.29935 34.4785 6.68776 34.0002 6.41162Z" fill="white"/>
</svg>
