<svg width="48" height="48" viewBox="0 0 48 48" fill="none" xmlns="http://www.w3.org/2000/svg">
<rect width="48" height="48" rx="8" fill="#9F8AF0"/>
<path fill="#C5B9F6" enable-background="new" d="M40,0H8C3.6,0,0,3.6,0,8v15.3C6.6,26.9,14.9,29,24,29 s17.4-2.1,24-5.7V8C48,3.6,44.4,0,40,0z"/>
<path fill="#674DCC" d="M36,19.5h-7.5V12c0-2.5-2-4.5-4.5-4.5s-4.5,2-4.5,4.5v7.5H12c-2.5,0-4.5,2-4.5,4.5s2,4.5,4.5,4.5h7.5V36 c0,2.5,2,4.5,4.5,4.5s4.5-2,4.5-4.5v-7.5H36c2.5,0,4.5-2,4.5-4.5S38.5,19.5,36,19.5z"/>
<path fill-rule="evenodd" clip-rule="evenodd" fill="#FFFFFF" d="M26.5,12c0-1.4-1.1-2.5-2.5-2.5s-2.5,1.1-2.5,2.5v9.5H12 c-1.4,0-2.5,1.1-2.5,2.5s1.1,2.5,2.5,2.5h9.5V36c0,1.4,1.1,2.5,2.5,2.5s2.5-1.1,2.5-2.5v-9.5H36c1.4,0,2.5-1.1,2.5-2.5 s-1.1-2.5-2.5-2.5h-9.5V12z"/>
</svg>
