<svg width="48" height="48" viewBox="0 0 48 48" fill="none" xmlns="http://www.w3.org/2000/svg">
<rect width="48" height="48" rx="8" fill="#9F8AF0"/>
<path fill="#C5B9F6" enable-background="new" d="M40,0H8C3.6,0,0,3.6,0,8v15.3C6.6,26.9,14.9,29,24,29 s17.4-2.1,24-5.7V8C48,3.6,44.4,0,40,0z"/>
<path d="M39 39C39.4391 39 39.8269 38.7135 39.9559 38.2938C40.0849 37.874 39.925 37.4192 39.5616 37.1726L35.618 34.4957C36.2703 33.909 37.0843 32.9816 37.9779 31.5222C39.0076 29.8402 39.5059 27.9519 39.7512 26.5205C39.875 25.7984 39.9371 25.1768 39.9682 24.7332C39.9839 24.511 39.9918 24.3326 39.9958 24.2074C39.9978 24.1448 39.9989 24.0954 39.9994 24.0604L39.9999 24.019L40 24.0066L40 24.0026L40 24.0011V24.0005C40 24.0002 40 24 39 24H40C40 15.7157 33.2843 9 25 9H23C14.7157 9 8 15.7157 8 24C8 32.2843 14.7157 39 23 39H39Z" fill="white" stroke="#674DCC" stroke-width="2" stroke-linecap="round" stroke-linejoin="round"/>
<path d="M18 24C18 25.6569 16.6569 27 15 27C13.3431 27 12 25.6569 12 24C12 22.3431 13.3431 21 15 21C16.6569 21 18 22.3431 18 24Z" fill="#674DCC"/>
<path d="M27 24C27 25.6569 25.6569 27 24 27C22.3431 27 21 25.6569 21 24C21 22.3431 22.3431 21 24 21C25.6569 21 27 22.3431 27 24Z" fill="#674DCC"/>
<path d="M33 27C34.6569 27 36 25.6569 36 24C36 22.3431 34.6569 21 33 21C31.3431 21 30 22.3431 30 24C30 25.6569 31.3431 27 33 27Z" fill="#674DCC"/>
</svg>
