<svg width="48" height="48" viewBox="0 0 48 48" fill="none" xmlns="http://www.w3.org/2000/svg">
<rect width="48" height="48" rx="8" fill="#9F8AF0"/>
<path fill="#C5B9F6" enable-background="new" d="M40,0H8C3.6,0,0,3.6,0,8v15.3C6.6,26.9,14.9,29,24,29 s17.4-2.1,24-5.7V8C48,3.6,44.4,0,40,0z"/>
<path d="M12 8C11.4477 8 11 8.44772 11 9V39C11 39.5523 11.4477 40 12 40H36C36.5523 40 37 39.5523 37 39V19C37 18.7348 36.8946 18.4804 36.7071 18.2929L31.2071 12.7929L26.7071 8.29289C26.5196 8.10536 26.2652 8 26 8H12Z" fill="white" stroke="#674DCC" stroke-width="2" stroke-linecap="round" stroke-linejoin="round"/>
<mask id="mask0_53_78" style="mask-type:alpha" maskUnits="userSpaceOnUse" x="10" y="7" width="28" height="34">
<path d="M12 8C11.4477 8 11 8.44772 11 9V39C11 39.5523 11.4477 40 12 40H36C36.5523 40 37 39.5523 37 39V19C37 18.7348 36.8946 18.4804 36.7071 18.2929L31.2071 12.7929L26.7071 8.29289C26.5196 8.10536 26.2652 8 26 8H12Z" fill="white" stroke="#674DCC" stroke-width="2" stroke-linecap="round" stroke-linejoin="round"/>
</mask>
<g mask="url(#mask0_53_78)">
<path d="M36 20C36.4045 20 36.7691 19.7564 36.9239 19.3827C37.0787 19.009 36.9931 18.5789 36.7071 18.2929L26.7071 8.29289C26.4211 8.0069 25.991 7.92134 25.6173 8.07612C25.2436 8.2309 25 8.59554 25 9V19C25 19.5523 25.4477 20 26 20H36Z" fill="white" stroke="#674DCC" stroke-width="2" stroke-linecap="round" stroke-linejoin="round"/>
</g>
<rect x="16" y="25" width="16" height="10" fill="#674DCC"/>
</svg>
