<svg width="48" height="48" viewBox="0 0 48 48" fill="none" xmlns="http://www.w3.org/2000/svg">
<rect width="48" height="48" rx="8" fill="#9F8AF0"/>
<path fill="#C5B9F6" enable-background="new" d="M40,0H8C3.6,0,0,3.6,0,8v15.3C6.6,26.9,14.9,29,24,29 s17.4-2.1,24-5.7V8C48,3.6,44.4,0,40,0z"/>
<rect x="11" y="9" width="26" height="30" rx="3" fill="white" stroke="#674DCC" stroke-width="2" stroke-linecap="round" stroke-linejoin="round"/>
<path fill-rule="evenodd" clip-rule="evenodd" d="M16.5 18C16.5 17.1716 17.1716 16.5 18 16.5H30C30.8284 16.5 31.5 17.1716 31.5 18C31.5 18.8284 30.8284 19.5 30 19.5H18C17.1716 19.5 16.5 18.8284 16.5 18ZM16.5 24C16.5 23.1716 17.1716 22.5 18 22.5H30C30.8284 22.5 31.5 23.1716 31.5 24C31.5 24.8284 30.8284 25.5 30 25.5H18C17.1716 25.5 16.5 24.8284 16.5 24ZM18 28.5C17.1716 28.5 16.5 29.1716 16.5 30C16.5 30.8284 17.1716 31.5 18 31.5H30C30.8284 31.5 31.5 30.8284 31.5 30C31.5 29.1716 30.8284 28.5 30 28.5H18Z" fill="#674DCC"/>
</svg>
