<svg width="48" height="48" viewBox="0 0 48 48" fill="none" xmlns="http://www.w3.org/2000/svg">
<rect width="48" height="48" rx="8" fill="#9F8AF0"/>
<path fill="#C5B9F6" enable-background="new" d="M40,0H8C3.6,0,0,3.6,0,8v15.3C6.6,26.9,14.9,29,24,29 s17.4-2.1,24-5.7V8C48,3.6,44.4,0,40,0z"/>
<path d="M20.0155 11.7682L19.5117 12.6319L20.0155 11.7682C17.3489 10.2126 14 12.1361 14 15.2233L14 32.777C14 35.8642 17.3489 37.7877 20.0155 36.2322L35.0616 27.4553C37.7076 25.9118 37.7077 22.0886 35.0616 20.545L20.0155 11.7682Z" fill="white" stroke="#674DCC" stroke-width="2" stroke-linecap="round" stroke-linejoin="round"/>
</svg>
