<svg width="48" height="48" viewBox="0 0 48 48" fill="none" xmlns="http://www.w3.org/2000/svg">
<rect width="48" height="48" rx="8" fill="#9F8AF0"/>
<path fill="#C5B9F6" enable-background="new" d="M40,0H8C3.6,0,0,3.6,0,8v15.3C6.6,26.9,14.9,29,24,29 s17.4-2.1,24-5.7V8C48,3.6,44.4,0,40,0z"/>
<path d="M24.6001 8C20.6001 9.6 11.8001 16.32 8.6001 20.8" stroke="white" stroke-width="3.2" stroke-linecap="round" stroke-linejoin="round" stroke-dasharray="1.6 6.4"/>
<mask id="path-4-outside-1_53_87" maskUnits="userSpaceOnUse" x="6.5" y="8.5" width="35" height="30" fill="black">
<rect fill="white" x="6.5" y="8.5" width="35" height="30"/>
<path fill-rule="evenodd" clip-rule="evenodd" d="M30.2692 12.1411C30.7436 12.8202 30.5777 13.7554 29.8985 14.2298C25.922 17.0078 20.1636 21.6288 16.093 25.6859C14.032 27.7401 12.5217 29.5354 11.84 30.8151C11.647 31.1774 11.9052 31.5462 12.3031 31.4453C12.3948 31.4221 12.4942 31.3935 12.6017 31.3589C13.1936 31.168 13.9002 30.8341 14.7096 30.3736C16.2133 29.5182 17.8808 28.339 19.5875 27.1321C19.7264 27.0339 19.8655 26.9355 20.0048 26.8371C21.8012 25.5683 23.6667 24.2676 25.2449 23.5046C26.0254 23.1273 26.881 22.8072 27.7098 22.7586C28.6161 22.7054 29.6056 22.9851 30.2634 23.9133C30.7403 24.5864 30.7844 25.337 30.6993 25.9329C30.6161 26.5164 30.3936 27.0837 30.1569 27.5758C29.7643 28.3916 29.1894 29.2786 28.6977 30.0373C28.6039 30.182 28.5131 30.322 28.4272 30.456C28.4247 30.4599 28.4222 30.4638 28.4197 30.4677C28.2746 30.6942 28.5005 30.9547 28.7442 30.8407C29.3051 30.5784 29.8864 30.2867 30.5048 29.9764C30.9644 29.7457 31.4446 29.5048 31.9522 29.2579C33.0734 28.7127 34.2793 28.1645 35.33 27.8612C35.8522 27.7104 36.4278 27.5921 36.9855 27.6036C37.5411 27.615 38.276 27.7633 38.84 28.3604C39.357 28.9078 39.4709 29.6009 39.4568 30.1268C39.4422 30.6727 39.2907 31.2322 39.0635 31.7635C38.606 32.834 37.7495 34.0073 36.4966 35.1211C35.8775 35.6716 34.9294 35.6159 34.379 34.9968C33.8285 34.3777 33.8842 33.4296 34.5033 32.8791C35.3846 32.0956 35.9215 31.3586 36.206 30.7961C36.2209 30.7666 36.1937 30.7343 36.162 30.7435C35.383 30.9684 34.3812 31.4126 33.2643 31.9558C32.837 32.1636 32.3795 32.3928 31.9215 32.6222C31.2569 32.9553 30.5912 33.2888 30.0152 33.5582C29.5109 33.794 29.0124 34.0116 28.5587 34.1724C28.1406 34.3207 27.6142 34.4757 27.1038 34.4757C26.4989 34.4757 25.6861 34.3704 25.0829 33.7767C24.4011 33.1058 24.4019 32.2487 24.5027 31.7083C24.6022 31.1748 24.8429 30.6521 25.0736 30.2184C25.315 29.7647 25.6117 29.2891 25.9016 28.8369C26.0065 28.6734 26.1102 28.513 26.2119 28.3557C26.705 27.5932 27.1514 26.9028 27.4535 26.2751C27.5543 26.0655 27.3701 25.8611 27.1526 25.9435C26.9781 26.0097 26.778 26.0957 26.5506 26.2056C25.2397 26.8393 23.5874 27.9795 21.7356 29.2875C21.5892 29.3909 21.4416 29.4953 21.2931 29.6004C19.6205 30.7836 17.8325 32.0485 16.1931 32.9812C15.297 33.491 14.39 33.9343 13.5225 34.2141C12.6745 34.4875 11.7171 34.6535 10.7919 34.4359C10.2851 34.3167 9.77129 34.0994 9.34672 33.7131C8.90246 33.3089 8.63873 32.7939 8.54252 32.2396C8.36817 31.2352 8.75861 30.2188 9.19221 29.4048C10.1002 27.7001 11.8919 25.6374 13.9752 23.5611C18.1931 19.3571 24.092 14.6267 28.1805 11.7705C28.8596 11.296 29.7947 11.462 30.2692 12.1411ZM26.9034 31.4612C26.9036 31.461 26.9084 31.4618 26.917 31.4643C26.9074 31.4626 26.9031 31.4614 26.9034 31.4612Z"/>
</mask>
<path fill-rule="evenodd" clip-rule="evenodd" d="M30.2692 12.1411C30.7436 12.8202 30.5777 13.7554 29.8985 14.2298C25.922 17.0078 20.1636 21.6288 16.093 25.6859C14.032 27.7401 12.5217 29.5354 11.84 30.8151C11.647 31.1774 11.9052 31.5462 12.3031 31.4453C12.3948 31.4221 12.4942 31.3935 12.6017 31.3589C13.1936 31.168 13.9002 30.8341 14.7096 30.3736C16.2133 29.5182 17.8808 28.339 19.5875 27.1321C19.7264 27.0339 19.8655 26.9355 20.0048 26.8371C21.8012 25.5683 23.6667 24.2676 25.2449 23.5046C26.0254 23.1273 26.881 22.8072 27.7098 22.7586C28.6161 22.7054 29.6056 22.9851 30.2634 23.9133C30.7403 24.5864 30.7844 25.337 30.6993 25.9329C30.6161 26.5164 30.3936 27.0837 30.1569 27.5758C29.7643 28.3916 29.1894 29.2786 28.6977 30.0373C28.6039 30.182 28.5131 30.322 28.4272 30.456C28.4247 30.4599 28.4222 30.4638 28.4197 30.4677C28.2746 30.6942 28.5005 30.9547 28.7442 30.8407C29.3051 30.5784 29.8864 30.2867 30.5048 29.9764C30.9644 29.7457 31.4446 29.5048 31.9522 29.2579C33.0734 28.7127 34.2793 28.1645 35.33 27.8612C35.8522 27.7104 36.4278 27.5921 36.9855 27.6036C37.5411 27.615 38.276 27.7633 38.84 28.3604C39.357 28.9078 39.4709 29.6009 39.4568 30.1268C39.4422 30.6727 39.2907 31.2322 39.0635 31.7635C38.606 32.834 37.7495 34.0073 36.4966 35.1211C35.8775 35.6716 34.9294 35.6159 34.379 34.9968C33.8285 34.3777 33.8842 33.4296 34.5033 32.8791C35.3846 32.0956 35.9215 31.3586 36.206 30.7961C36.2209 30.7666 36.1937 30.7343 36.162 30.7435C35.383 30.9684 34.3812 31.4126 33.2643 31.9558C32.837 32.1636 32.3795 32.3928 31.9215 32.6222C31.2569 32.9553 30.5912 33.2888 30.0152 33.5582C29.5109 33.794 29.0124 34.0116 28.5587 34.1724C28.1406 34.3207 27.6142 34.4757 27.1038 34.4757C26.4989 34.4757 25.6861 34.3704 25.0829 33.7767C24.4011 33.1058 24.4019 32.2487 24.5027 31.7083C24.6022 31.1748 24.8429 30.6521 25.0736 30.2184C25.315 29.7647 25.6117 29.2891 25.9016 28.8369C26.0065 28.6734 26.1102 28.513 26.2119 28.3557C26.705 27.5932 27.1514 26.9028 27.4535 26.2751C27.5543 26.0655 27.3701 25.8611 27.1526 25.9435C26.9781 26.0097 26.778 26.0957 26.5506 26.2056C25.2397 26.8393 23.5874 27.9795 21.7356 29.2875C21.5892 29.3909 21.4416 29.4953 21.2931 29.6004C19.6205 30.7836 17.8325 32.0485 16.1931 32.9812C15.297 33.491 14.39 33.9343 13.5225 34.2141C12.6745 34.4875 11.7171 34.6535 10.7919 34.4359C10.2851 34.3167 9.77129 34.0994 9.34672 33.7131C8.90246 33.3089 8.63873 32.7939 8.54252 32.2396C8.36817 31.2352 8.75861 30.2188 9.19221 29.4048C10.1002 27.7001 11.8919 25.6374 13.9752 23.5611C18.1931 19.3571 24.092 14.6267 28.1805 11.7705C28.8596 11.296 29.7947 11.462 30.2692 12.1411ZM26.9034 31.4612C26.9036 31.461 26.9084 31.4618 26.917 31.4643C26.9074 31.4626 26.9031 31.4614 26.9034 31.4612Z" fill="white"/>
<path d="M37.6526 31.3315C38.0535 30.9516 38.0706 30.3187 37.6908 29.9178C37.3109 29.5168 36.678 29.4997 36.2771 29.8795L37.6526 31.3315ZM37.129 29.6192C36.5845 29.5264 36.068 29.8925 35.9752 30.4369C35.8823 30.9814 36.2485 31.4979 36.7929 31.5907L37.129 29.6192ZM35.4616 30.1204C35.5085 30.6706 35.9927 31.0787 36.5429 31.0318C37.0932 30.9848 37.5013 30.5007 37.4544 29.9504L35.4616 30.1204ZM37.1311 30.7675C37.5394 30.3955 37.5688 29.763 37.1968 29.3548C36.8249 28.9465 36.1924 28.9171 35.7842 29.2891L37.1311 30.7675ZM36.2771 29.8795C36.4177 29.7463 36.5609 29.6888 36.6162 29.6682C36.685 29.6426 36.7425 29.63 36.7743 29.6238C36.8381 29.6114 36.889 29.6082 36.9091 29.6071C36.9544 29.6045 36.9899 29.6058 37.0008 29.6062C37.0289 29.6072 37.0507 29.6092 37.0574 29.6098C37.0753 29.6115 37.0892 29.6133 37.0951 29.6141C37.1095 29.616 37.1211 29.6178 37.129 29.6192L36.7929 31.5907C36.8033 31.5925 36.8168 31.5947 36.8325 31.5967C36.8391 31.5976 36.8535 31.5995 36.8717 31.6012C36.8786 31.6018 36.9005 31.6038 36.9287 31.6049C36.9397 31.6052 36.9752 31.6065 37.0205 31.6039C37.0406 31.6028 37.0915 31.5996 37.1554 31.5872C37.1872 31.581 37.2446 31.5684 37.3134 31.5428C37.3687 31.5222 37.5119 31.4647 37.6526 31.3315L36.2771 29.8795ZM37.4544 29.9504C37.4552 29.9605 37.4563 29.9754 37.457 29.9939C37.4573 30.0016 37.4578 30.0191 37.4575 30.0416C37.4574 30.0502 37.457 30.0767 37.4542 30.1105C37.4531 30.1244 37.4496 30.1649 37.4399 30.216C37.4353 30.2399 37.4245 30.2928 37.4019 30.3575C37.3904 30.3905 37.3701 30.4432 37.3371 30.5043C37.3073 30.5593 37.2441 30.6645 37.1311 30.7675L35.7842 29.2891C35.5877 29.4681 35.5217 29.6753 35.5134 29.699C35.4908 29.7638 35.48 29.8167 35.4754 29.8406C35.4656 29.8917 35.4622 29.9323 35.461 29.9463C35.4582 29.9803 35.4578 30.007 35.4577 30.016C35.4574 30.0391 35.458 30.0575 35.4583 30.0664C35.4591 30.0873 35.4603 30.1057 35.4616 30.1204L37.4544 29.9504ZM29.8985 14.2298L31.0439 15.8693L31.0439 15.8693L29.8985 14.2298ZM30.2692 12.1411L28.6296 13.2865L28.6296 13.2865L30.2692 12.1411ZM16.093 25.6859L14.6811 24.2694L14.6811 24.2694L16.093 25.6859ZM11.84 30.8151L13.6052 31.7554L13.6052 31.7554L11.84 30.8151ZM12.6017 31.3589L11.9879 29.4554L11.9879 29.4554L12.6017 31.3589ZM14.7096 30.3736L15.6986 32.112L15.6986 32.112L14.7096 30.3736ZM19.5875 27.1321L20.7422 28.7651L20.7422 28.7651L19.5875 27.1321ZM20.0048 26.8371L21.1587 28.4707L21.1587 28.4707L20.0048 26.8371ZM25.2449 23.5046L26.1153 25.3053L26.1153 25.3053L25.2449 23.5046ZM27.7098 22.7586L27.5927 20.762L27.5927 20.762L27.7098 22.7586ZM30.2634 23.9133L28.6315 25.0697L28.6315 25.0697L30.2634 23.9133ZM30.6993 25.9329L32.6793 26.2155L32.6793 26.2155L30.6993 25.9329ZM30.1569 27.5758L28.3546 26.7087L28.3546 26.7087L30.1569 27.5758ZM28.6977 30.0373L27.0194 28.9495L27.0194 28.9495L28.6977 30.0373ZM28.4272 30.456L26.7435 29.3766L26.7435 29.3766L28.4272 30.456ZM28.7442 30.8407L27.8969 29.029L27.8969 29.029L28.7442 30.8407ZM30.5048 29.9764L29.6077 28.1888L29.6077 28.1888L30.5048 29.9764ZM31.9522 29.2579L32.8269 31.0565L32.8269 31.0565L31.9522 29.2579ZM35.33 27.8612L35.8847 29.7827L35.8847 29.7827L35.33 27.8612ZM36.9855 27.6036L37.0266 25.604L37.0266 25.604L36.9855 27.6036ZM38.84 28.3604L40.2939 26.987L40.2939 26.987L38.84 28.3604ZM39.4568 30.1268L37.4575 30.0733L37.4575 30.0733L39.4568 30.1268ZM39.0635 31.7635L37.2245 30.9774L37.2245 30.9774L39.0635 31.7635ZM36.4966 35.1211L37.8255 36.6158L37.8255 36.6158L36.4966 35.1211ZM34.379 34.9968L32.8843 36.3257L32.8843 36.3257L34.379 34.9968ZM34.5033 32.8791L33.1744 31.3844L33.1744 31.3844L34.5033 32.8791ZM36.162 30.7435L36.7168 32.665L36.7168 32.665L36.162 30.7435ZM33.2643 31.9558L34.139 33.7544L34.139 33.7544L33.2643 31.9558ZM31.9215 32.6222L31.0256 30.8341L31.0256 30.8341L31.9215 32.6222ZM30.0152 33.5582L30.8625 35.3698L30.8625 35.3698L30.0152 33.5582ZM28.5587 34.1724L27.8904 32.2874L27.8904 32.2874L28.5587 34.1724ZM25.0829 33.7767L26.4858 32.3513L26.4858 32.3513L25.0829 33.7767ZM24.5027 31.7083L26.4688 32.075L26.4688 32.075L24.5027 31.7083ZM25.0736 30.2184L23.308 29.279L23.308 29.279L25.0736 30.2184ZM25.9016 28.8369L27.5853 29.9163L27.5853 29.9163L25.9016 28.8369ZM26.2119 28.3557L24.5324 27.2697L24.5324 27.2697L26.2119 28.3557ZM27.4535 26.2751L25.6512 25.408L25.6512 25.408L27.4535 26.2751ZM26.5506 26.2056L27.421 28.0063L27.421 28.0063L26.5506 26.2056ZM21.7356 29.2875L22.8895 30.9211L22.8895 30.9211L21.7356 29.2875ZM21.2931 29.6004L22.4482 31.2331L22.4482 31.2331L21.2931 29.6004ZM16.1931 32.9812L15.2041 31.2428L15.2041 31.2428L16.1931 32.9812ZM13.5225 34.2141L12.9086 32.3106L12.9086 32.3106L13.5225 34.2141ZM10.7919 34.4359L11.2498 32.489L11.2498 32.489L10.7919 34.4359ZM9.34672 33.7131L10.6927 32.2337L10.6927 32.2337L9.34672 33.7131ZM8.54252 32.2396L6.57199 32.5817L8.54252 32.2396ZM9.19221 29.4048L7.427 28.4645L7.427 28.4646L9.19221 29.4048ZM13.9752 23.5611L15.387 24.9776L15.387 24.9776L13.9752 23.5611ZM28.1805 11.7705L27.0351 10.1309L27.0351 10.1309L28.1805 11.7705ZM26.917 31.4643L26.5698 33.434C27.6167 33.6185 28.625 32.9519 28.8652 31.9164C29.1055 30.8809 28.4938 29.8384 27.4727 29.5431L26.917 31.4643ZM36.206 30.7961L34.4213 29.8934L34.4213 29.8934L36.206 30.7961ZM27.1526 25.9435L27.8616 27.8136L27.8616 27.8136L27.1526 25.9435ZM28.4197 30.4677L26.7357 29.3887L28.4197 30.4677ZM12.3031 31.4453L11.8116 29.5066L12.3031 31.4453ZM31.0439 15.8693C32.6285 14.7623 33.0157 12.5803 31.9087 10.9957L28.6296 13.2865C28.4715 13.0601 28.5268 12.7484 28.7532 12.5902L31.0439 15.8693ZM17.5048 27.1025C21.4773 23.1432 27.1421 18.5952 31.0439 15.8693L28.7532 12.5902C24.702 15.4204 18.8499 20.1143 14.6811 24.2694L17.5048 27.1025ZM13.6052 31.7554C14.1358 30.7592 15.4581 29.1425 17.5048 27.1025L14.6811 24.2694C12.6059 26.3377 10.9075 28.3115 10.0748 29.8749L13.6052 31.7554ZM11.9879 29.4554C11.918 29.4779 11.8594 29.4945 11.8116 29.5066L12.7947 33.3839C12.9302 33.3496 13.0704 33.3091 13.2155 33.2623L11.9879 29.4554ZM13.7206 28.6353C12.9687 29.063 12.396 29.3238 11.9879 29.4554L13.2155 33.2623C13.9913 33.0122 14.8316 32.6052 15.6986 32.112L13.7206 28.6353ZM18.4327 25.4992C16.7023 26.7228 15.1212 27.8384 13.7206 28.6353L15.6986 32.112C17.3053 31.1979 19.0592 29.9552 20.7422 28.7651L18.4327 25.4992ZM18.851 25.2035C18.7111 25.3023 18.5716 25.401 18.4327 25.4992L20.7422 28.7651C20.8812 28.6668 21.0199 28.5688 21.1587 28.4707L18.851 25.2035ZM24.3744 21.704C22.6183 22.5529 20.6113 23.9601 18.851 25.2035L21.1587 28.4707C22.9911 27.1764 24.7151 25.9822 26.1153 25.3053L24.3744 21.704ZM27.5927 20.762C26.3714 20.8337 25.2337 21.2886 24.3744 21.704L26.1153 25.3053C26.8171 24.9661 27.3906 24.7808 27.827 24.7551L27.5927 20.762ZM31.8952 22.757C30.7335 21.1177 28.9849 20.6803 27.5927 20.762L27.827 24.7551C28.0402 24.7426 28.2093 24.7732 28.3292 24.8217C28.4331 24.8638 28.5331 24.9308 28.6315 25.0697L31.8952 22.757ZM32.6793 26.2155C32.8078 25.3153 32.768 23.9887 31.8952 22.757L28.6315 25.0697C28.7126 25.1841 28.761 25.3588 28.7194 25.6503L32.6793 26.2155ZM31.9591 28.4429C32.2346 27.8703 32.5543 27.091 32.6793 26.2155L28.7194 25.6503C28.6778 25.9418 28.5526 26.2972 28.3546 26.7087L31.9591 28.4429ZM30.3759 31.1251C30.8507 30.3926 31.5011 29.3949 31.9591 28.4429L28.3546 26.7087C28.0276 27.3883 27.5281 28.1645 27.0194 28.9495L30.3759 31.1251ZM30.1109 31.5355C30.1936 31.4064 30.2816 31.2707 30.3759 31.1251L27.0194 28.9495C26.9261 29.0933 26.8326 29.2377 26.7435 29.3766L30.1109 31.5355ZM30.1037 31.5467C30.106 31.543 30.1084 31.5393 30.1109 31.5355L26.7435 29.3766C26.7409 29.3806 26.7383 29.3847 26.7357 29.3887L30.1037 31.5467ZM29.6077 28.1888C28.9839 28.5019 28.4282 28.7806 27.8969 29.029L29.5915 32.6524C30.182 32.3762 30.7888 32.0716 31.4018 31.764L29.6077 28.1888ZM31.0775 27.4593C30.557 27.7124 30.0661 27.9588 29.6077 28.1888L31.4018 31.764C31.8627 31.5326 32.3322 31.2971 32.8269 31.0565L31.0775 27.4593ZM34.7753 25.9397C33.5438 26.2952 32.2022 26.9124 31.0775 27.4593L32.8269 31.0565C33.9446 30.5129 35.0148 30.0338 35.8847 29.7827L34.7753 25.9397ZM37.0266 25.604C36.1806 25.5866 35.3846 25.7637 34.7753 25.9397L35.8847 29.7827C36.3198 29.6571 36.6751 29.5976 36.9445 29.6032L37.0266 25.604ZM40.2939 26.987C39.2169 25.8468 37.8617 25.6211 37.0266 25.604L36.9445 29.6032C37.0698 29.6057 37.1737 29.6238 37.2496 29.6503C37.3155 29.6734 37.3538 29.6996 37.386 29.7337L40.2939 26.987ZM41.4561 30.1803C41.4779 29.3655 41.3115 28.0643 40.2939 26.987L37.386 29.7337C37.3983 29.7467 37.4145 29.7678 37.4304 29.8212C37.4488 29.8831 37.4603 29.9704 37.4575 30.0733L41.4561 30.1803ZM40.9026 32.5496C41.1971 31.8607 41.4328 31.0482 41.4561 30.1803L37.4575 30.0733C37.4515 30.2972 37.3843 30.6036 37.2245 30.9774L40.9026 32.5496ZM37.8255 36.6158C39.249 35.3502 40.3057 33.9459 40.9026 32.5496L37.2245 30.9774C36.9062 31.7221 36.2499 32.6643 35.1678 33.6265L37.8255 36.6158ZM32.8843 36.3257C34.1687 37.7703 36.3809 37.9002 37.8255 36.6158L35.1678 33.6265C35.3741 33.443 35.6902 33.4615 35.8736 33.6679L32.8843 36.3257ZM33.1744 31.3844C31.7298 32.6688 31.5999 34.8811 32.8843 36.3257L35.8737 33.6679C36.0571 33.8743 36.0386 34.1903 35.8322 34.3738L33.1744 31.3844ZM34.4213 29.8934C34.2679 30.1967 33.8996 30.7397 33.1744 31.3844L35.8322 34.3738C36.8696 33.4515 37.5751 32.5204 37.9907 31.6988L34.4213 29.8934ZM34.139 33.7544C35.2538 33.2122 36.1192 32.8375 36.7168 32.665L35.6073 28.822C34.6469 29.0992 33.5086 29.613 32.3896 30.1572L34.139 33.7544ZM32.8174 34.4104C33.2777 34.1797 33.7243 33.956 34.139 33.7544L32.3896 30.1572C31.9497 30.3711 31.4812 30.6059 31.0256 30.8341L32.8174 34.4104ZM30.8625 35.3698C31.4679 35.0867 32.1596 34.74 32.8174 34.4104L31.0256 30.8341C30.3542 31.1705 29.7145 31.4909 29.1679 31.7465L30.8625 35.3698ZM29.227 36.0575C29.7702 35.8649 30.336 35.6161 30.8625 35.3698L29.1679 31.7465C28.6858 31.972 28.2546 32.1583 27.8904 32.2874L29.227 36.0575ZM27.1038 36.4757C27.9705 36.4757 28.7636 36.2217 29.227 36.0575L27.8904 32.2874C27.7199 32.3478 27.5617 32.3972 27.415 32.4311C27.2657 32.4657 27.1637 32.4757 27.1038 32.4757V36.4757ZM23.68 35.2022C24.8557 36.3592 26.3405 36.4757 27.1038 36.4757V32.4757C26.9077 32.4757 26.7532 32.4573 26.6388 32.4249C26.5353 32.3955 26.4998 32.3651 26.4858 32.3513L23.68 35.2022ZM22.5366 31.3417C22.3802 32.1799 22.3141 33.8579 23.68 35.2022L26.4858 32.3513C26.4768 32.3425 26.4726 32.3369 26.4711 32.3349C26.4695 32.3328 26.4691 32.3318 26.4689 32.3315C26.4689 32.3315 26.4651 32.3245 26.4612 32.305C26.4571 32.284 26.4536 32.2518 26.4545 32.2082C26.4554 32.1645 26.4607 32.1186 26.4688 32.075L22.5366 31.3417ZM23.308 29.279C23.0498 29.7643 22.693 30.5033 22.5366 31.3417L26.4688 32.075C26.5114 31.8464 26.636 31.5398 26.8393 31.1578L23.308 29.279ZM24.2179 27.7575C23.9244 28.2153 23.5901 28.7487 23.308 29.279L26.8393 31.1578C27.0399 30.7807 27.299 30.3629 27.5853 29.9163L24.2179 27.7575ZM24.5324 27.2697C24.4311 27.4265 24.3252 27.5901 24.2179 27.7575L27.5853 29.9163C27.6877 29.7567 27.7893 29.5996 27.8913 29.4418L24.5324 27.2697ZM25.6512 25.408C25.4152 25.8985 25.047 26.474 24.5324 27.2697L27.8913 29.4418C28.3629 28.7125 28.8877 27.9072 29.2557 27.1422L25.6512 25.408ZM27.421 28.0063C27.6033 27.9181 27.7494 27.8562 27.8616 27.8136L26.4437 24.0734C26.2069 24.1631 25.9526 24.2733 25.6801 24.405L27.421 28.0063ZM22.8895 30.9211C24.7792 29.5863 26.2886 28.5537 27.421 28.0063L25.6801 24.405C24.1907 25.125 22.3956 26.3727 20.5818 27.6539L22.8895 30.9211ZM22.4482 31.2331C22.5967 31.128 22.7437 31.024 22.8895 30.9211L20.5818 27.6539C20.4346 27.7578 20.2864 27.8627 20.1381 27.9676L22.4482 31.2331ZM17.1821 34.7195C18.9239 33.7286 20.7966 32.4015 22.4482 31.2331L20.1381 27.9676C18.4444 29.1658 16.7411 30.3684 15.2041 31.2428L17.1821 34.7195ZM14.1363 36.1175C15.1874 35.7786 16.2281 35.2623 17.1821 34.7195L15.2041 31.2428C14.3659 31.7197 13.5925 32.0901 12.9086 32.3106L14.1363 36.1175ZM10.334 36.3828C11.7669 36.7198 13.1305 36.4419 14.1363 36.1175L12.9086 32.3106C12.2184 32.5332 11.6674 32.5872 11.2498 32.489L10.334 36.3828ZM8.00078 35.1924C8.74711 35.8715 9.6031 36.2109 10.334 36.3828L11.2498 32.489C10.9672 32.4225 10.7955 32.3273 10.6927 32.2337L8.00078 35.1924ZM6.57199 32.5817C6.73965 33.5476 7.20847 34.4716 8.00078 35.1924L10.6927 32.2337C10.5965 32.1462 10.5378 32.0403 10.5131 31.8976L6.57199 32.5817ZM7.427 28.4646C6.94443 29.3705 6.27875 30.8923 6.57199 32.5817L10.5131 31.8976C10.4576 31.5781 10.5728 31.0671 10.9574 30.345L7.427 28.4646ZM12.5633 22.1445C10.4647 24.2362 8.48569 26.4769 7.427 28.4645L10.9574 30.345C11.7147 28.9233 13.3191 27.0387 15.387 24.9776L12.5633 22.1445ZM27.0351 10.1309C22.872 13.0392 16.8794 17.8427 12.5633 22.1445L15.387 24.9776C19.5067 20.8715 25.312 16.2141 29.3258 13.41L27.0351 10.1309ZM31.9087 10.9957C30.8017 9.4111 28.6197 9.02392 27.0351 10.1309L29.3258 13.41C29.0995 13.5682 28.7878 13.5129 28.6296 13.2865L31.9087 10.9957ZM28.2406 32.9484C27.895 33.2592 27.5373 33.3616 27.4257 33.3918C27.2725 33.4332 27.1468 33.4474 27.082 33.4532C26.9493 33.4651 26.8449 33.4607 26.8052 33.4587C26.7133 33.4542 26.642 33.4441 26.6174 33.4405C26.5553 33.4315 26.5072 33.4215 26.4852 33.4167C26.4332 33.4055 26.391 33.3941 26.3613 33.3856L27.4727 29.5431C27.4344 29.532 27.3855 29.519 27.3289 29.5067C27.3046 29.5015 27.2547 29.4911 27.1914 29.4819C27.1661 29.4783 27.0944 29.4681 27.0021 29.4636C26.9622 29.4616 26.8578 29.4572 26.725 29.4691C26.66 29.475 26.5344 29.4891 26.3811 29.5306C26.2695 29.5608 25.9118 29.6632 25.5661 29.974L28.2406 32.9484ZM27.2642 29.4947C27.2874 29.4988 27.3285 29.5065 27.3804 29.5192C27.3995 29.5238 27.4571 29.538 27.5297 29.5619C27.5485 29.5681 27.6592 29.6037 27.7914 29.6692C27.8181 29.6824 28.0578 29.795 28.2947 30.0245C28.3959 30.1225 28.7362 30.4645 28.8596 31.0453C28.9298 31.3752 28.9227 31.7566 28.7851 32.1387C28.6516 32.5096 28.4338 32.7747 28.2406 32.9484L25.5661 29.974C25.1076 30.3863 24.779 31.0865 24.9471 31.8771C25.0706 32.4579 25.4108 32.7999 25.512 32.898C25.7491 33.1275 25.9888 33.2401 26.0156 33.2534C26.148 33.319 26.2591 33.3548 26.2785 33.3612C26.352 33.3854 26.4112 33.4 26.4326 33.4052C26.489 33.419 26.537 33.4282 26.5698 33.434L27.2642 29.4947ZM37.9907 31.6988C38.8113 30.0763 37.2811 28.3387 35.6073 28.822L36.7168 32.665C35.1063 33.13 33.6304 31.457 34.4213 29.8934L37.9907 31.6988ZM29.2557 27.1422C29.6483 26.3262 29.5275 25.3454 28.9055 24.6579C28.2791 23.9657 27.3033 23.7475 26.4437 24.0734L27.8616 27.8136C27.2194 28.0571 26.4445 27.8999 25.9394 27.3416C25.4386 26.7882 25.3595 26.0144 25.6512 25.408L29.2557 27.1422ZM26.7357 29.3887C25.5285 31.2727 27.5 33.6305 29.5915 32.6524L27.8969 29.029C29.5011 28.2788 31.0206 30.1157 30.1037 31.5467L26.7357 29.3887ZM10.0748 29.8749C9.66322 30.6476 9.63979 31.6594 10.2285 32.4747C10.8415 33.3236 11.8735 33.6175 12.7947 33.3839L11.8116 29.5066C12.3348 29.374 13.0388 29.5339 13.4715 30.1331C13.8799 30.6987 13.8238 31.3449 13.6052 31.7554L10.0748 29.8749Z" fill="#674DCC" mask="url(#path-4-outside-1_53_87)"/>
</svg>
