<svg width="48" height="48" viewBox="0 0 48 48" fill="none" xmlns="http://www.w3.org/2000/svg">
<rect width="48" height="48" rx="8" fill="#9F8AF0"/>
<path fill="#C5B9F6" enable-background="new" d="M40,0H8C3.6,0,0,3.6,0,8v15.3C6.6,26.9,14.9,29,24,29 s17.4-2.1,24-5.7V8C48,3.6,44.4,0,40,0z"/>
<path d="M12 16H32V36H12V16ZM11 10C8.23858 10 6 12.2386 6 15V37C6 39.7614 8.23858 42 11 42H33C35.7614 42 38 39.7614 38 37V15C38 12.2386 35.7614 10 33 10H11Z" fill="white" stroke="#674DCC" stroke-width="2" stroke-linecap="round" stroke-linejoin="round"/>
<path d="M36.3835 7.50448C37.6239 6.26413 39.6349 6.26413 40.8752 7.50449C42.1156 8.74484 42.1156 10.7559 40.8752 11.9962L24.7143 28.1571C24.5606 28.3108 24.3829 28.4385 24.188 28.535L18.2355 31.4842C17.3777 31.9092 16.4705 31.002 16.8955 30.1442L19.8447 24.1917C19.9413 23.9969 20.0689 23.8191 20.2226 23.6654L36.3835 7.50448Z" fill="white"/>
<path fill-rule="evenodd" clip-rule="evenodd" d="M42.2895 13.4104L26.1286 29.5713C25.8212 29.8788 25.4657 30.134 25.076 30.3271L19.1235 33.2763C16.5501 34.5514 13.8284 31.8298 15.1035 29.2563L18.0527 23.3038C18.2458 22.9141 18.501 22.5586 18.8085 22.2512L34.9694 6.09027C36.9908 4.06887 40.2681 4.06887 42.2895 6.09027C44.3109 8.11167 44.3109 11.389 42.2895 13.4104ZM40.8753 7.50449C39.635 6.26413 37.6239 6.26413 36.3836 7.50448L34.5938 9.29432L39.0855 13.786L40.8753 11.9962C42.1157 10.7559 42.1157 8.74484 40.8753 7.50449ZM21.6511 22.2369L32.4724 11.4156L36.9642 15.9074L26.1429 26.7287L21.6511 22.2369ZM19.6853 24.5137L16.8956 30.1442C16.4706 31.002 17.3778 31.9092 18.2356 31.4842L23.8661 28.6945L19.6853 24.5137Z" fill="#674DCC"/>
</svg>
