<svg width="48" height="48" viewBox="0 0 48 48" fill="none" xmlns="http://www.w3.org/2000/svg">
<rect width="48" height="48" rx="8" fill="#9F8AF0"/>
<path fill="#C5B9F6" enable-background="new" d="M40,0H8C3.6,0,0,3.6,0,8v15.3C6.6,26.9,14.9,29,24,29 s17.4-2.1,24-5.7V8C48,3.6,44.4,0,40,0z"/>
<path d="M31.2178 11.5041C32.7799 9.942 35.3126 9.942 36.8747 11.5041C38.4368 13.0662 38.4368 15.5988 36.8747 17.1609L20.1765 33.8592C19.9965 34.0391 19.7839 34.183 19.5501 34.2832L12.3025 37.3893C11.4727 37.7449 10.6338 36.906 10.9894 36.0763L14.0955 28.8287C14.1958 28.5948 14.3397 28.3822 14.5196 28.2023L31.2178 11.5041Z" fill="white"/>
<path fill-rule="evenodd" clip-rule="evenodd" d="M38.289 18.5752L21.5908 35.2734C21.2309 35.6332 20.8057 35.9211 20.338 36.1215L13.0904 39.2276C10.6012 40.2944 8.08442 37.7776 9.1512 35.2884L12.2573 28.0408C12.4578 27.5731 12.7456 27.1479 13.1055 26.7881L29.8037 10.0899C32.1468 7.74673 35.9458 7.74673 38.289 10.0899C40.6321 12.433 40.6321 16.232 38.289 18.5752ZM36.8748 11.5041C35.3127 9.94199 32.78 9.942 31.2179 11.5041L30.0108 12.7112L35.6676 18.3681L36.8748 17.1609C38.4368 15.5988 38.4368 13.0662 36.8748 11.5041ZM15.0681 27.6538L27.8895 14.8325L33.5463 20.4894L20.725 33.3107L15.0681 27.6538ZM13.467 30.2954L10.9895 36.0763C10.6339 36.906 11.4728 37.7449 12.3026 37.3893L18.0835 34.9118L13.467 30.2954Z" fill="#674DCC"/>
</svg>
