<svg width="48" height="48" viewBox="0 0 48 48" fill="none" xmlns="http://www.w3.org/2000/svg">
<rect width="48" height="48" rx="8" fill="#9F8AF0"/>
<path fill="#C5B9F6" enable-background="new" d="M40,0H8C3.6,0,0,3.6,0,8v15.3C6.6,26.9,14.9,29,24,29 s17.4-2.1,24-5.7V8C48,3.6,44.4,0,40,0z"/>
<path d="M24 8.5C15.9919 8.5 9.5 14.9919 9.5 23V24.7481C9.18076 25.3242 9 25.9862 9 26.6851V32.3149C9 34.3531 10.5325 36.0653 12.5583 36.2904L15.5583 36.6237C17.9277 36.887 20 35.0323 20 32.6482V26.3518C20 23.9677 17.9277 22.113 15.5583 22.3763L14.5133 22.4924C14.7772 17.4817 18.9236 13.5 24 13.5C29.0764 13.5 33.2229 17.4817 33.4867 22.4924L32.4417 22.3763C30.0723 22.113 28 23.9677 28 26.3518V32.6482C28 35.0322 30.0723 36.887 32.4417 36.6237L35.4417 36.2904C37.4675 36.0653 39 34.3531 39 32.3149V26.6851C39 25.9862 38.8192 25.3242 38.5 24.7481V23C38.5 14.9919 32.0081 8.5 24 8.5Z" fill="white" stroke="#674DCC" stroke-width="2" stroke-linecap="round" stroke-linejoin="round"/>
</svg>
