<svg width="48" height="48" viewBox="0 0 48 48" fill="none" xmlns="http://www.w3.org/2000/svg">
<rect width="48" height="48" rx="8" fill="#9F8AF0"/>
<path fill="#C5B9F6" enable-background="new" d="M40,0H8C3.6,0,0,3.6,0,8v15.3C6.6,26.9,14.9,29,24,29 s17.4-2.1,24-5.7V8C48,3.6,44.4,0,40,0z"/>
<path d="M37 10C37 9.44772 36.5523 9 36 9H16C13.2386 9 11 11.2386 11 14V34C11 36.7614 13.2386 39 16 39H36C36.5523 39 37 38.5523 37 38V36C37 35.4477 36.5523 35 36 35H16C15.4477 35 15 34.5523 15 34C15 33.4477 15.4477 33 16 33H36C36.5523 33 37 32.5523 37 32V10Z" fill="white" stroke="#674DCC" stroke-width="2" stroke-linecap="round" stroke-linejoin="round"/>
<path d="M17 10H25V18.8697C25 19.3038 24.4849 19.5317 24.1637 19.2397L21.3363 16.6694C21.1456 16.496 20.8544 16.496 20.6637 16.6694L17.8363 19.2397C17.5152 19.5317 17 19.3038 17 18.8697V10Z" fill="#674DCC"/>
</svg>
