<svg width="128" height="168" viewBox="0 0 128 168" fill="none" xmlns="http://www.w3.org/2000/svg">
<g clip-path="url(#clip0_101_2564)">
<rect width="128" height="168" fill="white"/>
<mask id="mask0_101_2564" style="mask-type:alpha" maskUnits="userSpaceOnUse" x="0" y="0" width="128" height="168">
<rect width="128" height="168" fill="#2D3133"/>
</mask>
<g mask="url(#mask0_101_2564)">
<rect x="-5" y="-6" width="138" height="180" fill="#4C4F51"/>
<line x1="-11.4963" y1="-15.9141" x2="140.292" y2="183.308" stroke="#595F63"/>
<line x1="140.397" y1="-15.2268" x2="-11.6027" y2="183.834" stroke="#595F63"/>
</g>
<g filter="url(#filter0_d_101_2564)">
<path d="M46.7561 62H48.3941V58.094H49.9481C52.1881 58.094 53.8261 57.072 53.8261 54.818C53.8261 52.48 52.1881 51.696 49.8921 51.696H46.7561V62ZM48.3941 56.792V53.012H49.7241C51.3761 53.012 52.2161 53.446 52.2161 54.818C52.2161 56.162 51.4321 56.792 49.7941 56.792H48.3941ZM55.3342 62H58.1062C61.1862 62 62.9782 60.166 62.9782 56.806C62.9782 53.446 61.1862 51.696 58.0222 51.696H55.3342V62ZM56.9722 60.67V53.012H57.8962C60.1082 53.012 61.3122 54.244 61.3122 56.806C61.3122 59.368 60.1082 60.67 57.8962 60.67H56.9722ZM64.6233 62H66.2613V57.576H70.0693V56.204H66.2613V53.068H70.7413V51.696H64.6233V62ZM79.795 50.352V63.148H81.265V50.352H79.795ZM80.873 55.42V56.624H83.183V55.42H80.873ZM76.477 51.71V51.962C76.477 55.378 74.783 57.94 71.325 59.704L72.151 60.824C76.337 58.724 77.919 55.434 77.919 51.71H76.477ZM71.969 51.71V52.9H77.233V51.71H71.969ZM22.7429 69.024V70.27C22.7429 72.076 21.6649 73.728 19.6489 74.414L20.3909 75.59C22.6869 74.778 23.9469 72.706 23.9469 70.27V69.024H22.7429ZM23.0369 69.024V70.396C23.0369 72.65 24.2829 74.61 26.4949 75.38L27.2229 74.218C25.3049 73.588 24.2129 72.034 24.2129 70.396V69.024H23.0369ZM28.2449 68.366V76.108H29.7149V68.366H28.2449ZM29.3089 71.628V72.846H31.5209V71.628H29.3089ZM21.3009 76.696V77.886H28.2449V81.162H29.7149V76.696H21.3009ZM41.6178 68.366V81.162H43.0178V68.366H41.6178ZM37.1518 72.86V74.064H39.4618V72.86H37.1518ZM39.0418 68.618V80.532H40.4138V68.618H39.0418ZM34.5618 70.396V71.88C34.5618 74.162 33.7218 76.472 31.9018 77.592L32.7838 78.684C34.7298 77.452 35.6818 74.708 35.6818 71.88V70.396H34.5618ZM34.8838 70.396V71.88C34.8838 74.624 35.7798 77.214 37.7258 78.376L38.5938 77.298C36.8018 76.248 35.9898 74.064 35.9898 71.88V70.396H34.8838ZM32.3078 69.766V70.956H38.0898V69.766H32.3078ZM45.4287 73.728V74.918H52.0367V73.728H45.4287ZM47.9627 74.68V77.522H49.4327V74.68H47.9627ZM45.4287 69.542V74.12H46.8987V70.718H51.9667V69.542H45.4287ZM53.5487 68.352V81.176H55.0187V68.352H53.5487ZM44.7287 78.516C47.1367 78.53 50.1047 78.488 52.8907 78.054L52.7787 76.976C50.1047 77.284 47.0247 77.312 44.5467 77.312L44.7287 78.516ZM60.0196 76.094V76.724C60.0196 77.984 59.1796 79.328 57.5416 79.916L58.2696 80.994C60.1876 80.28 61.1536 78.544 61.1536 76.724V76.094H60.0196ZM60.3696 76.094V76.724C60.3696 78.53 61.1536 80.378 63.0856 81.12L63.7016 80.028C62.1336 79.384 61.4476 78.012 61.4476 76.724V76.094H60.3696ZM64.7236 76.094V76.724C64.7236 77.858 64.0236 79.314 62.4696 80.028L63.0856 81.12C64.9896 80.322 65.7876 78.362 65.7876 76.724V76.094H64.7236ZM65.0456 76.094V76.724C65.0456 78.628 65.9836 80.308 67.9156 80.994L68.6576 79.916C66.9776 79.37 66.1656 78.068 66.1656 76.724V76.094H65.0456ZM63.1276 71.46V72.664H66.3476V71.46H63.1276ZM60.3696 69.052C58.4656 69.052 57.0516 70.312 57.0516 72.09C57.0516 73.854 58.4656 75.114 60.3696 75.114C62.2596 75.114 63.6876 73.854 63.6876 72.09C63.6876 70.312 62.2596 69.052 60.3696 69.052ZM60.3696 70.27C61.4616 70.27 62.2876 70.998 62.2876 72.09C62.2876 73.168 61.4616 73.896 60.3696 73.896C59.2636 73.896 58.4516 73.168 58.4516 72.09C58.4516 70.998 59.2636 70.27 60.3696 70.27ZM65.9976 68.366V75.604H67.4676V68.366H65.9976ZM70.6485 76.038V81.008H79.3145V76.038H77.8585V77.34H72.1045V76.038H70.6485ZM72.1045 78.446H77.8585V79.846H72.1045V78.446ZM69.2345 74.092V75.254H80.7985V74.092H69.2345ZM74.2745 68.506V68.996C74.2745 70.466 72.4125 71.866 69.8505 72.188L70.3825 73.336C73.3085 72.93 75.5345 71.222 75.5345 68.996V68.506H74.2745ZM74.5125 68.506V68.996C74.5125 71.194 76.7385 72.93 79.6505 73.336L80.1825 72.188C77.6485 71.866 75.7725 70.452 75.7725 68.996V68.506H74.5125ZM90.7274 68.366V81.162H92.1834V68.366H90.7274ZM82.3694 69.598V77.536H83.8254V69.598H82.3694ZM82.3694 76.668V77.928H83.4614C85.4494 77.928 87.5074 77.788 89.7194 77.326L89.5514 76.094C87.4094 76.528 85.3654 76.668 83.4614 76.668H82.3694ZM102.448 68.352V81.176H103.918V68.352H102.448ZM103.582 73.266V74.484H105.906V73.266H103.582ZM94.5243 76.822V78.04H95.5603C97.8843 78.04 99.5923 77.97 101.552 77.62L101.398 76.388C99.5083 76.738 97.8283 76.822 95.5603 76.822H94.5243ZM94.5243 69.57V77.382H95.9803V70.76H100.474V69.57H94.5243ZM107.827 80.196C108.429 80.196 108.905 79.72 108.905 79.062C108.905 78.39 108.429 77.928 107.827 77.928C107.211 77.928 106.749 78.39 106.749 79.062C106.749 79.72 107.211 80.196 107.827 80.196Z" fill="white"/>
</g>
<rect x="12" y="95" width="104" height="36" rx="18" fill="#77DCB3"/>
<path d="M54.3662 107.24V108.575C54.3662 110.51 53.2112 112.28 51.0512 113.015L51.8462 114.275C54.3062 113.405 55.6562 111.185 55.6562 108.575V107.24H54.3662ZM54.6812 107.24V108.71C54.6812 111.125 56.0162 113.225 58.3862 114.05L59.1662 112.805C57.1112 112.13 55.9412 110.465 55.9412 108.71V107.24H54.6812ZM60.2612 106.535V114.83H61.8362V106.535H60.2612ZM61.4012 110.03V111.335H63.7712V110.03H61.4012ZM52.8212 115.46V116.735H60.2612V120.245H61.8362V115.46H52.8212ZM74.625 106.535V120.245H76.125V106.535H74.625ZM69.84 111.35V112.64H72.315V111.35H69.84ZM71.865 106.805V119.57H73.335V106.805H71.865ZM67.065 108.71V110.3C67.065 112.745 66.165 115.22 64.215 116.42L65.16 117.59C67.245 116.27 68.265 113.33 68.265 110.3V108.71H67.065ZM67.41 108.71V110.3C67.41 113.24 68.37 116.015 70.455 117.26L71.385 116.105C69.465 114.98 68.595 112.64 68.595 110.3V108.71H67.41ZM64.65 108.035V109.31H70.845V108.035H64.65Z" fill="black"/>
</g>
<defs>
<filter id="filter0_d_101_2564" x="4.64893" y="35.3521" width="129.256" height="70.824" filterUnits="userSpaceOnUse" color-interpolation-filters="sRGB">
<feFlood flood-opacity="0" result="BackgroundImageFix"/>
<feColorMatrix in="SourceAlpha" type="matrix" values="0 0 0 0 0 0 0 0 0 0 0 0 0 0 0 0 0 0 127 0" result="hardAlpha"/>
<feOffset dx="5" dy="5"/>
<feGaussianBlur stdDeviation="10"/>
<feComposite in2="hardAlpha" operator="out"/>
<feColorMatrix type="matrix" values="0 0 0 0 0.298039 0 0 0 0 0.309804 0 0 0 0 0.317647 0 0 0 1 0"/>
<feBlend mode="normal" in2="BackgroundImageFix" result="effect1_dropShadow_101_2564"/>
<feBlend mode="normal" in="SourceGraphic" in2="effect1_dropShadow_101_2564" result="shape"/>
</filter>
<clipPath id="clip0_101_2564">
<rect width="128" height="168" fill="white"/>
</clipPath>
</defs>
</svg>
