<svg width="68" height="68" viewBox="0 0 68 68" fill="none" xmlns="http://www.w3.org/2000/svg">
  <mask id="a" style="mask-type:alpha" maskUnits="userSpaceOnUse" x="4" y="7" width="60" height="60">
    <path d="m55.513 7.707 8.194 8.195-21.306 21.305 21.306 21.306-8.194 8.194-21.306-21.306-21.305 21.306-8.195-8.194 21.306-21.306L4.707 15.902l8.195-8.195 21.305 21.305L55.513 7.707Z" fill="#fff"/>
  </mask>
  <g mask="url(#a)">
    <path opacity=".2" d="m55.513 7.707 8.194 8.195-21.306 21.305 21.306 21.306-8.194 8.194-21.306-21.306-21.305 21.306-8.195-8.194 21.306-21.306L4.707 15.902l8.195-8.195 21.305 21.305L55.513 7.707Z" fill="#000000"/>
  </g>
  <path fill-rule="evenodd" clip-rule="evenodd" d="m55.513 2 8.901 8.902-21.306 21.305 21.306 21.306-8.901 8.901-21.306-21.306-21.305 21.306L4 53.513l21.306-21.306L4 10.902 12.902 2l21.305 21.305L55.513 2Z" fill="url(#b)" stroke="#354BAE"/>
  <mask id="c" style="mask-type:alpha" maskUnits="userSpaceOnUse" x="4" y="2" width="60" height="60">
    <path d="m55.513 2.707 8.194 8.195-21.306 21.305 21.306 21.306-8.194 8.194-21.306-21.306-21.305 21.306-8.195-8.194 21.306-21.306L4.707 10.902l8.195-8.195 21.305 21.305L55.513 2.707Z" fill="#fff"/>
  </mask>
  <g mask="url(#c)">
    <path clip-rule="evenodd" d="m55.513 2 8.901 8.902-21.306 21.305 21.306 21.306-8.901 8.901-21.306-21.306-21.305 21.306L4 53.513l21.306-21.306L4 10.902 12.902 2l21.305 21.305L55.513 2Z" stroke="#354BAE"/>
    <path opacity=".504" d="M68.707-3.793h-68v36h68v-36Z" fill="#84B4E9"/>
  </g>
  <path d="m15.121 5.707-1.414-1.414a1 1 0 1 0-1.414 1.414l1.414 1.414a1 1 0 1 0 1.414-1.414Z" fill="#fff"/>
  <defs>
    <linearGradient id="b" x1="34.207" y1="2" x2="34.207" y2="60.856" gradientUnits="userSpaceOnUse">
      <stop stop-color="#AFDCFF"/>
      <stop offset="1" stop-color="#5068EE"/>
    </linearGradient>
  </defs>
</svg>