<svg width="24" height="24" viewBox="0 0 24 24" fill="none" xmlns="http://www.w3.org/2000/svg">
  <path opacity=".2" fill-rule="evenodd" clip-rule="evenodd" d="m12 5.01 3.239 5.533 6.262 1.37-4.26 4.79.63 6.379-5.87-2.572-5.873 2.572.632-6.38-4.26-4.789 6.262-1.37L12 5.01Z" fill="#000000"/>
  <path fill-rule="evenodd" clip-rule="evenodd" d="m12 2.01 3.239 5.533 6.262 1.37-4.26 4.79.63 6.379-5.87-2.572-5.873 2.572.632-6.38L2.5 8.914l6.262-1.37L12 2.01Z" fill="url(#a)" stroke="url(#b)" stroke-linejoin="round"/>
  <mask id="c" style="mask-type:alpha" maskUnits="userSpaceOnUse" x="3" y="3" width="18" height="17">
    <path d="M12 16.964 6.71 19.28l.57-5.747-3.84-4.315 5.642-1.235L12 3l2.918 4.984L20.56 9.22l-3.839 4.315.57 5.747L12 16.964Z" fill="#fff"/>
  </mask>
  <g mask="url(#c)">
    <path clip-rule="evenodd" d="m12 2.01 3.239 5.533 6.262 1.37-4.26 4.79.63 6.379-5.87-2.572-5.873 2.572.632-6.38L2.5 8.914l6.262-1.37L12 2.01Z" stroke="url(#d)"/>
    <path opacity=".635" d="m11.333-6.893-16.25 21.564 9.584 7.221L20.917.33l-9.584-7.221Z" fill="#FFFA90"/>
  </g>
  <path d="m8.82 8.113-.977.208a1 1 0 1 0 .416 1.956l.978-.207a1 1 0 1 0-.416-1.957Z" fill="#fff"/>
  <defs>
    <linearGradient id="a" x1="12" y1="11.046" x2="12" y2="19.616" gradientUnits="userSpaceOnUse">
      <stop stop-color="#FFC700"/>
      <stop offset="1" stop-color="#FF8700"/>
    </linearGradient>
    <linearGradient id="b" x1="12" y1="2.01" x2="12" y2="20.082" gradientUnits="userSpaceOnUse">
      <stop stop-color="#EE6A00"/>
      <stop offset="1" stop-color="#891000"/>
    </linearGradient>
    <linearGradient id="d" x1="12" y1="2.01" x2="12" y2="20.082" gradientUnits="userSpaceOnUse">
      <stop stop-color="#EE6A00"/>
      <stop offset="1" stop-color="#891000"/>
    </linearGradient>
  </defs>
</svg>