<svg width="48" height="48" viewBox="0 0 48 48" fill="none" xmlns="http://www.w3.org/2000/svg">
  <path opacity=".2" d="M31 5H17C9.82 5 4 10.82 4 18v16c0 7.18 5.82 13 13 13h14c7.18 0 13-5.82 13-13V18c0-7.18-5.82-13-13-13Z" fill="#000"/>
  <path d="M30.667 2H17.333C9.97 2 4 7.82 4 15v15c0 7.18 5.97 13 13.333 13h13.334C38.03 43 44 37.18 44 30V15c0-7.18-5.97-13-13.333-13Z" fill="url(#a)"/>
  <mask id="c" style="mask-type:alpha" maskUnits="userSpaceOnUse" x="4" y="2" width="40" height="41">
    <path d="M17.333 2.5h13.334C37.767 2.5 43.5 8.108 43.5 15v15c0 6.892-5.734 12.5-12.833 12.5H17.333C10.233 42.5 4.5 36.892 4.5 30V15c0-6.892 5.734-12.5 12.833-12.5Z" fill="url(#b)" stroke="#065066"/>
  </mask>
  <g mask="url(#c)" fill-rule="evenodd" clip-rule="evenodd">
    <path opacity=".4" d="M13 21h22c5.523 0 10-4.477 10-10V1H3v10c0 5.523 4.477 10 10 10Z" fill="#C6F5FF"/>
    <path d="M31 42c6.627 0 12-5.373 12-12v-2l-.004.288C42.843 34.23 37.98 39 32 39H16C9.925 39 5 34.075 5 28v2c0 6.627 5.373 12 12 12h14Z" fill="#066D9D"/>
  </g>
  <path fill-rule="evenodd" clip-rule="evenodd" d="M33.985 8.498c.549.13.89.353 1.096.592.292.341.351.737.245 1.12l-1.305 3.364A12.396 12.396 0 0 1 36.5 21.03c0 3.444-1.4 6.562-3.662 8.819A12.476 12.476 0 0 1 24 33.5a12.476 12.476 0 0 1-8.838-3.652 12.417 12.417 0 0 1-3.662-8.819c0-3.634 1.558-6.905 4.045-9.185l3.541 3.534a7.455 7.455 0 0 0-2.586 5.651c0 2.066.84 3.936 2.196 5.29A7.486 7.486 0 0 0 24 28.508a7.486 7.486 0 0 0 5.304-2.19 7.447 7.447 0 0 0 2.196-5.29 7.435 7.435 0 0 0-.728-3.218l-1.832 1.65c-.726.39-1.04.326-1.318.225a1.347 1.347 0 0 1-.74-.653l-3.102-7.896c-.129-.705.007-.998.183-1.24.195-.268.488-.463.832-.53l9.19-.87Z" fill="#fff" stroke="#065066"/>
  <path d="m13.53 4.689-1.841.781a1 1 0 1 0 .781 1.841l1.841-.781a1 1 0 1 0-.781-1.841Z" fill="#fff"/>
  <rect x="4.5" y="2.5" width="39" height="40" rx="12.5" stroke="#065066"/>
  <defs>
    <linearGradient id="a" x1="24" y1="2" x2="24" y2="43" gradientUnits="userSpaceOnUse">
      <stop stop-color="#3ACAE8"/>
      <stop offset="1" stop-color="#1B9ACD"/>
    </linearGradient>
    <linearGradient id="b" x1="24" y1="2" x2="24" y2="43" gradientUnits="userSpaceOnUse">
      <stop stop-color="#3ACAE8"/>
      <stop offset="1" stop-color="#1B9ACD"/>
    </linearGradient>
  </defs>
</svg>