<svg width="68" height="68" viewBox="0 0 68 68" fill="none" xmlns="http://www.w3.org/2000/svg">
  <g opacity=".7">
    <path opacity=".2" fill-rule="evenodd" clip-rule="evenodd" d="M34 4c17.673 0 32 14.327 32 32 0 17.673-14.327 32-32 32C16.327 68 2 53.673 2 36 2 18.327 16.327 4 34 4Zm-.5 11C21.626 15 12 24.626 12 36.5S21.626 58 33.5 58 55 48.374 55 36.5 45.374 15 33.5 15Z" fill="#000000"/>
  </g>
  <path fill-rule="evenodd" clip-rule="evenodd" d="M34 .5c8.699 0 16.574 3.526 22.274 9.226 5.7 5.7 9.226 13.575 9.226 22.274 0 8.699-3.526 16.574-9.226 22.274-5.7 5.7-13.575 9.226-22.274 9.226-8.698 0-16.573-3.526-22.274-9.226C6.026 48.574 2.5 40.699 2.5 32c0-8.698 3.526-16.573 9.226-22.274C17.426 4.026 25.301.5 34 .5Zm0 11-.458.005a20.434 20.434 0 0 0-14.038 6A20.436 20.436 0 0 0 13.5 32c0 5.66 2.294 10.786 6.004 14.496A20.436 20.436 0 0 0 34 52.5c5.66 0 10.786-2.294 14.496-6.004A20.436 20.436 0 0 0 54.5 32c0-5.66-2.294-10.786-6.004-14.496A20.436 20.436 0 0 0 34 11.5Z" fill="url(#a)" stroke="#C95763"/>
  <mask id="b" style="mask-type:alpha" maskUnits="userSpaceOnUse" x="3" y="1" width="62" height="62">
    <path d="M34 1c17.12 0 31 13.88 31 31 0 17.12-13.88 31-31 31C16.88 63 3 49.12 3 32 3 14.88 16.88 1 34 1Zm0 10c-11.598 0-21 9.402-21 21s9.402 21 21 21 21-9.402 21-21-9.402-21-21-21Z" fill="#fff"/>
  </mask>
  <g mask="url(#b)">
    <path clip-rule="evenodd" d="M34 .5c8.699 0 16.574 3.526 22.274 9.226 5.7 5.7 9.226 13.575 9.226 22.274 0 8.699-3.526 16.574-9.226 22.274-5.7 5.7-13.575 9.226-22.274 9.226-8.698 0-16.573-3.526-22.274-9.226C6.026 48.574 2.5 40.699 2.5 32c0-8.698 3.526-16.573 9.226-22.274C17.426 4.026 25.301.5 34 .5Zm0 11-.458.005a20.434 20.434 0 0 0-14.038 6A20.436 20.436 0 0 0 13.5 32c0 5.66 2.294 10.786 6.004 14.496A20.436 20.436 0 0 0 34 52.5c5.66 0 10.786-2.294 14.496-6.004A20.436 20.436 0 0 0 54.5 32c0-5.66-2.294-10.786-6.004-14.496A20.436 20.436 0 0 0 34 11.5Z" stroke="#C95763"/>
    <path opacity=".782" d="M68-6H0v38h68V-6Z" fill="#FEB5B5"/>
  </g>
  <path d="m18.318 5.622-1.696 1.06a1 1 0 0 0 1.06 1.696l1.696-1.06a1 1 0 1 0-1.06-1.696Z" fill="#fff"/>
  <defs>
    <linearGradient id="a" x1="34" y1=".5" x2="34" y2="61.875" gradientUnits="userSpaceOnUse">
      <stop stop-color="#FFB5AF"/>
      <stop offset="1" stop-color="#FF7287"/>
    </linearGradient>
  </defs>
</svg>