<svg width="384" height="157" viewBox="0 0 384 157" fill="none" xmlns="http://www.w3.org/2000/svg">
<g clip-path="url(#clip0_2105_31668)">
<path d="M128.883 9.63775C127.619 15.7462 115.439 23.9795 117.987 21.0245C123.375 14.7699 115.047 15.1667 113.262 9.56466C111.727 4.76667 115.992 0 121.031 0C126.069 0 129.911 4.70402 128.888 9.63775H128.883Z" fill="#77DCB3"/>
<path d="M40.133 35.6377C39.7988 36.0867 39.3655 36.5096 38.8434 36.9116C38.3161 37.3136 37.7052 37.6791 37.0004 38.0028C36.2956 38.3265 35.4968 38.5823 34.604 38.7755C33.7113 38.9634 32.7506 39.0626 31.7221 39.0626C30.2707 39.0626 28.9498 38.8225 27.7647 38.3422C26.5795 37.8618 25.5562 37.1988 24.6948 36.3478C23.8334 35.4968 23.1703 34.4892 22.7004 33.3145C22.2305 32.1398 21.9956 30.8606 21.9956 29.4771C21.9956 28.0936 22.2201 26.804 22.6639 25.6189C23.1129 24.4337 23.755 23.4104 24.5904 22.549C25.4309 21.6875 26.4281 21.014 27.5924 20.5181C28.7566 20.0273 30.0619 19.7819 31.5185 19.7819C32.9751 19.7819 34.249 20.0273 35.4237 20.5181C36.5984 21.0088 37.606 21.6875 38.4414 22.549C39.2767 23.4104 39.9241 24.4337 40.3679 25.6189C40.8169 26.804 41.0414 28.0883 41.0414 29.4771V31.2887H26.8928C27.1852 32.4948 27.7438 33.4398 28.5687 34.1237C29.3936 34.8076 30.4482 35.147 31.7221 35.147C32.9281 35.147 34.0297 34.9277 35.0269 34.4944C36.0189 34.061 36.8073 33.492 37.392 32.8028L40.1434 35.6534L40.133 35.6377ZM31.5133 23.7341C30.2394 23.7341 29.2265 24.063 28.4799 24.7157C27.7334 25.3683 27.2113 26.308 26.9189 27.5245H36.1077C35.8414 26.4438 35.3245 25.5406 34.5675 24.8201C33.8052 24.0996 32.7924 23.7394 31.5185 23.7394L31.5133 23.7341Z" fill="white"/>
<path d="M51.9635 38.6867C51.8747 38.7337 51.739 38.765 51.5615 38.7859C51.384 38.8068 51.1908 38.8329 50.9924 38.8538C50.7888 38.8747 50.5956 38.8851 50.4077 38.8851H49.99C46.0325 38.8851 44.0538 36.9952 44.0538 33.2205V11.4911H48.8153V32.8863C48.8153 33.5337 49.3426 34.1289 50.3241 34.1289H51.9687V38.692L51.9635 38.6867Z" fill="white"/>
<path d="M54.5687 44.7221V20.0743H59.2988V21.8181C60.082 21.0819 60.9173 20.5546 61.8101 20.2414C62.7029 19.9281 63.6165 19.7715 64.5563 19.7715C65.9398 19.7715 67.2346 20.0116 68.4354 20.492C69.6414 20.9723 70.6804 21.6458 71.5627 22.502C72.445 23.3635 73.1342 24.3867 73.6354 25.5719C74.1366 26.757 74.3872 28.0414 74.3872 29.4301C74.3872 30.8189 74.1366 32.098 73.6354 33.2675C73.1342 34.4422 72.4398 35.455 71.5627 36.3008C70.6804 37.1518 69.6362 37.8096 68.4354 38.2795C67.2294 38.7494 65.9346 38.9843 64.5563 38.9843C63.6165 38.9843 62.7029 38.8329 61.8101 38.5301C60.9173 38.2273 60.082 37.7209 59.2988 37.0056V44.7169H54.5687V44.7221ZM64.5615 23.7289C63.7784 23.7289 63.0683 23.8803 62.4314 24.1831C61.7944 24.4859 61.2462 24.8984 60.7868 25.4257C60.3274 25.953 59.9776 26.5586 59.7322 27.253C59.4868 27.9474 59.3615 28.6731 59.3615 29.4301C59.3615 30.1871 59.4816 30.939 59.7322 31.6124C59.9776 32.2807 60.3326 32.8759 60.7868 33.3875C61.2462 33.9044 61.7944 34.3064 62.4314 34.5936C63.0683 34.8859 63.7784 35.0269 64.5615 35.0269C65.3446 35.0269 66.0547 34.8807 66.6916 34.5936C67.3286 34.3012 67.8715 33.8992 68.3153 33.3875C68.7643 32.8759 69.1089 32.2807 69.3543 31.6124C69.5996 30.9442 69.725 30.2133 69.725 29.4301C69.725 28.647 69.5996 27.9422 69.3543 27.253C69.1089 26.5586 68.7643 25.953 68.3153 25.4257C67.8663 24.8984 67.3286 24.4859 66.6916 24.1831C66.0547 23.8803 65.3446 23.7289 64.5615 23.7289Z" fill="white"/>
<path d="M76.7314 20.0743H81.4615V30.9807C81.4615 32.2546 81.8322 33.2152 82.5683 33.8731C83.3044 34.5309 84.2808 34.8598 85.4868 34.8598C86.6928 34.8598 87.6795 34.51 88.4366 33.8052C89.1988 33.1004 89.5747 32.1136 89.5747 30.845V20.0743H94.3048V38.6711H89.5747V37.1622C89.1049 37.6791 88.5723 38.0707 87.8466 38.41C87.1209 38.7494 86.2438 38.953 85.351 38.953C84.1868 38.953 83.0852 38.7807 82.0462 38.4309C81.0073 38.0863 80.0884 37.5851 79.2948 36.9377C78.5012 36.2903 77.8747 35.4968 77.4153 34.557C76.9558 33.6173 76.7261 32.5574 76.7261 31.3723V20.0743H76.7314Z" fill="white"/>
<path d="M97.6044 38.6867V11.4911H102.335L102.324 21.5831C102.972 21.0715 103.744 20.6381 104.653 20.2936C105.556 19.949 106.475 19.7715 107.414 19.7715C108.798 19.7715 110.088 20.0116 111.283 20.492C112.479 20.9723 113.507 21.6458 114.379 22.502C115.251 23.3634 115.935 24.3867 116.436 25.5719C116.937 26.757 117.188 28.0414 117.188 29.4301C117.188 30.8189 116.937 32.098 116.436 33.2675C115.935 34.4422 115.251 35.455 114.379 36.3008C113.507 37.1518 112.479 37.8096 111.283 38.2795C110.088 38.7494 108.803 38.9843 107.42 38.9843C106.485 38.9843 105.561 38.8068 104.658 38.4466C103.755 38.0863 102.977 37.6426 102.335 37.1048V38.6815H97.6044V38.6867ZM107.43 23.7289C106.736 23.7289 106.099 23.8594 105.519 24.1152C104.94 24.3711 104.423 24.7209 103.979 25.1542C103.53 25.5875 103.17 26.1096 102.888 26.7152C102.606 27.3209 102.423 27.9683 102.335 28.6626V30.2028C102.423 30.8972 102.611 31.5341 102.904 32.1136C103.196 32.6932 103.556 33.2048 103.995 33.6381C104.433 34.0767 104.94 34.416 105.519 34.6614C106.099 34.9068 106.736 35.0321 107.43 35.0321C108.996 35.0321 110.234 34.5361 111.153 33.5389C112.066 32.547 112.526 31.1739 112.526 29.4301C112.526 27.6863 112.066 26.3028 111.153 25.2743C110.234 24.2458 108.996 23.7341 107.43 23.7341V23.7289Z" fill="white"/>
<path d="M11.0944 22.4237L10.6663 22.2775C7.02734 21.0558 6.06148 20.5964 5.67513 19.239C5.50807 18.6542 5.63859 18.0329 6.0406 17.5004C6.75064 16.5554 8.18638 16.0177 9.97714 16.0177C11.5121 16.0177 12.9844 16.6755 14.1277 17.8659C14.2687 18.012 14.702 18.461 14.89 18.7691L18.6595 15.9863C18.602 15.8297 17.8032 14.8325 17.5579 14.5767C15.5113 12.4414 12.8173 11.2667 9.97714 11.2667C6.63056 11.2667 3.88437 12.4622 2.24501 14.6394C0.939792 16.3675 0.527342 18.5237 1.10164 20.5442C2.21891 24.4494 5.42975 25.5249 9.14702 26.7779L9.56991 26.9189C13.59 28.2711 15.3964 29.3622 14.8117 31.8996C14.5193 33.1683 13.4073 34.3952 10.2643 34.3952C7.12132 34.3952 5.22614 32.3381 3.85304 30.8293L-0.00518799 33.6904C3.2161 37.392 6.48437 39.0992 10.494 39.0992C12.8173 39.0992 14.8587 38.5406 16.3988 37.4912C17.9494 36.4365 18.9988 34.8755 19.4374 32.9751C21.1028 25.7912 14.086 23.4261 11.0892 22.4185L11.0944 22.4237Z" fill="white"/>
<path d="M127.52 25.4362C127.52 23.5619 127.812 21.7972 128.392 20.1422C128.971 18.4872 129.828 17.0462 130.955 15.8193C132.083 14.5924 133.482 13.6213 135.143 12.906C136.808 12.1908 138.735 11.8358 140.922 11.8358C143.11 11.8358 144.973 12.1594 146.571 12.8068C148.169 13.4542 149.646 14.5036 151.014 15.955L148.231 19.004C147.203 17.8659 146.096 17.041 144.916 16.5398C143.731 16.0386 142.405 15.788 140.927 15.788C139.544 15.788 138.317 16.0177 137.257 16.4771C136.197 16.9366 135.294 17.5839 134.558 18.4193C133.822 19.2546 133.263 20.2675 132.882 21.4526C132.501 22.6378 132.313 23.9639 132.313 25.4414C132.313 26.9189 132.506 28.2502 132.898 29.4458C133.289 30.6414 133.863 31.6594 134.626 32.4948C135.383 33.3301 136.302 33.9775 137.372 34.4213C138.442 34.8703 139.674 35.0896 141.058 35.0896C142.53 35.0896 143.882 34.839 145.114 34.3378C146.341 33.8366 147.469 33.0117 148.498 31.8735L151.28 34.9225C149.918 36.3948 148.414 37.4546 146.775 38.0916C145.135 38.7285 143.23 39.047 141.063 39.047C138.896 39.047 136.939 38.6868 135.268 37.9767C133.592 37.2615 132.177 36.2904 131.029 35.0635C129.88 33.8366 129.008 32.3956 128.413 30.7406C127.823 29.0856 127.525 27.3209 127.525 25.4466L127.52 25.4362Z" fill="#77DCB3"/>
<path d="M165.622 24.0317C164.395 24.0317 163.346 24.1309 162.49 24.3346C161.628 24.5329 160.798 24.9141 159.994 25.4727C159.482 25.8329 159.065 26.3237 158.751 26.945C158.438 27.5715 158.282 28.1615 158.282 28.7201V38.739H153.557V20.137H158.282V22.0791C159.31 21.3221 160.453 20.7635 161.717 20.4032C162.98 20.0482 164.28 19.8655 165.622 19.8655V24.0213V24.0317Z" fill="#77DCB3"/>
<path d="M184.762 35.69C184.428 36.1389 183.994 36.5618 183.472 36.9639C182.945 37.3659 182.334 37.7313 181.629 38.055C180.925 38.3787 180.126 38.6345 179.233 38.8277C178.34 39.0157 177.38 39.1149 176.351 39.1149C174.9 39.1149 173.579 38.8747 172.399 38.3944C171.214 37.914 170.19 37.251 169.334 36.4C168.473 35.549 167.81 34.5414 167.34 33.3667C166.87 32.192 166.635 30.9128 166.635 29.5293C166.635 28.1458 166.859 26.8614 167.303 25.6763C167.752 24.4912 168.394 23.4679 169.23 22.6116C170.065 21.7502 171.067 21.0767 172.232 20.5859C173.391 20.0952 174.701 19.8498 176.153 19.8498C177.604 19.8498 178.883 20.0952 180.058 20.5859C181.233 21.0767 182.235 21.7554 183.076 22.6116C183.911 23.4731 184.553 24.4964 185.002 25.6763C185.451 26.8614 185.67 28.1458 185.67 29.5293V31.341H171.527C171.819 32.547 172.378 33.492 173.203 34.1707C174.028 34.8546 175.077 35.194 176.351 35.194C177.557 35.194 178.659 34.9747 179.651 34.5414C180.643 34.108 181.431 33.5442 182.016 32.8498L184.762 35.7004V35.69ZM176.147 23.7916C174.874 23.7916 173.861 24.1205 173.114 24.7731C172.367 25.4257 171.845 26.3602 171.558 27.5767H180.742C180.476 26.496 179.959 25.5928 179.202 24.8723C178.439 24.1518 177.427 23.7916 176.153 23.7916H176.147Z" fill="#77DCB3"/>
<path d="M202.429 38.7442V37.0004C201.646 37.7575 200.811 38.29 199.918 38.5928C199.025 38.8956 198.106 39.047 197.172 39.047C195.788 39.047 194.488 38.8121 193.282 38.3422C192.076 37.8723 191.032 37.2145 190.15 36.3635C189.267 35.5125 188.573 34.5048 188.072 33.3301C187.571 32.1554 187.32 30.8763 187.32 29.4928C187.32 28.1093 187.571 26.8249 188.072 25.6398C188.573 24.4546 189.267 23.4314 190.15 22.5751C191.032 21.7137 192.076 21.0454 193.282 20.5651C194.488 20.0848 195.783 19.8446 197.172 19.8446C198.112 19.8446 199.025 20.0117 199.918 20.3458C200.811 20.6799 201.651 21.2281 202.429 21.9852V20.1422H207.154V38.7442H202.429ZM197.151 23.7968C196.368 23.7968 195.653 23.9482 195.016 24.251C194.379 24.5538 193.836 24.9663 193.387 25.4936C192.938 26.0209 192.593 26.6265 192.343 27.3209C192.097 28.0153 191.972 28.741 191.972 29.498C191.972 30.255 192.097 31.0069 192.343 31.6751C192.588 32.3434 192.938 32.9386 193.387 33.4502C193.836 33.9619 194.379 34.3691 195.016 34.6562C195.653 34.9486 196.368 35.0896 197.151 35.0896C197.934 35.0896 198.649 34.9434 199.286 34.6562C199.923 34.3639 200.471 33.9619 200.936 33.4502C201.396 32.9386 201.751 32.3434 201.996 31.6751C202.241 31.0069 202.367 30.2812 202.367 29.498C202.367 28.7149 202.241 28.0101 201.996 27.3209C201.751 26.6265 201.396 26.0209 200.936 25.4936C200.477 24.9663 199.928 24.5538 199.286 24.251C198.649 23.9482 197.934 23.7968 197.151 23.7968Z" fill="#77DCB3"/>
<path d="M216.996 32.406C216.996 33.257 217.152 33.9253 217.465 34.416C217.779 34.9068 218.29 35.1522 219.006 35.1522C219.585 35.1522 220.112 34.9747 220.582 34.6144C221.052 34.2594 221.465 33.8104 221.825 33.2727L224.571 35.9562C223.12 38.0341 221.308 39.0731 219.141 39.0731C216.797 39.0731 215.064 38.4622 213.947 37.2458C212.829 36.0293 212.271 34.3586 212.271 32.2337V24.157H209.185V20.1369H212.271V12.8956H216.996V20.1369H222.525V24.157H216.996V32.4008V32.406Z" fill="#77DCB3"/>
<path d="M245.204 29.5241C245.204 30.9077 244.959 32.1868 244.468 33.3615C243.977 34.5362 243.283 35.5438 242.39 36.3948C241.497 37.2458 240.427 37.9089 239.19 38.3892C237.952 38.8695 236.595 39.1097 235.117 39.1097C233.64 39.1097 232.288 38.8695 231.045 38.3892C229.808 37.9089 228.743 37.2458 227.86 36.3948C226.978 35.5438 226.289 34.5362 225.798 33.3615C225.307 32.1868 225.062 30.9077 225.062 29.5241C225.062 28.1406 225.307 26.8563 225.798 25.6711C226.289 24.486 226.978 23.4627 227.86 22.6065C228.743 21.745 229.802 21.0715 231.045 20.5807C232.288 20.09 233.64 19.8446 235.117 19.8446C236.595 19.8446 237.947 20.09 239.19 20.5807C240.432 21.0715 241.497 21.7502 242.39 22.6065C243.283 23.4679 243.977 24.4912 244.468 25.6711C244.959 26.8563 245.204 28.1406 245.204 29.5241ZM235.117 23.7603C234.313 23.7603 233.593 23.9169 232.956 24.2301C232.319 24.5434 231.771 24.9611 231.311 25.4884C230.852 26.0157 230.502 26.6265 230.257 27.3314C230.011 28.0362 229.886 28.7671 229.886 29.5241C229.886 30.2812 230.006 31.0382 230.257 31.7169C230.502 32.4008 230.852 32.996 231.311 33.5077C231.771 34.0193 232.319 34.4318 232.956 34.7293C233.593 35.0269 234.313 35.1836 235.117 35.1836C235.921 35.1836 236.647 35.0322 237.294 34.7293C237.942 34.4265 238.495 34.0193 238.955 33.5077C239.414 32.996 239.764 32.3956 240.009 31.7169C240.255 31.0382 240.38 30.302 240.38 29.5241C240.38 28.7462 240.255 28.0309 240.009 27.3314C239.764 26.6265 239.409 26.0157 238.955 25.4884C238.495 24.9611 237.942 24.5434 237.294 24.2301C236.647 23.9169 235.921 23.7603 235.117 23.7603Z" fill="#77DCB3"/>
<path d="M259.77 24.0317C258.543 24.0317 257.499 24.1309 256.638 24.3346C255.776 24.5329 254.946 24.9141 254.142 25.4727C253.631 25.8329 253.213 26.3237 252.9 26.945C252.586 27.5715 252.43 28.1615 252.43 28.7201V38.739H247.705V20.137H252.43V22.0791C253.458 21.3221 254.602 20.7635 255.865 20.4032C257.129 20.0482 258.429 19.8655 259.77 19.8655V24.0213V24.0317Z" fill="#77DCB3"/>
</g>
<path d="M8.12 72.08V92C12.76 91.88 17.76 91.48 22.92 90.48L23.44 94.8C17.32 96.08 11.4 96.4 6.04 96.4H2.84V72.08H8.12ZM35.72 82.48V86.84H30.56V105.36H25.28V68.56H30.56V82.48H35.72ZM51.4569 85.24V75.8H44.2569V85.24H51.4569ZM56.6569 71.64V89.4H39.0969V71.64H56.6569ZM48.5369 92.84V100.6H68.3369V104.8H43.2569V92.84H48.5369ZM67.0169 79.24H71.8969V83.56H67.0169V95.48H61.7369V68.6H67.0169V79.24ZM86.1538 71.04C91.9138 71.04 96.3138 74.84 96.3138 80.12C96.3138 85.44 91.9138 89.2 86.1538 89.2C80.3938 89.2 76.0338 85.44 76.0338 80.12C76.0338 74.84 80.3938 71.04 86.1538 71.04ZM86.1538 75.56C83.3138 75.56 81.1538 77.24 81.1538 80.12C81.1538 83 83.3138 84.68 86.1538 84.68C88.9938 84.68 91.1538 83 91.1538 80.12C91.1538 77.24 88.9938 75.56 86.1538 75.56ZM99.7538 68.56H105.034V105.52H99.7538V68.56ZM75.1538 98.04L74.4738 93.76C80.9538 93.76 89.9938 93.72 97.7538 92.56L98.0738 96.36C90.1538 97.96 81.5138 98.04 75.1538 98.04ZM126.653 76.16V92.36C133.093 92.32 137.213 92.12 141.653 91.28L142.133 95.64C137.133 96.6 132.453 96.76 124.613 96.76H121.373V71.88H139.173V76.16H126.653ZM144.413 68.6H149.693V105.56H144.413V68.6ZM169.71 76.48V78.52C169.71 84.52 172.67 90.88 178.83 93.44L175.95 97.6C171.67 95.76 168.75 92.16 167.11 87.72C165.47 92.52 162.51 96.56 158.19 98.52L155.19 94.32C161.35 91.56 164.35 84.8 164.35 78.52V76.48H156.67V72.12H177.31V76.48H169.71ZM180.71 68.6H185.99V105.44H180.71V68.6ZM217.287 88.08V80.56H211.447V76.4H217.287V68.6H222.567V88.08H217.287ZM211.687 82.52L212.087 86.64C207.247 87.32 203.127 87.36 196.327 87.36H193.447V70.64H210.447V74.72H198.687V77H209.327V80.84H198.687V83.24C203.967 83.2 207.527 83.12 211.687 82.52ZM203.527 101.2H223.607V105.16H198.327V95.4H217.327V93.4H198.247V89.44H222.567V99.12H203.527V101.2ZM258.306 71.84V76H236.626V71.84H244.786V68.4H250.106V71.84H258.306ZM243.466 83.92C243.466 85.8 245.066 86.72 247.466 86.72C249.826 86.72 251.466 85.8 251.466 83.92C251.466 82.08 249.826 81.16 247.466 81.16C245.066 81.16 243.466 82.08 243.466 83.92ZM256.506 83.92C256.506 87.96 252.786 90.72 247.466 90.72C242.186 90.72 238.426 87.96 238.426 83.92C238.426 79.92 242.186 77.16 247.466 77.16C252.786 77.16 256.506 79.92 256.506 83.92ZM241.066 97.44V93.2H265.626V105.48H260.346V97.44H241.066ZM270.506 78.08V82.44H265.626V91.68H260.346V68.6H265.626V78.08H270.506ZM304.563 78.92L302.683 83C296.403 82.24 291.923 79.64 289.563 76.12C287.243 79.64 282.683 82.2 276.403 83L274.563 78.92C282.843 77.96 286.843 73.88 286.843 70.12V69H292.283V70.12C292.283 73.84 296.283 78 304.563 78.92ZM296.803 100.92V97.72H282.043V100.92H296.803ZM296.803 93.76V90.68H302.003V105H276.803V90.68H282.043V93.76H296.803ZM272.923 84.68H306.203V88.84H272.923V84.68ZM322.74 76.48V78.52C322.74 84.12 325.66 90.64 331.7 93.44L328.78 97.6C324.7 95.72 321.82 92.04 320.18 87.68C318.54 92.48 315.58 96.52 311.38 98.52L308.42 94.32C314.46 91.52 317.46 84.6 317.46 78.52V76.48H309.82V72.12H330.06V76.48H322.74ZM343.42 82.64V87H338.06V105.44H332.78V68.6H338.06V82.64H343.42ZM359.157 91.48V97.08H365.597V91.48H359.157ZM370.797 97.08H378.877V101.4H345.477V97.08H353.957V91.48H349.357V79.08H369.917V75.16H349.317V70.96H375.117V83.2H354.597V87.24H375.957V91.48H370.797V97.08ZM15.56 124.4V125.68C15.56 132.16 18.48 138.96 24.6 141.76L21.56 145.92C17.4 143.88 14.56 140.08 12.96 135.48C11.4 140.44 8.52 144.52 4.28 146.64L1.16 142.48C7.32 139.6 10.24 132.52 10.24 125.68V124.4H2.68V120.12H23.12V124.4H15.56ZM27.36 116.56H32.64V153.52H27.36V133.72H20.88V129.44H27.36V116.56ZM60.0169 133.44L57.3369 137.52C53.3369 136.24 50.5769 133.64 48.9769 130.4C47.3369 133.96 44.4569 136.8 40.2169 138.2L37.4569 134.08C43.4569 132.12 46.0569 127.52 46.1769 122.96H38.8569V118.76H58.7769V122.96H51.5769C51.6969 127.2 54.2169 131.56 60.0169 133.44ZM42.4169 144.64V140.44H67.0169V153.48H61.7369V144.64H42.4169ZM71.8969 125.48V129.84H67.0169V138.8H61.7369V116.6H67.0169V125.48H71.8969ZM93.5938 144.96H107.674V149.28H74.3138V144.96H88.3138V137.28H78.1938V119.12H103.834V123.36H83.5138V133.04H104.114V137.28H93.5938V144.96ZM143.931 134.4V138.64H129.771V153.44H124.411V138.64H110.651V134.4H133.851C134.771 129.72 134.851 126.12 134.851 122.96H114.451V118.72H140.011V122.04C140.011 125.48 140.011 129.24 139.091 134.4H143.931Z" fill="white"/>
<defs>
<clipPath id="clip0_2105_31668">
<rect width="260" height="45" fill="white"/>
</clipPath>
</defs>
</svg>
