<svg width="24" height="24" viewBox="0 0 24 24" fill="none" xmlns="http://www.w3.org/2000/svg">
<path fill="#F0AD00" d="M10.6,3.3c0.5-1.2,2.3-1.2,2.8,0l1.7,4.1c0.2,0.5,0.7,0.9,1.3,0.9l4.4,0.4c1.3,0.1,1.9,1.8,0.9,2.6l-3.4,2.9
	c-0.4,0.4-0.6,0.9-0.5,1.5l1,4.3c0.3,1.3-1.1,2.3-2.2,1.6l-3.8-2.3c-0.5-0.3-1.1-0.3-1.6,0l-3.8,2.3c-1.1,0.7-2.6-0.3-2.2-1.6l1-4.3
	c0.1-0.5-0.1-1.1-0.5-1.5l-3.4-2.9c-1-0.9-0.5-2.5,0.9-2.6l4.4-0.4c0.6,0,1-0.4,1.3-0.9L10.6,3.3z"/>
<path fill="#FFDA18" d="M4.9,10.5L8,10.2c0,0,1.4-0.3,1.7-0.7s0.9-1.1,0.9-1.1l1.3-3l1.3,3c0,0,0.3,0.7,1,1.1
	c0.6,0.4,1.5,0.7,1.5,0.7l3.2,0.3l-2.5,2.2c0,0-1,1.1-1,2.1c0,0,0,1,0.1,1.2l0.6,2.9L14,17.4c0,0-1.6-1.4-3.4-0.3l-3,1.7l0.8-3.3
	c0,0,0.4-1.5-1.1-2.8L4.9,10.5z"/>
</svg>
