<svg width="68" height="68" viewBox="0 0 68 68" fill="none" xmlns="http://www.w3.org/2000/svg">
<path d="M53 32V36C53 38.0082 52.9956 38.555 52.9733 38.9532C52.4881 47.5919 45.5919 54.4881 36.9532 54.9733C36.555 54.9956 36.0082 55 34 55C31.9918 55 31.445 54.9956 31.0468 54.9733C22.4081 54.4881 15.5119 47.5919 15.0267 38.9532C15.0044 38.555 15 38.0082 15 36V32C15 29.9918 15.0044 29.445 15.0267 29.0468C15.5119 20.4081 22.4081 13.5119 31.0468 13.0267C31.445 13.0044 31.9918 13 34 13C36.0082 13 36.555 13.0044 36.9532 13.0267C45.5919 13.5119 52.4881 20.4081 52.9733 29.0468C52.9956 29.445 53 29.9918 53 32ZM3.04562 28.374C2.99999 29.1864 3 30.1401 3 31.9531V32V36V36.0469C3 37.8599 2.99999 38.8136 3.04562 39.626C3.87321 54.3627 15.6373 66.1268 30.374 66.9544C31.1864 67 32.1401 67 33.9531 67H34H34.0469C35.8599 67 36.8136 67 37.626 66.9544C52.3627 66.1268 64.1268 54.3627 64.9544 39.626C65 38.8136 65 37.8599 65 36.0469V36V32V31.9531C65 30.1401 65 29.1864 64.9544 28.374C64.1268 13.6373 52.3627 1.87321 37.626 1.04562C36.8136 0.999995 35.8599 0.999997 34.0469 1H34H33.9531C32.1401 0.999997 31.1864 0.999995 30.374 1.04562C15.6373 1.87321 3.87321 13.6373 3.04562 28.374Z" fill="#F26600" stroke="#F22C00" stroke-width="2"/>
</svg>
