<svg width="48" height="48" viewBox="0 0 48 48" fill="none" xmlns="http://www.w3.org/2000/svg">
<rect width="48" height="48" rx="8" fill="#9F8AF0"/>
<path fill="#C5B9F6" enable-background="new" d="M40,0H8C3.6,0,0,3.6,0,8v15.3C6.6,26.9,14.9,29,24,29 s17.4-2.1,24-5.7V8C48,3.6,44.4,0,40,0z"/>
<path d="M32.2103 21.8001C33.4253 26.3345 30.7343 30.9954 26.1999 32.2104C21.6654 33.4254 17.0045 30.7345 15.7895 26.2C15.2823 24.3071 15.454 22.4019 16.1547 20.7271C16.6341 19.5812 17.3602 18.5467 18.2827 17.7067C19.7119 16.4053 19.8155 14.1916 18.514 12.7624C17.2126 11.3332 14.9989 11.2296 13.5697 12.531C11.886 14.0642 10.5673 15.9452 9.69703 18.0255C8.41943 21.0792 8.10592 24.5703 9.02805 28.0117C11.2437 36.2805 19.7429 41.1875 28.0116 38.9719C36.2803 36.7563 41.1874 28.2571 38.9718 19.9883C38.3624 17.7144 37.2755 15.692 35.8487 14.0029L37.0786 12.1207C37.9959 10.7168 36.8819 8.87518 35.2126 9.03589L25.7806 9.94391C24.5049 10.0667 23.6722 11.341 24.0721 12.5587L27.0284 21.5613C27.5516 23.1546 29.6856 23.4352 30.6029 22.0313L31.6881 20.3704C31.9005 20.8222 32.0762 21.2996 32.2103 21.8001Z" fill="white" stroke="#674DCC" stroke-width="2" stroke-linecap="round" stroke-linejoin="round"/>
</svg>
