<svg width="68" height="68" viewBox="0 0 68 68" fill="none" xmlns="http://www.w3.org/2000/svg">
<path d="M61.0624 4.58444C58.6237 2.34087 54.828 2.49903 52.5844 4.93769L34 25.1381L15.4156 4.93769C13.172 2.49903 9.37635 2.34087 6.93769 4.58444C4.49903 6.82801 4.34088 10.6237 6.58444 13.0624L25.8471 34L6.58444 54.9377C4.34087 57.3764 4.49903 61.172 6.93769 63.4156C9.37635 65.6592 13.172 65.501 15.4156 63.0624L34 42.8619L52.5844 63.0624C54.828 65.501 58.6237 65.6592 61.0624 63.4156C63.501 61.172 63.6592 57.3764 61.4156 54.9377L42.153 34L61.4156 13.0624C63.6592 10.6237 63.501 6.82801 61.0624 4.58444Z" fill="#1F6FE7" stroke="#0754C8" stroke-width="2"/>
</svg>
