<svg width="48" height="48" viewBox="0 0 48 48" fill="none" xmlns="http://www.w3.org/2000/svg">
<rect width="48" height="48" rx="8" fill="#9F8AF0"/>
<path fill="#C5B9F6" enable-background="new" d="M40,0H8C3.6,0,0,3.6,0,8v15.3C6.6,26.9,14.9,29,24,29 s17.4-2.1,24-5.7V8C48,3.6,44.4,0,40,0z"/>
<path d="M37.5888 18.3554C38.8897 16.9257 38.7852 14.7121 37.3554 13.4112C35.9257 12.1103 33.712 12.2148 32.4112 13.6446L20.0956 27.1806L15.9923 20.4178C14.9896 18.7652 12.837 18.2384 11.1844 19.2411C9.53185 20.2438 9.00501 22.3963 10.0077 24.0489L16.5404 34.8156C17.1129 35.7592 18.097 36.3775 19.1957 36.4838C20.2943 36.59 21.3787 36.1718 22.1215 35.3554L37.5888 18.3554Z" fill="white" stroke="#674DCC" stroke-width="2" stroke-linecap="round" stroke-linejoin="round"/>
</svg>
