<svg width="24" height="24" viewBox="0 0 24 24" fill="none" xmlns="http://www.w3.org/2000/svg">
<g clip-path="url(#clip0_136_2645)">
<path d="M10.615 3.32989C11.1274 2.09795 12.8726 2.09795 13.385 3.32989L15.0867 7.42131C15.3027 7.94066 15.7911 8.29552 16.3518 8.34047L20.7688 8.69458C22.0988 8.8012 22.6381 10.461 21.6248 11.329L18.2595 14.2117C17.8323 14.5776 17.6458 15.1518 17.7763 15.6989L18.8044 20.0092C19.114 21.307 17.7021 22.3328 16.5635 21.6374L12.7819 19.3276C12.3019 19.0344 11.6981 19.0344 11.2181 19.3276L7.43653 21.6374C6.29788 22.3328 4.886 21.307 5.19558 20.0092L6.22374 15.6989C6.35425 15.1518 6.16769 14.5776 5.74051 14.2117L2.3752 11.329C1.36189 10.461 1.90118 8.8012 3.23116 8.69458L7.64819 8.34047C8.20888 8.29552 8.69729 7.94066 8.9133 7.42131L10.615 3.32989Z" fill="#BDBDBD"/>
</g>
<defs>
<clipPath id="clip0_136_2645">
<rect width="24" height="24" fill="white"/>
</clipPath>
</defs>
</svg>
