<svg width="24" height="24" viewBox="0 0 24 24" fill="none" xmlns="http://www.w3.org/2000/svg">
<mask id="mask0_247_72920" style="mask-type:alpha" maskUnits="userSpaceOnUse" x="2" y="7" width="14" height="14">
<rect x="2.8" y="7.8" width="12.4" height="12.4" rx="1.2" stroke="#D8D8D8" stroke-width="1.6"/>
</mask>
<g mask="url(#mask0_247_72920)">
<path d="M-1 5H16V16H-1V5Z" fill="#222629"/>
<path d="M-1 21V5L11 5L11 21L-1 21Z" fill="#222629"/>
</g>
<mask id="mask1_247_72920" style="mask-type:alpha" maskUnits="userSpaceOnUse" x="7" y="1" width="15" height="15">
<path d="M7 1H22V7.82353H7V1Z" fill="#D9D9D9"/>
<path d="M15.1765 16L15.1765 1H22V16H15.1765Z" fill="#D9D9D9"/>
</mask>
<g mask="url(#mask1_247_72920)">
<rect x="8.76562" y="1.88281" width="12.3529" height="12.3529" stroke="#222629" stroke-width="1.6" stroke-linejoin="round" stroke-dasharray="1.8 1.6"/>
</g>
<path d="M8.66065 13.6606L8.93099 12.9077C8.63956 12.8031 8.31392 12.876 8.09496 13.0949C7.87601 13.3139 7.80307 13.6395 7.90771 13.931L8.66065 13.6606ZM16.9629 16.6416L17.2807 17.3758C17.582 17.2454 17.773 16.9442 17.7625 16.6161C17.752 16.288 17.5422 15.9996 17.2333 15.8887L16.9629 16.6416ZM11.6416 21.9629L10.8887 22.2333C10.9996 22.5422 11.288 22.7521 11.6161 22.7625C11.9442 22.773 12.2454 22.582 12.3758 22.2807L11.6416 21.9629ZM12.7778 19.3382L13.3434 18.7726C13.1561 18.5852 12.8881 18.5028 12.6279 18.5524C12.3676 18.602 12.1488 18.7773 12.0436 19.0205L12.7778 19.3382ZM17.3505 20.8703L17.9162 20.3046L17.3505 20.8703ZM14.2902 17.8099L13.7245 17.2442C13.5745 17.3943 13.4902 17.5978 13.4902 17.8099C13.4902 18.0221 13.5745 18.2256 13.7245 18.3756L14.2902 17.8099ZM14.3102 17.7899L13.9924 17.0557C13.8999 17.0957 13.8158 17.1529 13.7446 17.2242L14.3102 17.7899ZM8.3903 14.4136L16.6926 17.3946L17.2333 15.8887L8.93099 12.9077L8.3903 14.4136ZM12.3946 21.6926L9.41358 13.3903L7.90771 13.931L10.8887 22.2333L12.3946 21.6926ZM12.0436 19.0205L10.9075 21.6451L12.3758 22.2807L13.5119 19.656L12.0436 19.0205ZM16.3959 21.825L13.3434 18.7726L12.2121 19.9039L15.2645 22.9564L16.3959 21.825ZM15.9387 21.825C16.065 21.6988 16.2696 21.6988 16.3959 21.825L15.2645 22.9564C15.7631 23.455 16.5715 23.455 17.0701 22.9564L15.9387 21.825ZM16.7849 20.9788L15.9387 21.825L17.0701 22.9564L17.9162 22.1102L16.7849 20.9788ZM16.7849 21.436C16.6586 21.3098 16.6586 21.1051 16.7849 20.9788L17.9162 22.1102C18.4148 21.6116 18.4148 20.8032 17.9162 20.3046L16.7849 21.436ZM13.7245 18.3756L16.7849 21.436L17.9162 20.3046L14.8559 17.2442L13.7245 18.3756ZM13.7446 17.2242L13.7245 17.2442L14.8559 18.3756L14.8759 18.3556L13.7446 17.2242ZM16.6451 15.9075L13.9924 17.0557L14.628 18.524L17.2807 17.3758L16.6451 15.9075Z" fill="#222629"/>
</svg>
