<svg width="42" height="42" viewBox="0 0 42 42" fill="none" xmlns="http://www.w3.org/2000/svg">
<g opacity="0.4">
<mask id="mask0_247_73534" style="mask-type:alpha" maskUnits="userSpaceOnUse" x="11" y="9" width="24" height="24">
<path d="M11 33L11 9L21.9176 9L21.9176 33L11 33Z" fill="#D9D9D9"/>
<path d="M35 21.9176L11 21.9176L11 9L35 9L35 21.9176Z" fill="#D9D9D9"/>
</mask>
<g mask="url(#mask0_247_73534)">
<rect x="31.8" y="31.8" width="19.6" height="19.6" transform="rotate(-180 31.8 31.8)" stroke="#5B5E61" stroke-width="1.6" stroke-linejoin="round" stroke-dasharray="1.8 1.6"/>
</g>
<rect x="11" y="11" width="3" height="3" fill="#5B5E61"/>
<rect x="11" y="30" width="3" height="3" fill="#5B5E61"/>
<path d="M23.6606 22.6606L23.931 21.9077C23.6396 21.8031 23.3139 21.876 23.095 22.0949C22.876 22.3139 22.8031 22.6395 22.9077 22.931L23.6606 22.6606ZM31.9629 25.6416L32.2807 26.3758C32.582 26.2454 32.773 25.9442 32.7625 25.6161C32.752 25.288 32.5422 24.9996 32.2333 24.8887L31.9629 25.6416ZM26.6416 30.9629L25.8887 31.2333C25.9996 31.5422 26.288 31.7521 26.6161 31.7625C26.9442 31.773 27.2454 31.582 27.3758 31.2807L26.6416 30.9629ZM27.7778 28.3382L28.3434 27.7726C28.1561 27.5852 27.8881 27.5028 27.6279 27.5524C27.3676 27.602 27.1488 27.7773 27.0436 28.0205L27.7778 28.3382ZM29.2902 26.8099L28.7245 26.2442C28.4121 26.5567 28.4121 27.0632 28.7245 27.3756L29.2902 26.8099ZM29.3102 26.7899L28.9924 26.0557C28.8999 26.0957 28.8158 26.1529 28.7446 26.2242L29.3102 26.7899ZM23.3903 23.4136L31.6926 26.3946L32.2333 24.8887L23.931 21.9077L23.3903 23.4136ZM27.3946 30.6926L24.4136 22.3903L22.9077 22.931L25.8887 31.2333L27.3946 30.6926ZM27.0436 28.0205L25.9075 30.6451L27.3758 31.2807L28.5119 28.656L27.0436 28.0205ZM31.3959 30.825L28.3434 27.7726L27.2121 28.9039L30.2645 31.9564L31.3959 30.825ZM30.9387 30.825C31.065 30.6988 31.2696 30.6988 31.3959 30.825L30.2645 31.9564C30.7631 32.455 31.5715 32.455 32.0701 31.9564L30.9387 30.825ZM31.7849 29.9788L30.9387 30.825L32.0701 31.9564L32.9162 31.1102L31.7849 29.9788ZM31.7849 30.436C31.6586 30.3098 31.6586 30.1051 31.7849 29.9788L32.9162 31.1102C33.4148 30.6116 33.4148 29.8032 32.9162 29.3046L31.7849 30.436ZM28.7245 27.3756L31.7849 30.436L32.9162 29.3046L29.8559 26.2442L28.7245 27.3756ZM28.7446 26.2242L28.7245 26.2442L29.8559 27.3756L29.8759 27.3556L28.7446 26.2242ZM31.6451 24.9075L28.9924 26.0557L29.628 27.524L32.2807 26.3758L31.6451 24.9075Z" fill="#5B5E61"/>
<rect x="30" y="11" width="3" height="3" fill="#5B5E61"/>
</g>
</svg>
