<svg width="24" height="24" viewBox="0 0 24 24" fill="none" xmlns="http://www.w3.org/2000/svg">
<mask id="mask0_247_73546" style="mask-type:alpha" maskUnits="userSpaceOnUse" x="1" y="1" width="22" height="22">
<path fill-rule="evenodd" clip-rule="evenodd" d="M4.65584 17.8677C6.37838 20.0209 9.02814 21.4 12 21.4C14.6937 21.4 17.1207 20.269 18.8366 18.4515C19.6607 17.5786 20.319 16.5491 20.762 15.4121L16.5957 11.6624L11.6252 17.8883C11.4845 18.0645 11.2761 18.1731 11.0511 18.1875C10.8261 18.2019 10.6055 18.1207 10.4435 17.9639L7.5 15.1136L4.65584 17.8677ZM3.75311 16.5146C3.01803 15.1747 2.6 13.6362 2.6 12C2.6 6.80852 6.80852 2.6 12 2.6C17.1915 2.6 21.4 6.80852 21.4 12C21.4 12.5794 21.3477 13.1463 21.2475 13.6965L17.0352 9.90536C16.8714 9.75794 16.654 9.68462 16.4344 9.7027C16.2147 9.72077 16.0123 9.82865 15.8748 10.0009L10.9241 16.202L8.05651 13.4253C7.7463 13.1249 7.2537 13.1249 6.94349 13.4253L3.75311 16.5146ZM20 19.5499C21.8598 17.5799 23 14.9231 23 12C23 5.92487 18.0751 1 12 1C5.92487 1 1 5.92487 1 12C1 18.0751 5.92487 23 12 23C15.1521 23 17.9945 21.6742 20 19.5499ZM12 8.88916C12 9.99373 11.1046 10.8892 10 10.8892C8.89543 10.8892 8 9.99373 8 8.88916C8 7.78459 8.89543 6.88916 10 6.88916C11.1046 6.88916 12 7.78459 12 8.88916Z" fill="#D8D8D8"/>
</mask>
<g mask="url(#mask0_247_73546)">
<path d="M1 23V1H23V12L12 23H1Z" fill="#222629"/>
</g>
<path d="M23.0009 12L12.03 23C11.8638 22 11.8095 18.7 15.001 15.5C18.1925 12.3 21.8373 12 23.0009 12Z" fill="#222629"/>
</svg>
