<svg width="48" height="48" viewBox="0 0 48 48" fill="none" xmlns="http://www.w3.org/2000/svg">
  <path opacity=".2" d="M24 47.55c10.884 0 19.706-8.823 19.706-19.706C43.706 16.96 34.885 8.137 24 8.137c-10.883 0-19.706 8.823-19.706 19.707C4.294 38.727 13.117 47.55 24 47.55Z" fill="#000"/>
  <path d="M24 41.3c10.852 0 19.65-8.797 19.65-19.65C43.65 10.798 34.853 2 24 2 13.148 2 4.35 10.798 4.35 21.65 4.35 32.503 13.148 41.3 24 41.3Z" fill="url(#a)" stroke="#065066"/>
  <mask id="b" style="mask-type:alpha" maskUnits="userSpaceOnUse" x="4" y="2" width="40" height="39">
    <path d="M24 40.794c10.573 0 19.143-8.571 19.143-19.144 0-10.573-8.57-19.143-19.143-19.143S4.857 11.077 4.857 21.65 13.427 40.794 24 40.794Z" fill="#fff"/>
  </mask>
  <g mask="url(#b)">
    <path d="M24 41.3c10.852 0 19.65-8.797 19.65-19.65C43.65 10.798 34.853 2 24 2 13.148 2 4.35 10.798 4.35 21.65 4.35 32.503 13.148 41.3 24 41.3Z" stroke="#065066" stroke-width="1.013"/>
    <path opacity=".4" d="M22.874 25.028c13.682 0 24.774-11.091 24.774-24.773 0-13.683-11.092-24.774-24.774-24.774S-1.9-13.428-1.9.255c0 13.682 11.092 24.773 24.774 24.773Z" fill="#fff"/>
  </g>
  <path d="m12.046 7.25-.887.693a1.126 1.126 0 1 0 1.386 1.775l.887-.693a1.126 1.126 0 1 0-1.386-1.775Z" fill="#fff"/>
  <mask id="c" maskUnits="userSpaceOnUse" x="11.739" y="9.389" width="25" height="25" fill="#000">
    <path fill="#fff" d="M11.739 9.389h25v25h-25z"/>
    <path fill-rule="evenodd" clip-rule="evenodd" d="M26.252 19.398v-9.009h-4.504v9.009h-9.009v4.504h9.009v9.009h4.504v-9.009h9.009v-4.504h-9.009Z"/>
  </mask>
  <path fill-rule="evenodd" clip-rule="evenodd" d="M26.252 19.398v-9.009h-4.504v9.009h-9.009v4.504h9.009v9.009h4.504v-9.009h9.009v-4.504h-9.009Z" fill="#fff"/>
  <path d="M26.252 10.39h1a1 1 0 0 0-1-1v1Zm0 9.008h-1a1 1 0 0 0 1 1v-1Zm-4.504-9.009v-1a1 1 0 0 0-1 1h1Zm0 9.009v1a1 1 0 0 0 1-1h-1Zm-9.009 0v-1a1 1 0 0 0-1 1h1Zm0 4.504h-1a1 1 0 0 0 1 1v-1Zm9.009 0h1a1 1 0 0 0-1-1v1Zm0 9.009h-1a1 1 0 0 0 1 1v-1Zm4.504 0v1a1 1 0 0 0 1-1h-1Zm0-9.009v-1a1 1 0 0 0-1 1h1Zm9.009 0v1a1 1 0 0 0 1-1h-1Zm0-4.504h1a1 1 0 0 0-1-1v1Zm-10.009-9.009v9.009h2v-9.009h-2Zm-3.504 1h4.504v-2h-4.504v2Zm1 8.009v-9.009h-2v9.009h2Zm-10.009 1h9.009v-2h-9.009v2Zm1 3.504v-4.504h-2v4.504h2Zm8.009-1h-9.009v2h9.009v-2Zm1 10.009v-9.009h-2v9.009h2Zm3.504-1h-4.504v2h4.504v-2Zm-1-8.009v9.009h2v-9.009h-2Zm10.009-1h-9.009v2h9.009v-2Zm-1-3.504v4.504h2v-4.504h-2Zm-8.009 1h9.009v-2h-9.009v2Z" fill="#065066" mask="url(#c)"/>
  <defs>
    <linearGradient id="a" x1="24" y1="2" x2="24" y2="41.3" gradientUnits="userSpaceOnUse">
      <stop stop-color="#3ACAE8"/>
      <stop offset="1" stop-color="#1B9ACD"/>
    </linearGradient>
  </defs>
</svg>