<svg width="48" height="48" viewBox="0 0 48 48" fill="none" xmlns="http://www.w3.org/2000/svg">
  <g clip-path="url(#a)">
    <path opacity=".2" fill-rule="evenodd" clip-rule="evenodd" d="M18.66 42.66c-.59 0-1.07-.479-1.07-1.069l.002-2.907c-1.01-1.633-2.263-3.006-3.762-4.625a13.95 13.95 0 0 1-3.678-10.543c.477-6.615 5.7-12.082 12.266-12.813 8.38-.934 15.468 5.63 15.468 13.859 0 3.538-1.312 6.76-3.471 9.219-1.554 1.77-2.912 3.225-4.006 4.975v2.835c0 .59-.478 1.068-1.068 1.068H18.659Zm0 0h10.68a5.34 5.34 0 1 1-10.68 0Z" fill="#000"/>
    <mask id="b" fill="#fff">
      <path fill-rule="evenodd" clip-rule="evenodd" d="M30.353 33.268C34.892 30.659 38 25.445 38 20c0-7.732-6.268-14-14-14s-14 6.268-14 14c0 5.437 3.099 10.644 7.627 13.256.925 1.345 1.57 2.863 1.373 4.244-.4 2.8 6.5 1.167 10 0-.239-.478-.27-1.864 1.353-4.232Z"/>
    </mask>
    <path fill-rule="evenodd" clip-rule="evenodd" d="M30.353 33.268C34.892 30.659 38 25.445 38 20c0-7.732-6.268-14-14-14s-14 6.268-14 14c0 5.437 3.099 10.644 7.627 13.256.925 1.345 1.57 2.863 1.373 4.244-.4 2.8 6.5 1.167 10 0-.239-.478-.27-1.864 1.353-4.232Z" fill="#fff"/>
    <path d="m30.353 33.268-.498-.867-.198.114-.129.188.825.565Zm-12.727-.012.824-.566-.128-.187-.196-.113-.5.866ZM19 37.5l-.99-.141.99.141Zm10 0 .316.949 1.094-.365-.516-1.031L29 37.5ZM37 20c0 5.083-2.913 9.969-7.145 12.401l.997 1.734C35.697 31.35 39 25.806 39 20h-2ZM24 7c7.18 0 13 5.82 13 13h2c0-8.284-6.716-15-15-15v2ZM11 20c0-7.18 5.82-13 13-13V5C15.716 5 9 11.716 9 20h2Zm7.126 12.39C13.905 29.954 11 25.075 11 20H9c0 5.798 3.293 11.333 8.127 14.123l1-1.733Zm1.864 5.251c.251-1.76-.57-3.543-1.54-4.951l-1.647 1.133c.88 1.28 1.35 2.534 1.207 3.536l1.98.282Zm8.694-1.09c-1.719.573-4.238 1.247-6.243 1.441-1.027.1-1.781.057-2.214-.092-.202-.07-.244-.133-.24-.128.017.025-.018.015.003-.13l-1.98-.283c-.08.554.014 1.105.346 1.572.318.447.776.707 1.22.86.858.296 1.972.297 3.058.192 2.22-.215 4.9-.94 6.682-1.534l-.632-1.898Zm.844-3.848c-.861 1.257-1.322 2.308-1.523 3.16-.195.827-.163 1.557.1 2.084l1.79-.894c.024.049-.08-.153.057-.731.13-.552.465-1.378 1.226-2.489l-1.65-1.13Z" fill="#065066" mask="url(#b)"/>
    <path d="M28.807 34.648h-9.614c-.59 0-1.068.478-1.068 1.068v2.136c0 .59.478 1.068 1.068 1.068h9.614c.59 0 1.068-.478 1.068-1.068v-2.136c0-.59-.478-1.068-1.068-1.068Z" fill="url(#c)" stroke="#065066" stroke-linejoin="round"/>
    <path d="M24 3.136V1M14.653 5.64l-1.068-1.85M7.811 12.483l-1.85-1.068M33.347 5.64l1.068-1.85M40.189 12.483l1.85-1.068" stroke="#065066" stroke-width="2.136" stroke-linecap="round"/>
    <path fill-rule="evenodd" clip-rule="evenodd" d="M21.841 12.75h6.432l-3.663 5.41h3.663l-8.546 10.613 2.114-7.306h-2.114l2.114-8.717Z" fill="url(#d)" stroke="#065066" stroke-linejoin="round"/>
    <mask id="e" fill="#fff">
      <path fill-rule="evenodd" clip-rule="evenodd" d="M18.69 38.436a5.344 5.344 0 1 0 10.619 0H18.691Z"/>
    </mask>
    <path fill-rule="evenodd" clip-rule="evenodd" d="M18.69 38.436a5.344 5.344 0 1 0 10.619 0H18.691Z" fill="#fff"/>
    <path d="M18.69 38.436v-1h-.892l-.101.887.994.113Zm10.62 0 .993-.113-.1-.887h-.894v1Zm-9.654.61c0-.168.01-.334.028-.497l-1.987-.226c-.027.238-.04.479-.04.723h2ZM24 43.39a4.344 4.344 0 0 1-4.344-4.344h-2A6.344 6.344 0 0 0 24 45.39v-2Zm4.344-4.344c0 2.4-1.945 4.344-4.344 4.344v2a6.344 6.344 0 0 0 6.344-6.344h-2Zm-.028-.497a4.4 4.4 0 0 1 .028.497h2c0-.244-.014-.485-.041-.723l-1.987.226Zm.993-1.113H18.691v2h10.618v-2Z" fill="#065066" mask="url(#e)"/>
  </g>
  <defs>
    <linearGradient id="c" x1="24" y1="34.648" x2="24" y2="38.92" gradientUnits="userSpaceOnUse">
      <stop stop-color="#3ACAE8"/>
      <stop offset="1" stop-color="#1B9ACD"/>
    </linearGradient>
    <linearGradient id="d" x1="24" y1="12.75" x2="24" y2="28.773" gradientUnits="userSpaceOnUse">
      <stop stop-color="#FFE35B"/>
      <stop offset=".992" stop-color="#FF9500"/>
    </linearGradient>
    <clipPath id="a">
      <path fill="#fff" d="M0 0h48v48H0z"/>
    </clipPath>
  </defs>
</svg>