<svg width="48" height="48" viewBox="0 0 48 48" fill="none" xmlns="http://www.w3.org/2000/svg">
  <path opacity=".2" d="M39.037 8.907H8.963a2.148 2.148 0 0 0-2.148 2.149v33.296c0 1.186.962 2.148 2.148 2.148h30.074a2.148 2.148 0 0 0 2.148-2.148V11.056a2.148 2.148 0 0 0-2.148-2.149Z" fill="#000"/>
  <path d="M38.5 5.148h-29a2.148 2.148 0 0 0-2.148 2.148V39.52c0 1.186.962 2.148 2.148 2.148h29a2.148 2.148 0 0 0 2.148-2.148V7.296A2.148 2.148 0 0 0 38.5 5.148Z" fill="#fff" stroke="#065066"/>
  <path d="M34.74 19.648H13.26v2.148h21.48v-2.148ZM34.74 23.944H13.26v2.149h21.48v-2.149ZM34.74 28.24H13.26v2.149h21.48V28.24ZM34.74 32.537H13.26v2.148h21.48v-2.148ZM22.926 14.278h-9.667v2.148h9.667v-2.148Z" fill="#065066"/>
  <path d="M17.018 4.611a1.611 1.611 0 1 0-3.222 0v3.222a1.611 1.611 0 1 0 3.223 0V4.611Z" fill="url(#a)" stroke="#065066" stroke-linejoin="round"/>
  <path d="M25.611 4.611a1.611 1.611 0 1 0-3.222 0v3.222a1.611 1.611 0 1 0 3.222 0V4.611Z" fill="url(#b)" stroke="#065066" stroke-linejoin="round"/>
  <path d="M34.204 4.611a1.611 1.611 0 0 0-3.223 0v3.222a1.611 1.611 0 0 0 3.223 0V4.611Z" fill="url(#c)" stroke="#065066" stroke-linejoin="round"/>
  <defs>
    <linearGradient id="a" x1="15.407" y1="3" x2="15.407" y2="9.444" gradientUnits="userSpaceOnUse">
      <stop stop-color="#3ACAE8"/>
      <stop offset="1" stop-color="#1B9ACD"/>
    </linearGradient>
    <linearGradient id="b" x1="24" y1="3" x2="24" y2="9.444" gradientUnits="userSpaceOnUse">
      <stop stop-color="#3ACAE8"/>
      <stop offset="1" stop-color="#1B9ACD"/>
    </linearGradient>
    <linearGradient id="c" x1="32.593" y1="3" x2="32.593" y2="9.444" gradientUnits="userSpaceOnUse">
      <stop stop-color="#3ACAE8"/>
      <stop offset="1" stop-color="#1B9ACD"/>
    </linearGradient>
  </defs>
</svg>