<svg width="48" height="48" viewBox="0 0 48 48" fill="none" xmlns="http://www.w3.org/2000/svg">
  <path opacity=".2" d="M31 5H17C9.82 5 4 10.82 4 18v16c0 7.18 5.82 13 13 13h14c7.18 0 13-5.82 13-13V18c0-7.18-5.82-13-13-13Z" fill="#000"/>
  <path d="M30.667 2H17.333C9.97 2 4 7.82 4 15v15c0 7.18 5.97 13 13.333 13h13.334C38.03 43 44 37.18 44 30V15c0-7.18-5.97-13-13.333-13Z" fill="url(#a)"/>
  <mask id="c" style="mask-type:alpha" maskUnits="userSpaceOnUse" x="4" y="2" width="40" height="41">
    <path d="M17.333 2.5h13.334C37.767 2.5 43.5 8.108 43.5 15v15c0 6.892-5.734 12.5-12.833 12.5H17.333C10.233 42.5 4.5 36.892 4.5 30V15c0-6.892 5.734-12.5 12.833-12.5Z" fill="url(#b)" stroke="#065066"/>
  </mask>
  <g mask="url(#c)" fill-rule="evenodd" clip-rule="evenodd">
    <path opacity=".4" d="M13 21h22c5.523 0 10-4.477 10-10V1H3v10c0 5.523 4.477 10 10 10Z" fill="#C6F5FF"/>
    <path d="M31 42c6.627 0 12-5.373 12-12v-2l-.004.288C42.843 34.23 37.98 39 32 39H16C9.925 39 5 34.075 5 28v2c0 6.627 5.373 12 12 12h14Z" fill="#066D9D"/>
  </g>
  <path d="m13.53 4.689-1.841.781a1 1 0 1 0 .781 1.841l1.841-.781a1 1 0 1 0-.781-1.841Z" fill="#fff"/>
  <rect x="4.5" y="2.5" width="39" height="40" rx="12.5" stroke="#065066"/>
  <path fill-rule="evenodd" clip-rule="evenodd" d="M25 7.5c2.742 0 5.328 1.351 7.25 3.599 1.94 2.266 3.203 5.443 3.252 9.023l-4 .435c.05-2.438-.721-4.65-1.957-6.284-1.15-1.522-2.702-2.548-4.361-2.752l-2.177-.02c-1.578.064-3.124.994-4.312 2.475-1.243 1.55-2.096 3.708-2.202 6.181l-3.982.394c-.134-3.508 1.017-6.733 2.937-9.097 1.859-2.29 4.436-3.769 7.27-3.941L25 7.5Z" fill="#fff" stroke="#065066"/>
  <path fill-rule="evenodd" clip-rule="evenodd" d="M15 17.5c1.243 0 2.368.504 3.182 1.318A4.486 4.486 0 0 1 19.5 22v8a4.486 4.486 0 0 1-1.318 3.182A4.486 4.486 0 0 1 15 34.5a4.509 4.509 0 0 1-4.27-3.078A2.898 2.898 0 0 1 8.5 28.6v-5.2a2.9 2.9 0 0 1 2.23-2.822A4.506 4.506 0 0 1 15 17.5ZM33 34.5a4.486 4.486 0 0 1-3.182-1.318A4.486 4.486 0 0 1 28.5 30v-8c0-1.243.504-2.368 1.318-3.182A4.486 4.486 0 0 1 33 17.5a4.509 4.509 0 0 1 4.27 3.078A2.898 2.898 0 0 1 39.5 23.4v5.2a2.9 2.9 0 0 1-2.23 2.822A4.506 4.506 0 0 1 33 34.5Z" fill="#fff" stroke="#065066"/>
  <path d="M11 20v12M37 20v12" stroke="#065066" stroke-linecap="round"/>
  <defs>
    <linearGradient id="a" x1="24" y1="2" x2="24" y2="43" gradientUnits="userSpaceOnUse">
      <stop stop-color="#3ACAE8"/>
      <stop offset="1" stop-color="#1B9ACD"/>
    </linearGradient>
    <linearGradient id="b" x1="24" y1="2" x2="24" y2="43" gradientUnits="userSpaceOnUse">
      <stop stop-color="#3ACAE8"/>
      <stop offset="1" stop-color="#1B9ACD"/>
    </linearGradient>
  </defs>
</svg>