<svg width="48" height="48" viewBox="0 0 48 48" fill="none" xmlns="http://www.w3.org/2000/svg">
  <path opacity=".2" fill-rule="evenodd" clip-rule="evenodd" d="M9.16 7.088a4 4 0 0 0-4 4v26.307a4 4 0 0 0 4 4h18.276a9.21 9.21 0 0 0-.253 2.15c0 .892.127 1.752.582 2.677.211.43.456.795.728 1.118a8.02 8.02 0 0 1 3.281-5.003l.233-.157a7.445 7.445 0 0 1 1.605-.785h2.717v4.976l10.1-8.206-1.616-1.313V11.088a4 4 0 0 0-4-4H9.159Z" fill="#000"/>
  <path d="M39.381 3.501H8.175a3.467 3.467 0 0 0-3.467 3.467v26.583a3.467 3.467 0 0 0 3.467 3.468H39.38a3.467 3.467 0 0 0 3.468-3.468V6.968a3.467 3.467 0 0 0-3.468-3.467Z" fill="url(#a)"/>
  <mask id="c" style="mask-type:alpha" maskUnits="userSpaceOnUse" x="4" y="3" width="39" height="35">
    <path d="M39.381 3.501H8.175a3.467 3.467 0 0 0-3.467 3.467v26.583a3.467 3.467 0 0 0 3.467 3.468H39.38a3.467 3.467 0 0 0 3.468-3.468V6.968a3.467 3.467 0 0 0-3.468-3.467Z" fill="url(#b)"/>
  </mask>
  <g mask="url(#c)">
    <path opacity=".4" d="M45.738-1.7H.662v23.116h45.076V-1.7Z" fill="#fff"/>
  </g>
  <path d="m8.041 5.48-.91.711a1.156 1.156 0 1 0 1.423 1.822l.91-.712A1.156 1.156 0 1 0 8.041 5.48Z" fill="#fff"/>
  <path d="M39.381 3.501H8.175a3.467 3.467 0 0 0-3.467 3.467v26.583a3.467 3.467 0 0 0 3.467 3.468H39.38a3.467 3.467 0 0 0 3.468-3.468V6.968a3.467 3.467 0 0 0-3.468-3.467Z" stroke="#065066"/>
  <path d="m21.354 15.964-2.952 9.075h-1.91l-1.585-4.809-1.585 4.809h-1.91l-2.98-9.075h2.954l1.232 4.713 1.409-4.713h1.733l1.436 4.713 1.206-4.713h2.952ZM28.844 19.5v1.895h-3.603v1.477h4.077v2.167h-6.61v-9.075h6.61v2.1h-4.077v1.435h3.603ZM35.264 15.747c.75 0 1.4.113 1.95.339.56.217.994.524 1.301.92.316.398.474.859.474 1.383 0 .46-.113.857-.338 1.191-.217.335-.502.6-.854.8.28.099.542.23.786.392.244.154.438.357.582.61.154.253.23.582.23.988 0 .506-.162.98-.487 1.423-.325.433-.772.785-1.341 1.056-.569.262-1.22.393-1.95.393-.416 0-.88-.023-1.396-.068a23.226 23.226 0 0 1-1.476-.149c-.46-.063-.835-.126-1.124-.19V16.1a19.278 19.278 0 0 1 3.643-.352Zm.095 2.29c-.46 0-.862.035-1.205.108v1.557h1.273c.298 0 .55-.072.758-.216.208-.145.312-.357.312-.637a.668.668 0 0 0-.325-.582c-.208-.154-.479-.23-.813-.23Zm-1.205 4.808c.19.063.415.108.677.135.262.018.465.027.61.027.37 0 .668-.072.893-.217a.702.702 0 0 0 .352-.636c0-.271-.13-.465-.392-.583-.262-.117-.578-.176-.948-.176h-1.192v1.45Z" fill="#fff"/>
  <path fill-rule="evenodd" clip-rule="evenodd" d="M22.031 15.027c-.194-.14-.43-.219-.677-.219h-2.953c-.528 0-.988.358-1.12.87l-.182.714-.233-.765a1.156 1.156 0 0 0-1.106-.819h-1.733c-.511 0-.961.336-1.108.825l-.227.76-.188-.721a1.156 1.156 0 0 0-1.118-.864H8.433a1.156 1.156 0 0 0-1.098 1.517l2.98 9.074c.155.475.598.796 1.098.796h1.91c.498 0 .94-.32 1.097-.794l.487-1.478.487 1.478c.156.474.599.794 1.098.794h1.91c.5 0 .944-.323 1.099-.799l2.052-6.307v5.95c0 .638.517 1.156 1.156 1.156h6.61c.638 0 1.155-.518 1.155-1.156v-.059c.06.48.417.88.9.985.33.072.738.14 1.214.205h.003c.493.067 1.006.119 1.54.156.536.047 1.032.072 1.485.072.87 0 1.69-.157 2.434-.499l.014-.006c.71-.338 1.314-.801 1.768-1.407l.007-.009c.458-.623.712-1.333.712-2.106 0-.537-.1-1.09-.39-1.575a2.887 2.887 0 0 0-.504-.644c.338-.533.488-1.136.488-1.764a3.31 3.31 0 0 0-.72-2.094c-.457-.588-1.072-1.005-1.783-1.282-.718-.292-1.52-.42-2.378-.42-.687 0-1.359.033-2.014.1-.646.067-1.264.158-1.852.273-.494.098-.863.501-.924.99a1.156 1.156 0 0 0-1.156-1.147h-6.61a1.15 1.15 0 0 0-.677.22Zm8.434 3.182c-.045.36-.256.668-.553.846.057.137.088.287.088.444v1.896c0 .17-.037.331-.102.476.305.178.521.49.567.856v-4.518Zm-5.224 4.663v-1.477h3.603V19.5h-3.603v-1.436h4.077v-2.099h-6.61v9.075h6.61v-2.167h-4.077Zm11.974-6.786c-.551-.226-1.201-.339-1.95-.339a19.275 19.275 0 0 0-3.643.352v8.737c.288.063.663.126 1.123.19.47.063.962.112 1.476.148.515.045.98.068 1.395.068.732 0 1.382-.13 1.95-.393.57-.27 1.017-.623 1.342-1.056.325-.443.487-.917.487-1.422 0-.407-.076-.736-.23-.99a1.744 1.744 0 0 0-.582-.609 3.556 3.556 0 0 0-.786-.392 2.415 2.415 0 0 0 .9-.873c.195-.318.292-.691.292-1.119 0-.523-.158-.984-.474-1.381-.307-.397-.74-.704-1.3-.921Zm-22.308 4.145 1.585 4.808h1.91l2.952-9.075h-2.953l-1.205 4.713-1.436-4.713h-1.733l-1.409 4.713-1.232-4.713H8.433l2.98 9.075h1.91l1.584-4.809Zm19.247-2.086a5.914 5.914 0 0 1 1.205-.109c.334 0 .605.077.813.23a.668.668 0 0 1 .325.583c0 .28-.104.492-.312.637-.207.144-.46.216-.758.216h-1.273v-1.557Zm0 3.25h1.191c.37 0 .687.06.949.176.262.118.392.312.392.583 0 .28-.117.492-.352.636-.225.145-.523.217-.894.217-.144 0-.347-.009-.61-.027a3.203 3.203 0 0 1-.676-.135v-1.45Z" fill="#065066"/>
  <path d="M38.225 9.858a1.734 1.734 0 1 0 0-3.468 1.734 1.734 0 0 0 0 3.468ZM32.447 9.858a1.734 1.734 0 1 0 0-3.468 1.734 1.734 0 0 0 0 3.468ZM26.668 9.858a1.734 1.734 0 1 0 0-3.468 1.734 1.734 0 0 0 0 3.468Z" fill="#fff" stroke="#065066" stroke-linejoin="round"/>
  <path fill-rule="evenodd" clip-rule="evenodd" d="m35.33 25.96 10.1 8.206-10.1 8.205-.001-5.453-.213.009c-1.703.091-3.009.541-4.109 1.253l-.233.157a8.055 8.055 0 0 0-3.281 5.003 5.462 5.462 0 0 1-.728-1.118c-.455-.925-.582-1.785-.582-2.676a9.156 9.156 0 0 1 2.69-6.495c1.663-1.662 3.92-2.69 6.457-2.69v-4.402Z" fill="#fff" stroke="#065066" stroke-linejoin="round"/>
  <defs>
    <linearGradient id="a" x1="23.778" y1="3.501" x2="23.778" y2="37.019" gradientUnits="userSpaceOnUse">
      <stop stop-color="#3ACAE8"/>
      <stop offset="1" stop-color="#1B9ACD"/>
    </linearGradient>
    <linearGradient id="b" x1="23.778" y1="3.501" x2="23.778" y2="37.019" gradientUnits="userSpaceOnUse">
      <stop stop-color="#3ACAE8"/>
      <stop offset="1" stop-color="#1B9ACD"/>
    </linearGradient>
  </defs>
</svg>