<svg width="48" height="48" viewBox="0 0 48 48" fill="none" xmlns="http://www.w3.org/2000/svg">
  <path opacity=".2" fill-rule="evenodd" clip-rule="evenodd" d="M19.673 5.746c8.866 0 16.052 7.186 16.052 16.052a15.98 15.98 0 0 1-3.132 9.527l3.72 3.711a1.07 1.07 0 0 1 1.335.145l.621.62a1.07 1.07 0 0 1 .995.286l1.85 1.85c.27.27.365.648.287.995l3.983 3.985a1.07 1.07 0 0 1 0 1.513l-3.027 3.027a1.07 1.07 0 0 1-1.513 0l-7.736-7.736a1.07 1.07 0 0 1-.147-1.332l-3.712-3.707a15.981 15.981 0 0 1-9.576 3.168c-8.865 0-16.052-7.187-16.052-16.052 0-8.866 7.187-16.052 16.052-16.052Zm0 5.707c-5.713 0-10.344 4.631-10.344 10.345 0 3.876 2.131 7.254 5.286 9.025a10.157 10.157 0 0 1-4.573-8.49c0-5.615 4.552-10.166 10.166-10.166 3.548 0 6.672 1.817 8.49 4.572a10.342 10.342 0 0 0-9.025-5.286Z" fill="#000"/>
  <path d="M19.138 26.078a9.096 9.096 0 1 0 0-18.192 9.096 9.096 0 0 0 0 18.192Z" fill="url(#a)"/>
  <path fill-rule="evenodd" clip-rule="evenodd" d="m28.55 23.392 10.753 10.73-3.016 3.015-10.753-10.73 3.016-3.015Z" fill="#065066"/>
  <path fill-rule="evenodd" clip-rule="evenodd" d="M19.138 2c4.137 0 7.883 1.677 10.594 4.388a14.935 14.935 0 0 1 4.388 10.594c0 4.137-1.677 7.883-4.388 10.594a14.935 14.935 0 0 1-10.594 4.388 14.935 14.935 0 0 1-10.594-4.388 14.935 14.935 0 0 1-4.388-10.594c0-4.137 1.677-7.883 4.388-10.594A14.935 14.935 0 0 1 19.138 2Zm0 6.207a8.748 8.748 0 0 0-6.205 2.57 8.748 8.748 0 0 0-2.57 6.205c0 2.423.982 4.617 2.57 6.205a8.748 8.748 0 0 0 6.205 2.57 8.748 8.748 0 0 0 6.205-2.57 8.748 8.748 0 0 0 2.57-6.205 8.748 8.748 0 0 0-2.57-6.205 8.748 8.748 0 0 0-6.205-2.57Z" fill="url(#b)" stroke="#065066" stroke-width="1.07"/>
  <mask id="c" style="mask-type:alpha" maskUnits="userSpaceOnUse" x="4" y="2" width="30" height="30">
    <path d="M19.138 2.535c7.979 0 14.447 6.468 14.447 14.447 0 7.979-6.468 14.447-14.447 14.447-7.979 0-14.447-6.468-14.447-14.447 0-7.979 6.468-14.447 14.447-14.447Zm0 5.137a9.31 9.31 0 1 0 0 18.62 9.31 9.31 0 0 0 0-18.62Z" fill="#fff"/>
  </mask>
  <g mask="url(#c)">
    <path clip-rule="evenodd" d="M19.138 2c4.137 0 7.883 1.677 10.594 4.388a14.935 14.935 0 0 1 4.388 10.594c0 4.137-1.677 7.883-4.388 10.594a14.935 14.935 0 0 1-10.594 4.388 14.935 14.935 0 0 1-10.594-4.388 14.935 14.935 0 0 1-4.388-10.594c0-4.137 1.677-7.883 4.388-10.594A14.935 14.935 0 0 1 19.138 2Zm0 6.207a8.748 8.748 0 0 0-6.205 2.57 8.748 8.748 0 0 0-2.57 6.205c0 2.423.982 4.617 2.57 6.205a8.748 8.748 0 0 0 6.205 2.57 8.748 8.748 0 0 0 6.205-2.57 8.748 8.748 0 0 0 2.57-6.205 8.748 8.748 0 0 0-2.57-6.205 8.748 8.748 0 0 0-6.205-2.57Z" stroke="#065066"/>
    <path opacity=".4" d="M37.866-4.956H1.48v21.403h36.385V-4.956Z" fill="#C6F5FF"/>
  </g>
  <path d="m42.379 36.44-7.567-7.568a1.07 1.07 0 0 0-1.514 0l-2.27 2.27a1.07 1.07 0 0 0 0 1.514l7.567 7.567a1.07 1.07 0 0 0 1.514 0l2.27-2.27a1.07 1.07 0 0 0 0-1.514Z" fill="url(#d)" stroke="#065066"/>
  <path d="M11.297 5.314 9.61 6.63a1.07 1.07 0 1 0 1.318 1.687L12.614 7a1.07 1.07 0 0 0-1.317-1.686Z" fill="#fff"/>
  <path d="M19.409 10.858c-1.52 0-2.903.577-3.945 1.525" stroke="#fff" stroke-width="2.14"/>
  <defs>
    <linearGradient id="a" x1="19.138" y1="7.886" x2="19.138" y2="26.078" gradientUnits="userSpaceOnUse">
      <stop stop-color="#D8D8D8"/>
      <stop offset="1" stop-color="#fff"/>
    </linearGradient>
    <linearGradient id="b" x1="19.138" y1="2" x2="19.138" y2="31.964" gradientUnits="userSpaceOnUse">
      <stop stop-color="#3ACAE8"/>
      <stop offset="1" stop-color="#1B9ACD"/>
    </linearGradient>
    <linearGradient id="d" x1="38.595" y1="32.656" x2="34.812" y2="36.439" gradientUnits="userSpaceOnUse">
      <stop stop-color="#3ACAE8"/>
      <stop offset="1" stop-color="#1B9ACD"/>
    </linearGradient>
  </defs>
</svg>