<svg width="48" height="48" viewBox="0 0 48 48" fill="none" xmlns="http://www.w3.org/2000/svg">
  <path opacity=".2" fill-rule="evenodd" clip-rule="evenodd" d="M29.245 9.142c8.691 0 15.736 7.046 15.736 15.736 0 8.691-7.045 15.736-15.736 15.736h-8.807l-2.849 4.663-3.23-5.285C7.809 38.09 3.02 32.044 3.02 24.878c0-8.69 7.045-15.736 15.736-15.736h10.49Z" fill="#000"/>
  <path fill-rule="evenodd" clip-rule="evenodd" d="M29.245 3.897c4.185 0 7.973 1.696 10.716 4.438a15.106 15.106 0 0 1 4.438 10.715c0 4.185-1.696 7.973-4.438 10.715a15.106 15.106 0 0 1-10.715 4.439h-7.837l-3.237 5.179-3.603-5.765a15.173 15.173 0 0 1-7.857-5.37 15.088 15.088 0 0 1-3.11-9.198c0-4.184 1.696-7.972 4.438-10.715a15.106 15.106 0 0 1 10.715-4.438h10.49Z" fill="#fff" stroke="#065066"/>
  <path d="M13.51 22.547a2.914 2.914 0 1 0 0-5.828 2.914 2.914 0 0 0 0 5.828Z" fill="url(#a)" stroke="#065066"/>
  <path d="M24 22.547a2.914 2.914 0 1 0 0-5.828 2.914 2.914 0 0 0 0 5.828Z" fill="url(#b)" stroke="#065066"/>
  <path d="M34.49 22.547a2.914 2.914 0 1 0 0-5.828 2.914 2.914 0 0 0 0 5.828Z" fill="url(#c)" stroke="#065066"/>
  <defs>
    <linearGradient id="a" x1="13.509" y1="16.719" x2="13.509" y2="22.547" gradientUnits="userSpaceOnUse">
      <stop stop-color="#3ACAE8"/>
      <stop offset="1" stop-color="#1B9ACD"/>
    </linearGradient>
    <linearGradient id="b" x1="24" y1="16.719" x2="24" y2="22.547" gradientUnits="userSpaceOnUse">
      <stop stop-color="#3ACAE8"/>
      <stop offset="1" stop-color="#1B9ACD"/>
    </linearGradient>
    <linearGradient id="c" x1="34.491" y1="16.719" x2="34.491" y2="22.547" gradientUnits="userSpaceOnUse">
      <stop stop-color="#3ACAE8"/>
      <stop offset="1" stop-color="#1B9ACD"/>
    </linearGradient>
  </defs>
</svg>