<svg width="48" height="48" viewBox="0 0 48 48" fill="none" xmlns="http://www.w3.org/2000/svg">
  <path opacity=".2" fill-rule="evenodd" clip-rule="evenodd" d="m44.854 9.65.813.812a3.447 3.447 0 0 1 0 4.874l-5.757 5.756v21.313A4.596 4.596 0 0 1 35.315 47H8.89a4.596 4.596 0 0 1-4.595-4.595V14.83a4.596 4.596 0 0 1 4.595-4.595h26.425c1.137 0 2.177.413 2.98 1.097l1.685-1.684a3.447 3.447 0 0 1 4.874 0Z" fill="#000"/>
  <path d="M32.415 10.74H8.242a3.453 3.453 0 0 0-3.453 3.454v24.173a3.453 3.453 0 0 0 3.453 3.453h24.173a3.453 3.453 0 0 0 3.453-3.453V14.194a3.453 3.453 0 0 0-3.453-3.454Z" fill="#fff" stroke="#065066"/>
  <path fill-rule="evenodd" clip-rule="evenodd" d="M36.562 3.328a2.869 2.869 0 0 1 2.034-.843c.737 0 1.473.281 2.035.843l3.256 3.256c.562.562.843 1.298.843 2.035 0 .736-.281 1.473-.843 2.034L20.5 34.042a1.726 1.726 0 0 1-.767.445l-9.63 2.626 2.626-9.63c.08-.29.233-.554.445-.767L36.562 3.328Z" fill="url(#a)"/>
  <mask id="b" style="mask-type:alpha" maskUnits="userSpaceOnUse" x="10" y="3" width="35" height="34">
    <path d="M13.58 27.123 36.968 3.735c.9-.9 2.357-.9 3.256 0L43.48 6.99c.9.899.9 2.356 0 3.255L20.092 33.635a1.15 1.15 0 0 1-.511.297l-8.659 2.36 2.361-8.658a1.15 1.15 0 0 1 .297-.51Z" fill="#fff"/>
  </mask>
  <g mask="url(#b)">
    <path d="m38.596-1.149-30.93 30.93 4.884 4.884 30.93-30.93-4.883-4.884Z" fill="#6FD7EE"/>
    <path d="m13.257 25.819-.707.707 8.14 8.14.707-.708-8.14-8.14ZM34.42 4.656l-.707.707 8.14 8.14.706-.708-8.14-8.14ZM10.65 31.138l-3.255 3.256 5.426 5.426 3.256-3.256-5.426-5.426Z" fill="#065066"/>
    <path d="m32.085 8.618-1.628 1.628a1.151 1.151 0 0 0 1.628 1.628l1.628-1.628a1.151 1.151 0 0 0-1.628-1.628Z" fill="#fff"/>
  </g>
  <path clip-rule="evenodd" d="M36.392 3.618a2.822 2.822 0 0 1 2.001-.83c.725 0 1.45.277 2.002.83l3.202 3.202c.553.553.83 1.277.83 2.002 0 .724-.277 1.449-.83 2.001L20.592 33.83a1.7 1.7 0 0 1-.755.438l-9.472 2.583 2.583-9.472c.078-.285.229-.545.438-.754L36.392 3.618Z" stroke="#065066" stroke-linejoin="round"/>
  <defs>
    <linearGradient id="a" x1="22.518" y1="17.372" x2="29.843" y2="24.697" gradientUnits="userSpaceOnUse">
      <stop stop-color="#3ACAE8"/>
      <stop offset="1" stop-color="#1B9ACD"/>
    </linearGradient>
  </defs>
</svg>