<svg width="48" height="48" viewBox="0 0 48 48" fill="none" xmlns="http://www.w3.org/2000/svg">
<circle cx="24" cy="24" r="18" fill="white" stroke="#70CCEB" stroke-width="4"/>
<path d="M13.3787 18.941C16.1573 13.0065 23.2382 10.4507 29.2039 13.2326C35.1753 16.0171 37.7682 23.0952 34.9952 29.0418C32.2222 34.9885 25.1335 37.552 19.162 34.7674C16.185 33.3792 14.0478 30.9239 12.9964 28.0737L16.3523 26.8515C17.0883 28.8467 18.5844 30.5655 20.6683 31.5372C24.8483 33.4864 29.8104 31.692 31.7515 27.5293C33.6926 23.3666 31.8776 18.412 27.6976 16.4628C23.5176 14.5136 18.5555 16.308 16.6144 20.4707L16.6194 20.4578L13.3787 18.941Z" fill="#535AB2"/>
<path fill-rule="evenodd" clip-rule="evenodd" d="M12.2892 23.3148L11.8313 16.2634C11.7998 15.7784 12.1674 15.3598 12.6524 15.3283C12.825 15.3171 12.9971 15.357 13.1472 15.443L19.9824 19.3625C20.404 19.6043 20.5498 20.1421 20.3081 20.5637C20.2208 20.7159 20.0901 20.8385 19.9326 20.9158L13.5552 24.0477C13.119 24.2619 12.5916 24.0819 12.3774 23.6457C12.3266 23.5422 12.2966 23.4298 12.2892 23.3148Z" fill="#535AB2"/>
</svg>
