<svg width="68" height="68" viewBox="0 0 68 68" fill="none" xmlns="http://www.w3.org/2000/svg">
<path fill-rule="evenodd" clip-rule="evenodd" d="M55.6896 1.20139C55.4719 1.81405 55.3414 2.35288 55.3975 2.39931C55.55 2.52032 56.2076 1.68771 56.1841 1.40307C56.1439 0.920559 56.599 0.931975 57.7702 1.44113C58.7169 1.85362 59.0885 1.89015 59.5801 1.61846C60.1907 1.28206 60.2066 1.28968 60.6943 2.19762C61.6387 3.95644 61.8481 4.42374 61.8951 4.88647C61.9216 5.14142 62.172 5.63611 62.4481 5.9824L62.5086 6.0562C63.4673 7.1965 63.9111 6.47869 55.0539 17.0399C50.6711 22.2669 46.3377 27.4033 45.4229 28.4551C44.7271 29.2551 43.2665 30.903 41.8061 32.5376C43.3653 34.1207 45.5671 36.3576 47.4705 38.2922C53.3991 44.317 57.7675 48.7366 60.6417 51.6182L61.0517 52.0289C61.1848 52.1621 61.3143 52.2917 61.4403 52.4177L61.8078 52.7846C62.8188 53.7934 63.5745 54.5394 64.0797 55.0275L66 56.8832L65.2745 57.4761C64.874 57.8023 64.5819 58.1421 64.6248 58.228C64.666 58.3139 64.2571 58.8042 63.7128 59.3166L62.7236 60.2479L61.9927 59.6845C61.3315 59.1767 61.2031 59.1608 60.6779 59.5234C60.3576 59.7438 59.9089 59.8563 59.681 59.7735C59.402 59.6731 58.5611 58.878 57.0865 57.3294C55.8863 56.0644 54.2573 54.4383 53.4707 53.7123L52.0381 52.3911L51.4663 53.0061L50.896 53.6226L51.7193 54.5767C52.1719 55.102 53.0403 56.0196 53.648 56.6156C55.1937 58.136 56.3641 59.8168 56.6416 60.9222C56.8296 61.6748 51.1559 56.8246 47.0753 52.6244C45.6158 51.1208 42.1655 47.6997 38.4906 44.1015L37.8401 43.4651C37.6228 43.2526 37.405 43.0398 37.1871 42.8271L36.5338 42.1897C35.9898 41.6593 35.4477 41.1318 34.9131 40.6126L34.753 40.4548C33.8031 41.5355 32.0347 43.5462 30.2238 45.6047L29.6977 46.2027C29.1719 46.8005 28.6488 47.3951 28.1474 47.965C19.3348 57.9806 14.1904 63.8788 12.4739 65.9291L10.7414 68L10.0997 67.3211C9.74696 66.9474 9.38742 66.6826 9.30398 66.7321C9.2213 66.78 8.70247 66.4109 8.15329 65.9078L7.15583 64.993L7.67239 64.216C8.13736 63.5135 8.14495 63.3834 7.74748 62.8872C7.50551 62.585 7.36291 62.1451 7.43117 61.9107C7.51309 61.623 8.25494 60.7174 9.70979 59.1176C10.8977 57.8154 12.4193 56.0551 13.0951 55.2088L14.3239 53.6699L13.6708 53.1471L13.0162 52.6257L12.1143 53.5268C11.6183 54.0215 10.7558 54.9637 10.199 55.6205C8.77756 57.2888 7.17024 58.5955 6.08099 58.9616C5.48569 59.1621 8.26317 55.2862 11.4203 51.4623L11.8086 50.9947C11.8735 50.9168 11.9386 50.8391 12.0037 50.7615L12.3954 50.2978C12.8531 49.7592 13.3122 49.2302 13.7641 48.723C15.1338 47.1883 18.1887 43.632 21.4418 39.7973L22.0351 39.0974C22.1343 38.9804 22.2335 38.8632 22.3328 38.7459L22.929 38.0411C23.7239 37.1008 24.5172 36.1595 25.2877 35.2423C25.8926 34.5217 26.5212 33.7758 27.162 33.0177C24.5868 30.4684 22.2952 28.1722 20.944 26.781C20.0715 25.8837 18.9177 24.717 17.6309 23.4282L16.844 22.6416C16.1769 21.9758 15.484 21.2869 14.7838 20.5933L13.9412 19.76C12.3943 18.2324 10.848 16.7179 9.49945 15.4128C7.56745 13.5411 5.99886 12.0044 4.85936 10.8676L4.39746 10.405C3.33354 9.33514 2.75084 8.71432 2.72488 8.61725C2.67749 8.44012 2.47567 8.1406 2.27768 7.94902C1.71428 7.40395 2.00554 7.38646 3.17591 7.89277C3.7676 8.14896 4.29277 8.31392 4.34323 8.26071C4.47548 8.11703 3.70109 7.41003 3.41595 7.41459C2.93281 7.42295 2.98021 6.97139 3.5803 5.84247C4.0665 4.9287 4.13147 4.56227 3.90137 4.05597C3.61547 3.42804 3.62388 3.41283 4.56645 2.98787C6.38966 2.16456 6.87203 1.98743 7.33529 1.97071C7.59061 1.96007 8.10203 1.74417 8.46897 1.49253C8.56435 1.42698 8.64808 1.36245 8.72511 1.3028L8.78961 1.25295L8.85151 1.20602C8.88193 1.18337 8.91163 1.16202 8.94101 1.14227L8.99946 1.10499L9.05773 1.0725C9.82685 0.678644 10.7307 1.67133 18.8724 9.55611C23.5289 14.0656 28.1065 18.5239 29.3214 19.733L29.4531 19.8646C30.1014 20.5158 31.3507 21.7935 32.6651 23.1475L33.16 23.6578C33.5172 24.0264 33.8743 24.3956 34.2207 24.7545C35.7282 23.0073 37.0338 21.5109 37.9354 20.4989C40.4606 17.6632 45.2477 12.0991 48.5723 8.13317C51.818 4.2636 53.9891 1.74144 54.6967 1.0203L54.794 0.923629C54.8653 0.85501 54.9123 0.816376 54.9341 0.808683C55.1085 0.747037 55.3953 0.521 55.5743 0.307902C56.0832 -0.300188 56.1197 -0.0102223 55.6896 1.20139Z" fill="#2072D3"/>
</svg>
