<svg width="24" height="24" viewBox="0 0 24 24" fill="none" xmlns="http://www.w3.org/2000/svg">
<path d="M12 18.3309L7.40284 20.868C6.9193 21.1349 6.31099 20.9592 6.04414 20.4757C5.93116 20.271 5.89349 20.0331 5.93768 19.8035L6.92999 14.6473L3.09648 11.0592C2.69326 10.6818 2.67234 10.049 3.04975 9.64575C3.20954 9.47503 3.42409 9.36571 3.65612 9.33679L8.86656 8.68719L11.0945 3.9325C11.3288 3.4324 11.9242 3.21695 12.4243 3.45128C12.636 3.5505 12.8063 3.72077 12.9055 3.9325L15.1334 8.68719L20.3439 9.33679C20.8919 9.40511 21.2808 9.90478 21.2125 10.4528C21.1836 10.6848 21.0742 10.8994 20.9035 11.0592L17.07 14.6473L18.0623 19.8035C18.1667 20.3458 17.8117 20.8701 17.2693 20.9745C17.0397 21.0187 16.8019 20.981 16.5972 20.868L12 18.3309Z" fill="#F9C722"/>
</svg>
