<svg width="30" height="30" viewBox="0 0 30 30" fill="none" xmlns="http://www.w3.org/2000/svg">
<path fill-rule="evenodd" clip-rule="evenodd" d="M0.966179 13.6738L2.73045 11.9385C3.48314 11.1982 4.69347 11.2082 5.4338 11.9609C5.45181 11.9792 5.46945 11.9979 5.4867 12.0169L11.7796 18.9529C11.9571 19.1483 12.2593 19.1623 12.4544 18.9846C12.4716 18.969 12.4875 18.9522 12.4984 18.9311C17.1031 13.3276 20.925 9.03119 23.9643 6.04184C26.1743 3.86811 27.8289 2.57116 28.9281 2.15101C29.1747 2.05689 29.4507 2.18082 29.5446 2.42752C29.5986 2.56957 29.5818 2.72885 29.4975 2.85528L14.688 25.81C13.8295 27.1407 12.0548 27.5235 10.724 26.665C10.5012 26.5212 10.2994 26.3472 10.1244 26.148L0.894461 15.6422C0.392528 15.0709 0.424001 14.2071 0.966179 13.6738Z" fill="#4B7AF3"/>
</svg>
