<svg width="68" height="68" viewBox="0 0 68 68" fill="none" xmlns="http://www.w3.org/2000/svg">
<path fill-rule="evenodd" clip-rule="evenodd" d="M48.0685 60.9914C48.207 61.0427 48.5163 60.8585 48.7536 60.5846C48.992 60.314 49.0714 60.0521 48.9297 60.0072C48.7901 59.9608 48.4819 60.1426 48.2457 60.4125C48.0121 60.6831 47.9278 60.941 48.0685 60.9914ZM52.5417 54.5487C52.9917 54.1099 53.127 53.8796 52.8729 54.064C52.61 54.2404 52.2453 54.5993 52.0651 54.8656C51.8825 55.132 52.0974 54.9901 52.5417 54.5487ZM52.6433 52.5203C53.0313 52.1023 53.0453 51.9613 52.6873 52.1543C52.3653 52.3283 52.0793 52.6373 52.0563 52.8393C52.0303 53.0393 52.2963 52.9013 52.6433 52.5203ZM56.537 53.5295C56.9884 53.0911 57.1246 52.8723 56.8796 53.0779C56.6249 53.2771 56.26 53.6332 56.0709 53.8816C55.8792 54.1317 56.0902 53.9721 56.537 53.5295ZM57.726 48.3005C58.7946 46.6517 59.216 45.6181 58.8949 46.1331C58.5667 46.6447 57.5296 48.0683 56.5205 49.2312C55.9085 49.9548 55.4835 50.4525 55.2449 50.7451C55.0141 51.044 54.9905 51.1546 55.1689 51.0823C55.5867 50.9106 55.6039 51.0114 55.2334 51.5939C54.9467 52.0464 54.8887 52.168 55.2614 51.7148C55.4434 51.4854 55.7372 51.1163 56.1658 50.5762C56.555 50.0056 57.1132 49.2896 57.726 48.3005ZM59.2394 45.9964C59.3154 46.0309 59.5754 45.8166 59.7714 45.4956C59.9754 45.1802 59.9224 44.9603 59.6574 45.006C59.2254 45.0903 58.9134 45.8455 59.2394 45.9964ZM63.9961 24.863C63.8944 23.7062 63.4502 22.3628 63.1785 22.0868C62.7583 21.63 63.1477 23.0635 63.648 24.3402C63.8716 24.932 64.0269 25.176 63.9961 24.863ZM60.3055 15.5308C60.3703 15.1399 60.2937 15.0315 60.0255 15.0672C59.8279 15.0943 59.6291 14.9686 59.5774 14.7828C59.4093 14.1829 59.8188 14.1234 60.2859 14.7041C60.541 15.0103 60.8099 15.2167 60.9211 15.136C61.1776 14.9508 60.7811 14.3648 60.1308 13.8013C59.7959 13.5321 59.4008 13.2709 59.0037 13.0645C58.5941 12.8734 58.1866 12.7332 57.8372 12.6802C57.1627 12.5943 56.4045 11.835 56.7565 11.5843C56.9351 11.4613 56.6485 11.1154 56.1539 10.7642C55.6509 10.4276 54.9424 10.0949 54.3137 9.98377C53.7458 9.86737 52.9411 9.62993 52.5218 9.43283C52.1005 9.2331 51.4378 9.03071 51.0518 9.00029C50.8451 8.99169 51.269 9.17489 52.1097 9.61538C52.9542 10.0433 54.2358 10.6987 55.6816 11.7173C57.0502 12.6796 58.1918 13.7312 58.952 14.5698C59.3334 14.9872 59.6251 15.3469 59.8358 15.591C60.0314 15.8483 60.1446 15.9944 60.1531 15.9991C60.191 16.0156 60.2604 15.8086 60.3055 15.5308ZM49.743 7.66141C49.2013 7.17716 48.1164 6.83377 48.004 7.08392C47.9661 7.16412 48.2001 7.32203 48.5457 7.48546C48.8879 7.6584 49.3404 7.84037 49.7585 7.95968C50.081 8.06194 50.0852 7.97221 49.743 7.66141ZM11.53 9.33377C10.8229 10.1518 10.8304 10.1835 11.5102 9.60931C11.9372 9.28157 12.4906 8.70342 12.7728 8.3671C13.4034 7.60063 12.6348 8.0876 11.53 9.33377ZM4.32735 46.3575C4.60866 47.3178 4.95787 48.0227 4.98455 47.9994C5.05924 47.9377 4.84874 47.3302 4.66201 46.6529C4.46752 45.9793 4.22695 45.268 4.08872 45.0662C3.91217 44.8063 4.00287 45.3275 4.32735 46.3575ZM13 44C13.1652 44.2982 13.3163 44.6079 13.489 44.9061L14.0659 45.7667C14.3711 46.2522 14.7701 46.6695 15.0306 47.0527C15.3149 47.4171 15.5606 47.6692 15.6149 47.7789C15.7422 47.9882 15.8069 48.0638 15.7593 47.9407C15.7131 47.8177 15.8107 47.696 15.9744 47.6619C16.1449 47.6231 15.4437 46.9524 14.4708 45.9266L13.6975 44.9904C13.4287 44.6854 13.2389 44.3263 13 44ZM16.001 48.3541C16.0114 48.6775 16.2255 49.0146 16.5779 49.3136C16.9542 49.5807 17.4626 49.8158 18.0615 49.8953L19 50C18.614 49.7554 18.1955 49.5515 17.8266 49.281C17.5237 49.0574 17.1824 48.8488 16.9254 48.634C16.6685 48.4193 16.4586 48.244 16.3589 48.1604C16.0585 47.9096 15.9906 47.9375 16.001 48.3541ZM18.4583 50.2846C18.184 50.0346 17.9779 49.9315 18.0019 50.0474C18.0371 50.2105 18.2851 50.5191 18.526 50.7461C18.778 50.9502 19.014 51.0816 18.9993 50.9422C18.9891 50.8014 18.7304 50.5352 18.4583 50.2846ZM18.5201 54.6686C19.0079 54.8966 19.1347 54.8626 18.8504 54.5906C18.5907 54.3536 18.2477 54.1486 18.0646 54.1846C17.8858 54.2186 18.091 54.4356 18.5201 54.6686ZM17.2306 55.0049C16.937 54.9765 16.9244 55.064 17.1891 55.4573C17.6346 56.1192 17.636 56.1169 17.9141 55.7646C18.1746 55.4336 17.8126 55.0735 17.2306 55.0049ZM16.863 54.6237C16.6166 54.3337 16.2681 54.1127 16.0719 54.1297C15.8818 54.1457 16.0816 54.3827 16.5189 54.6547C16.9994 54.9557 17.1314 54.9407 16.863 54.6237ZM19.5309 55.6527C20.0156 55.8447 20.1326 55.8027 19.845 55.5487C19.5804 55.3237 19.2326 55.1827 19.0587 55.2407C18.8889 55.2967 19.0999 55.4797 19.5309 55.6527ZM25.5471 53.6567C26.0247 53.7497 26.134 53.6827 25.8299 53.4927C25.5614 53.3177 25.2092 53.2517 25.0509 53.3427C24.8926 53.4347 25.1158 53.5737 25.5471 53.6567ZM27.5567 59.6603C28.0306 59.7083 28.135 59.6203 27.8193 59.4693C27.5374 59.3223 27.1912 59.2803 27.045 59.3833C26.8964 59.4863 27.1285 59.6083 27.5567 59.6603ZM31.0681 55.4842C31.2081 55.6932 31.5183 55.8732 31.7563 55.8822C31.9934 55.8912 32.0719 55.7242 31.9275 55.5142C31.7866 55.3022 31.4791 55.1252 31.2446 55.1182C31.0084 55.1042 30.93 55.2732 31.0681 55.4842ZM39.3112 66.9787C40.5337 66.2819 41.2074 65.7688 40.8585 65.8994C39.6191 66.3322 39.4525 66.0207 40.5571 65.387C41.2068 65.0102 41.6097 64.8761 41.5772 65.0797C41.5414 65.2692 41.7809 65.2586 42.1077 65.0613C42.4299 64.8562 42.6408 64.5858 42.5744 64.4609C42.508 64.3353 42.6851 64.1075 42.9669 63.9514C43.9635 63.3816 44.4335 62.9033 44.138 62.8004C43.974 62.7422 44.0306 62.5598 44.2662 62.3945C44.4986 62.2306 44.7336 62.2412 44.7857 62.4215C44.8514 62.645 45.3253 62.4569 46.2601 61.7814C47.0282 61.2286 47.2053 61.0228 46.6878 61.3556C45.7921 61.9006 45.5082 61.9417 45.7797 61.5883C46.0492 61.2328 46.8726 60.4799 48.1218 59.3204C51.3043 56.3435 52.2332 54.8319 51.9129 54.8199C51.7613 54.8 51.7522 54.6666 51.8876 54.5289C52.0256 54.392 52.0601 54.1997 51.9761 54.1017C51.911 54.0293 51.7274 54.1457 51.3707 54.4942C51.0153 54.8447 50.4971 55.4394 49.714 56.2767C49.3378 56.6876 49.3462 56.7465 49.7746 56.623C50.1899 56.5031 50.186 56.572 49.7485 56.9942C49.4478 57.2795 49.1314 57.4164 49.0592 57.3178C48.9778 57.2106 48.2741 57.635 47.45 58.1842C46.637 58.7484 45.9574 59.0301 45.9678 58.8591C45.975 58.6881 45.8676 58.6341 45.7289 58.7434C45.587 58.8548 45.4646 59.0968 45.4562 59.287C45.451 59.4779 44.8573 60.0584 44.1465 60.5885C43.1577 61.2875 42.7853 61.4258 42.6389 61.1668C42.4774 60.8816 42.9136 60.5502 44.8579 59.0975C45.4158 58.671 46.3695 57.8514 47.4429 56.8104C48.5104 55.7608 49.6886 54.4849 50.7315 53.1998C52.8249 50.6238 54.3019 48.018 54.2752 47.8073C54.2726 47.7548 54.1105 47.94 53.8521 48.2806C53.5813 48.6113 53.1986 49.086 52.7839 49.6367C51.7131 50.9502 51.2223 51.3824 51.3199 51.0262C51.4052 50.6444 52.213 49.6474 52.9499 48.6645C53.3379 48.1869 53.707 47.7129 54.0051 47.3552C54.3091 47.0019 54.5512 46.7719 54.6586 46.7684C54.9145 46.7627 54.9906 46.6052 54.962 46.2298C54.9379 45.9424 55.1234 45.3761 55.3753 44.9673C55.6155 44.5487 55.7021 44.1371 55.5895 44.064C55.4756 43.988 55.4509 43.7979 55.5368 43.641C55.6227 43.4842 55.7425 43.4807 55.803 43.6346C55.8714 43.8113 56.068 43.673 56.3199 43.3203C56.5588 42.9619 56.8218 42.3743 57.0659 41.6945C57.1954 41.351 57.2774 40.9877 57.3855 40.6372C57.1947 40.9473 57.0314 41.2666 56.8231 41.5646C56.5731 41.9322 56.4585 42.0749 56.4878 41.9443C56.5093 41.8116 56.7137 41.422 56.9832 40.6726C57.392 39.682 57.6166 38.5267 57.5847 38.1471C57.5528 37.6347 57.6537 37.321 58.0045 36.8633C58.4231 36.3368 58.4472 36.1721 58.1614 35.7222C57.8691 35.2837 57.8652 35.0893 58.2245 34.4194C58.5207 33.9191 58.7752 32.6077 58.8976 31.3537C58.9315 30.7236 58.9458 30.1119 58.9341 29.6272C58.9015 29.1404 58.8221 28.7806 58.7407 28.6571C58.6001 28.4485 58.5643 28.0383 58.6652 27.7375C58.772 27.438 58.8215 27.1023 58.7902 26.9973C58.7779 26.9441 58.7206 26.5382 58.6412 25.9293C58.5982 25.6313 58.565 25.2552 58.5005 24.8954C58.4237 24.5491 58.373 24.163 58.2721 23.7848C58.0989 23.0149 57.7363 21.8418 57.1694 20.6702C56.6063 19.4944 55.8212 18.3348 55.0063 17.452C53.1068 15.3572 50.8864 14.0749 49.2245 13.2489C47.5418 12.4463 46.4287 12.0234 46.3688 11.8296C46.3089 11.6551 46.6461 11.6196 47.1584 11.8041C47.6421 11.9602 48.4909 12.1149 49.0553 12.1575C49.3951 12.1859 49.7479 12.2015 50.0851 12.2526C49.6991 12.0773 49.2864 11.9503 48.8912 11.7956C47.1499 11.2009 45.8161 11.147 45.7686 11.3613C45.7511 11.4237 44.8885 11.1952 43.4617 10.9369C42.0341 10.6878 40.0305 10.4231 37.7925 10.4082C35.5617 10.3593 32.46 10.6431 29.3933 11.4386C26.3209 12.2128 23.3291 13.5285 21.1966 14.8683C18.4216 16.5735 16.4739 18.4342 15.077 20.1898C13.6749 21.9504 12.798 23.6117 12.1966 25.1778C11.5905 26.7454 11.2436 28.225 11.0639 29.7493C10.9773 30.5249 10.9155 31.2544 10.9161 32.1187C10.9174 32.5552 10.9194 32.9965 10.9213 33.4472C10.9213 33.6728 10.922 33.9006 10.922 34.1312C10.9376 34.3562 10.9539 34.584 10.9702 34.8146C11.0261 35.4661 11.0275 36.082 11.1147 36.6107C11.1934 37.1443 11.2644 37.6283 11.3288 38.0697C11.5033 38.9319 11.6784 39.6132 11.8392 40.1709C12.0364 40.7081 12.2044 41.1318 12.3639 41.4873C12.5292 41.8379 12.7264 42.0919 12.9035 42.3396C13.063 42.551 13.1984 42.7497 13.3181 42.9357C13.4555 43.1081 13.5714 43.2727 13.6697 43.4331C13.8747 43.7475 13.9763 44.0746 14.0889 44.3712C14.2802 44.8942 14.622 45.4896 15.0744 45.7735C15.2703 45.9069 15.4878 46.1375 15.7117 46.3731C15.9486 46.5966 16.1693 46.8486 16.3229 47.0778C16.653 47.5618 17.0084 47.7754 17.0865 47.6661C17.1711 47.5547 17.4745 47.5951 17.7687 47.7392C17.9223 47.8016 18.1111 47.9755 18.3057 48.2089C18.4027 48.326 18.5017 48.458 18.5986 48.5985C18.7041 48.7277 18.8089 48.8639 18.9065 49.0016C19.1018 49.2769 19.2711 49.5572 19.3713 49.7822C19.4813 49.9937 19.5171 50.154 19.4273 50.2058C19.3192 50.2605 19.9923 51.0382 21.0905 51.7912C22.5076 52.747 23.3232 53.1366 23.7021 53.3133C24.0933 53.4709 24.0757 53.3992 24.0191 53.2459C23.9045 52.9358 25.293 53.2942 25.8984 53.6845C26.1171 53.8377 26.2753 54.1209 26.2395 54.3387C26.192 54.6332 26.6203 54.8504 28.4117 55.0902C29.8653 55.2556 30.7089 55.3989 30.7812 55.6069C30.8599 55.8368 31.1509 55.8268 31.8331 55.5401C32.8636 55.0952 33.2802 55.1591 32.5589 55.6956C32.2992 55.8779 32.0824 56.1824 32.0805 56.3725C32.0805 56.6827 32.4443 56.8771 35.026 57.0801C35.6887 57.1248 36.2478 57.2305 36.2732 57.3526C36.2882 57.5605 36.0818 57.7443 33.4813 58.2992C32.1436 58.5625 31.5688 58.813 30.4231 59.6872C29.9519 60.0044 29.1707 60.1733 26.0689 59.7007C25.5514 59.6177 25.002 59.5219 24.4539 59.3935C23.9052 59.2827 23.359 59.1408 22.8448 58.9946C22.3292 58.8626 21.8488 58.7016 21.4316 58.5582C21.013 58.4184 20.6569 58.2992 20.3972 58.1835C19.247 57.7265 18.475 57.4483 18.4112 57.6023C18.3591 57.7336 17.6606 57.6087 16.8964 57.1858C16.1192 56.8068 15.1076 56.2682 14.6109 56.0802C13.7575 55.7275 13.7458 55.7197 14.4137 56.2292C14.8043 56.4989 15.0764 56.8125 15.0171 56.9239C14.9227 57.0999 13.9528 56.8061 12.6997 56.0383C12.0579 55.6913 11.3959 55.1371 10.6942 54.5949C10.3583 54.2997 10.0308 53.9761 9.70472 53.6554C9.37729 53.3353 9.06028 53.0061 8.78623 52.6456C8.48354 52.2723 8.19387 51.9161 7.93023 51.5918C7.66269 51.2703 7.45829 50.9488 7.26236 50.6976C6.88155 50.1867 6.62573 49.8794 6.58277 49.9106C6.49749 49.9724 6.65698 50.3797 6.94079 50.8097C7.22526 51.2391 7.35414 51.5407 7.22135 51.4789C7.0163 51.3838 5.86477 49.8872 4.97297 48.128C4.52902 47.2552 4.16449 46.3242 3.85985 45.5641C3.61639 44.7906 3.4517 44.1775 3.42241 43.9121C3.29938 43.2486 2.39977 39.682 2.14655 35.7826C2.04109 34.7997 2.0489 33.819 2.01961 32.839C1.9799 31.8938 2.00464 30.8222 2.05672 29.8188C2.15891 27.8077 2.49415 25.9974 2.74737 24.7187C3.14185 22.7693 3.70687 21.0428 4.33894 19.5554C4.96646 18.0638 5.63824 16.7864 6.30937 15.7127C7.64447 13.5498 8.88843 12.1213 9.85965 11.0952C10.3472 10.5807 10.7749 10.1726 11.1466 9.85118C11.5131 9.51765 11.8216 9.26857 12.0807 9.08548C12.5943 8.71222 12.8859 8.55681 13.0578 8.55539C13.5466 8.53765 14.1416 8.14877 15.3042 7.2667C16.8684 6.13625 16.8964 6.14051 16.058 7.03181C14.7776 8.44468 14.8212 8.71293 16.0769 7.86563C16.7897 7.41572 17.2219 7.28089 17.3104 7.3852C17.3957 7.48171 17.1373 7.80673 16.4857 8.30347C15.7586 8.87188 15.879 8.81937 17.0175 8.14167C17.8344 7.66551 18.473 7.22979 18.4216 7.10845C18.3702 6.99562 18.9248 6.43643 19.6467 5.84175C20.3692 5.25418 21.2669 4.66376 21.8195 4.41255C22.186 4.25785 23.0459 3.86969 23.7437 3.6128C24.4377 3.33604 24.9838 3.02522 24.9467 2.88543C24.9103 2.73924 23.7561 2.96348 22.2316 3.56738C20.7819 4.13154 19.7332 4.54809 19.868 4.36288C20.0021 4.16844 21.5103 3.42758 23.2399 2.86201C25.3184 2.20063 26.1803 2.11831 25.7532 2.37449C25.2175 2.73002 25.3002 2.72718 26.2206 2.48803C26.8299 2.32907 27.4066 2.06509 27.4978 1.89975C27.5876 1.72872 28.9116 1.27456 30.4589 1.0198C32.0004 0.75227 33.3596 0.525188 33.4598 0.384681C33.6102 0.157598 36.0226 -0.104256 38.5288 0.0426377C41.0356 0.164695 43.6042 0.747303 44.0605 1.05599C44.2467 1.20856 47.8647 1.77485 51.9481 3.60925C54.0956 4.57648 55.8714 5.72892 57.0646 6.6706C57.666 7.13258 58.1184 7.55197 58.4218 7.84576C58.7277 8.13529 58.8755 8.31837 58.8547 8.34747C58.7648 8.49933 56.2268 6.04471 51.9325 4.05135C49.966 3.12599 48.2592 2.61647 47.146 2.33759C46.031 2.05161 45.5024 2.00477 45.835 2.12612C46.9586 2.57603 46.9039 2.57815 45.1522 2.21269C44.1152 2.02748 43.3621 1.82169 43.4799 1.72305C43.6127 1.6088 41.831 1.24617 39.9674 1.1525C38.1037 1.03328 36.1775 1.18018 36.0024 1.3221C35.8638 1.4321 36.1372 1.51725 36.6046 1.51371C37.3968 1.513 37.4059 1.53641 36.753 1.75356C36.3715 1.87988 35.7447 2.0878 35.3665 2.2134C34.7494 2.42204 34.7891 2.45823 35.688 2.6037C36.242 2.70589 39.5429 2.49229 43.3002 2.97697C45.1763 3.20902 47.163 3.5979 48.9531 4.12302C50.7432 4.63964 52.3367 5.26411 53.4498 5.76511C55.7243 6.77492 56.4247 7.42707 57.114 8.30276C57.5723 8.94427 58.0338 9.46727 58.1627 9.49849C58.2929 9.51339 58.953 10.2812 59.5304 11.2577C60.2191 12.4342 60.6858 13.2006 61.0738 13.4717C61.5281 13.8116 62.651 15.1493 63.5246 16.9943C64.4242 18.8195 65.0211 21.0854 65.1754 22.7104C65.2105 23.1454 65.2555 23.5939 65.303 24.0346C65.3251 24.4533 65.3537 24.8663 65.3876 25.2559C65.4475 26.0351 65.562 26.7149 65.6239 27.1598C65.7482 27.9688 65.8765 28.8289 65.9526 29.7997C65.9715 30.2857 65.9852 30.7995 65.993 31.3481C66.0047 31.8966 66.0079 32.4792 65.952 33.1009C65.9064 33.7225 65.8647 34.3881 65.7886 35.0978C65.6786 35.8031 65.5607 36.5561 65.4345 37.3643C65.275 38.1648 65.0641 39.0107 64.8493 39.9218C64.5791 40.8096 64.3129 41.7733 63.949 42.7661C62.9921 45.4875 61.9382 47.4454 61.0295 49.0868C60.083 50.7012 59.2231 51.9757 58.3118 53.138C57.8561 53.7185 57.4057 54.2933 56.9005 54.8405C56.4077 55.4025 55.8863 55.9688 55.2985 56.5414C54.1411 57.7109 52.752 58.9556 50.9189 60.3869C47.5021 63.0928 43.4233 65.4118 42.094 66.1023C40.7771 66.829 39.0931 67.5627 38.3563 67.7863C38.0555 67.8814 37.8283 67.9481 37.6923 67.9779C37.5439 68.0126 37.4951 68.0091 37.5829 67.9481C37.7489 67.8281 38.3003 67.5514 39.3112 66.9787Z" fill="#F33954"/>
</svg>
