<svg width="48" height="48" viewBox="0 0 48 48" fill="none" xmlns="http://www.w3.org/2000/svg">
<circle cx="24" cy="24" r="18" fill="white" stroke="#70CCEB" stroke-width="4"/>
<path d="M12.7506 22.1302L14.1071 20.7951C14.6922 20.2192 15.6334 20.2267 16.2093 20.8118C16.2235 20.8263 16.2374 20.841 16.251 20.856L21.1121 26.2173C21.2498 26.3695 21.4848 26.3807 21.6367 26.2427C21.6496 26.231 21.6617 26.2184 21.6714 26.2038C25.2345 21.865 28.192 18.5383 30.5438 16.2237C32.8126 13.9908 34.8519 13.4395 36.6618 14.5698C36.8348 14.6802 36.8867 14.9097 36.7772 15.0833C36.7696 15.0953 36.7614 15.1069 36.7509 15.1167L23.4332 31.9071C22.6679 32.8719 21.2655 33.0337 20.3007 32.2685C20.196 32.1854 20.0989 32.0931 20.0107 31.9927L12.6949 23.6603C12.3049 23.2161 12.3293 22.5448 12.7506 22.1302Z" fill="#535AB2"/>
</svg>
