<svg width="48" height="48" viewBox="0 0 48 48" fill="none" xmlns="http://www.w3.org/2000/svg">
<circle cx="24" cy="24" r="18" fill="white" stroke="#70CCEB" stroke-width="4"/>
<path fill-rule="evenodd" clip-rule="evenodd" d="M25 14C25.5523 14 26 14.4477 26 15L25.999 22H33C33.5523 22 34 22.4477 34 23V25C34 25.5523 33.5523 26 33 26H25.999L26 33C26 33.5523 25.5523 34 25 34H23C22.4477 34 22 33.5523 22 33L21.999 25.999L15 26C14.4477 26 14 25.5523 14 25V23C14 22.4477 14.4477 22 15 22L21.999 21.999L22 15C22 14.4477 22.4477 14 23 14H25Z" fill="#535AB2"/>
</svg>
