<svg width="48" height="48" viewBox="0 0 48 48" fill="none" xmlns="http://www.w3.org/2000/svg">
<path d="M38 10H9.99995V31H38V10Z" fill="white"/>
<mask id="mask0_419_12555" style="mask-type:alpha" maskUnits="userSpaceOnUse" x="6" y="6" width="36" height="29">
<path d="M42 6V35H6V6H42ZM38 10H10V31H38V10Z" fill="white"/>
</mask>
<g mask="url(#mask0_419_12555)">
<path d="M42 6V35H6V6H42ZM38 10H10V31H38V10Z" fill="#70CCEB"/>
</g>
<path d="M28.0001 35.0002H20.0001V39.0002H28.0001V35.0002Z" fill="#535AB2"/>
<path fill-rule="evenodd" clip-rule="evenodd" d="M25.5001 14.6013C25.7298 14.6013 25.9524 14.6804 26.1307 14.8252L32.5001 20.0003L26.1307 25.1755C25.7021 25.5238 25.0723 25.4586 24.724 25.03C24.5792 24.8517 24.5001 24.629 24.5001 24.3994L24.4999 22.0157C24.3346 22.0055 24.168 22.0003 24.0001 22.0003C20.548 22.0003 17.6066 24.1868 16.4853 27.2504L16.3981 27.4993L16.295 27.1604C16.1029 26.4734 16.0001 25.7489 16.0001 25.0003C16.0001 20.5821 19.5818 17.0003 24.0001 17.0003C24.1682 17.0003 24.3352 17.0055 24.5007 17.0158L24.5001 15.6013C24.5001 15.049 24.9478 14.6013 25.5001 14.6013Z" fill="#535AB2"/>
<path fill-rule="evenodd" clip-rule="evenodd" d="M16.9999 38H30.9999C31.8073 38 32.5355 38.4855 32.846 39.2308L33.9999 42H13.9999L15.1537 39.2308C15.4643 38.4855 16.1925 38 16.9999 38Z" fill="#70CCEB"/>
</svg>
