<svg width="48" height="48" viewBox="0 0 48 48" fill="none" xmlns="http://www.w3.org/2000/svg">
<circle cx="24" cy="24" r="18" fill="white" stroke="#70CCEB" stroke-width="4"/>
<path fill-rule="evenodd" clip-rule="evenodd" d="M15 28.5C14.4477 28.5 14 28.0523 14 27.5V20.5C14 19.9478 14.4477 19.5 15 19.5H17L23.5097 15.8383C23.9911 15.5676 24.6008 15.7383 24.8716 16.2196C24.9558 16.3693 25 16.5382 25 16.7099V31.2902C25 31.8425 24.5523 32.2902 24 32.2902C23.8283 32.2902 23.6594 32.246 23.5097 32.1618L17 28.5H15Z" fill="#535AB2"/>
<path fill-rule="evenodd" clip-rule="evenodd" d="M27 21H29C29.6667 21.6561 30 22.6561 30 24C30 25.3439 29.6667 26.3439 29 27H27C27.6667 26.3439 28 25.3439 28 24C28 22.6561 27.6667 21.6561 27 21Z" fill="#535AB2"/>
<path fill-rule="evenodd" clip-rule="evenodd" d="M30 18H32C33.3333 19.3333 34 21.3333 34 24C34 26.6667 33.3333 28.6667 32 30H30C31.3333 28.6667 32 26.6667 32 24C32 21.3333 31.3333 19.3333 30 18Z" fill="#535AB2"/>
</svg>
