<svg width="48" height="48" viewBox="0 0 48 48" fill="none" xmlns="http://www.w3.org/2000/svg">
<mask id="mask0_435_13585" style="mask-type:alpha" maskUnits="userSpaceOnUse" x="4" y="4" width="40" height="40">
<rect x="4" y="4" width="40" height="40" fill="#C4C4C4"/>
</mask>
<g mask="url(#mask0_435_13585)">
<path fill-rule="evenodd" clip-rule="evenodd" d="M20.3319 8.94826C25.4789 3.80121 33.8239 3.80121 38.971 8.94826C43.0354 13.0127 43.8903 19.0714 41.5356 23.9747L42.5699 30.1866L36.9446 29.249C31.825 32.657 24.8476 32.1031 20.3319 27.5874C15.1848 22.4403 15.1848 14.0953 20.3319 8.94826Z" fill="#535AB2"/>
<mask id="path-3-inside-1_435_13585" fill="white">
<path fill-rule="evenodd" clip-rule="evenodd" d="M34.1478 34.1204C35.946 31.533 37 28.3896 37 25C37 16.1634 29.8366 9 21 9C12.1634 9 5 16.1634 5 25C5 33.8366 12.1634 41 21 41C23.7716 41 26.3786 40.2953 28.6516 39.0552L35.5548 40.5629L34.1478 34.1204Z"/>
</mask>
<path fill-rule="evenodd" clip-rule="evenodd" d="M34.1478 34.1204C35.946 31.533 37 28.3896 37 25C37 16.1634 29.8366 9 21 9C12.1634 9 5 16.1634 5 25C5 33.8366 12.1634 41 21 41C23.7716 41 26.3786 40.2953 28.6516 39.0552L35.5548 40.5629L34.1478 34.1204Z" fill="white"/>
<path d="M34.1478 34.1204L30.8631 31.8376L29.8677 33.2699L30.2399 34.9739L34.1478 34.1204ZM28.6516 39.0552L29.5051 35.1473L28.0466 34.8288L26.736 35.5438L28.6516 39.0552ZM35.5548 40.5629L34.7013 44.4707L40.7931 45.8012L39.4627 39.7094L35.5548 40.5629ZM33 25C33 27.5476 32.2106 29.8987 30.8631 31.8376L37.4324 36.4032C39.6813 33.1673 41 29.2317 41 25H33ZM21 13C27.6274 13 33 18.3726 33 25H41C41 13.9543 32.0457 5 21 5V13ZM9 25C9 18.3726 14.3726 13 21 13V5C9.95431 5 1 13.9543 1 25H9ZM21 37C14.3726 37 9 31.6274 9 25H1C1 36.0457 9.95431 45 21 45V37ZM26.736 35.5438C25.0358 36.4713 23.0856 37 21 37V45C24.4576 45 27.7214 44.1192 30.5673 42.5667L26.736 35.5438ZM36.4083 36.655L29.5051 35.1473L27.7982 42.9631L34.7013 44.4707L36.4083 36.655ZM30.2399 34.9739L31.6469 41.4163L39.4627 39.7094L38.0557 33.2669L30.2399 34.9739Z" fill="#70CCEB" mask="url(#path-3-inside-1_435_13585)"/>
<path d="M26.8333 20H15.1667C14.5223 20 14 20.4477 14 21C14 21.5523 14.5223 22 15.1667 22H26.8333C27.4777 22 28 21.5523 28 21C28 20.4477 27.4777 20 26.8333 20Z" fill="#535AB2"/>
<path d="M26.8333 24H15.1667C14.5223 24 14 24.4477 14 25C14 25.5523 14.5223 26 15.1667 26H26.8333C27.4777 26 28 25.5523 28 25C28 24.4477 27.4777 24 26.8333 24Z" fill="#535AB2"/>
<path fill-rule="evenodd" clip-rule="evenodd" d="M15.1429 28H20.8571C21.4883 28 22 28.4477 22 29C22 29.5523 21.4883 30 20.8571 30H15.1429C14.5117 30 14 29.5523 14 29C14 28.4477 14.5117 28 15.1429 28Z" fill="#535AB2"/>
</g>
</svg>
