<svg width="48" height="48" viewBox="0 0 48 48" fill="none" xmlns="http://www.w3.org/2000/svg">
<path d="M36.14 33.7821L29.8521 27.4941L27.4941 29.8521L33.782 36.1401L36.14 33.7821Z" fill="#535AB2"/>
<path fill-rule="evenodd" clip-rule="evenodd" d="M36.926 32.9961L42.428 38.4981C43.2962 39.3662 43.2962 40.7739 42.428 41.642L41.642 42.428C40.7738 43.2962 39.3662 43.2962 38.498 42.428L32.996 36.9261L36.926 32.9961Z" fill="#70CCEB"/>
<circle cx="19.56" cy="19.56" r="13.56" fill="white" stroke="#70CCEB" stroke-width="4"/>
<path fill-rule="evenodd" clip-rule="evenodd" d="M19.562 12.8925C20.1759 12.8925 20.6735 13.3901 20.6735 14.004V18.4492L25.1198 18.4503C25.7337 18.4503 26.2314 18.9479 26.2314 19.5618C26.2314 20.1757 25.7337 20.6734 25.1198 20.6734L20.6735 20.6723V25.1197C20.6735 25.7336 20.1759 26.2312 19.562 26.2312C18.9481 26.2312 18.4504 25.7336 18.4504 25.1197V20.6723L14.0041 20.6734C13.3902 20.6734 12.8926 20.1757 12.8926 19.5618C12.8926 18.9479 13.3902 18.4503 14.0041 18.4503L18.4504 18.4492V14.004C18.4504 13.3901 18.9481 12.8925 19.562 12.8925Z" fill="#535AB2"/>
</svg>
