<svg width="48" height="48" viewBox="0 0 48 48" fill="none" xmlns="http://www.w3.org/2000/svg">
<path fill-rule="evenodd" clip-rule="evenodd" d="M13.4166 9.22217H35.5833V35.977L33.9569 37.7222L32.6196 38.7777H13.4166V9.22217Z" fill="white"/>
<mask id="mask0_419_12553" style="mask-type:alpha" maskUnits="userSpaceOnUse" x="9" y="5" width="31" height="38">
<path d="M39.8056 5V33.5L30.3056 43H9.19444V5H39.8056ZM35.5833 9.22222H13.4167V38.7778H28.5554L35.5833 31.7499V9.22222Z" fill="white"/>
</mask>
<g mask="url(#mask0_419_12553)">
<path d="M39.8056 5V33.5L30.3056 43H9.19444V5H39.8056ZM35.5833 9.22222H13.4167V38.7778H28.5554L35.5833 31.7499V9.22222Z" fill="#70CCEB"/>
</g>
<path fill-rule="evenodd" clip-rule="evenodd" d="M30.3055 33.5H39.8055L30.3055 43V33.5Z" fill="#535AB2"/>
<path d="M20.8055 12.3889H17.6389C17.0559 12.3889 16.5833 12.8615 16.5833 13.4445V16.6111C16.5833 17.1941 17.0559 17.6667 17.6389 17.6667H20.8055C21.3885 17.6667 21.8611 17.1941 21.8611 16.6111V13.4445C21.8611 12.8615 21.3885 12.3889 20.8055 12.3889Z" fill="#535AB2"/>
<path d="M31.3611 20.8333H17.6389C17.0559 20.8333 16.5833 21.3058 16.5833 21.8888C16.5833 22.4718 17.0559 22.9444 17.6389 22.9444H31.3611C31.9441 22.9444 32.4167 22.4718 32.4167 21.8888C32.4167 21.3058 31.9441 20.8333 31.3611 20.8333Z" fill="#535AB2"/>
<path d="M31.3611 25.0557H17.6389C17.0559 25.0557 16.5833 25.5283 16.5833 26.1112C16.5833 26.6942 17.0559 27.1668 17.6389 27.1668H31.3611C31.9441 27.1668 32.4167 26.6942 32.4167 26.1112C32.4167 25.5283 31.9441 25.0557 31.3611 25.0557Z" fill="#535AB2"/>
<path d="M22.9167 29.2778H17.6389C17.0559 29.2778 16.5833 29.7504 16.5833 30.3334C16.5833 30.9164 17.0559 31.3889 17.6389 31.3889H22.9167C23.4996 31.3889 23.9722 30.9164 23.9722 30.3334C23.9722 29.7504 23.4996 29.2778 22.9167 29.2778Z" fill="#535AB2"/>
</svg>
