<svg width="48" height="48" viewBox="0 0 48 48" fill="none" xmlns="http://www.w3.org/2000/svg">
<circle cx="24" cy="24" r="18" fill="white" stroke="#70CCEB" stroke-width="4"/>
<path d="M20.5 22C22.433 22 24 20.433 24 18.5C24 16.567 22.433 15 20.5 15C18.567 15 17 16.567 17 18.5C17 20.433 18.567 22 20.5 22Z" fill="#535AB2"/>
<path fill-rule="evenodd" clip-rule="evenodd" d="M31.4311 19.9428C31.4622 19.9718 31.4915 20.0028 31.5187 20.0356L37.5941 27.3603C36.0891 33.4693 30.5736 38 24 38C18.7683 38 14.2069 35.1303 11.8039 30.8792L17.2652 24.9627C17.6398 24.5568 18.2725 24.5315 18.6783 24.9061C18.6979 24.9242 18.7167 24.9431 18.7348 24.9627L22.039 28.543L30.0177 19.9918C30.3945 19.588 31.0272 19.566 31.4311 19.9428Z" fill="#535AB2"/>
</svg>
